<?xml version="1.0" standalone="no"?>
<!DOCTYPE svg PUBLIC "-//W3C//DTD SVG 20010904//EN"
 "http://www.w3.org/TR/2001/REC-SVG-20010904/DTD/svg10.dtd">
<svg version="1.0" xmlns="http://www.w3.org/2000/svg"
 width="1368.000000pt" height="1368.000000pt" viewBox="0 0 1368.000000 1368.000000"
 preserveAspectRatio="xMidYMid meet">
<metadata>
Created by potrace 1.14, written by Peter Selinger 2001-2017
</metadata>
<g transform="translate(0.000000,1368.000000) scale(0.100000,-0.100000)"
fill="#000000" stroke="none">
<path d="M10070 13667 c-3 -3 -23 -7 -45 -10 -59 -8 -157 -36 -182 -53 -13 -8
-23 -12 -23 -9 0 8 -82 -34 -104 -54 -10 -9 -21 -15 -25 -15 -8 2 -83 -49
-140 -95 -60 -48 -172 -161 -207 -208 -16 -21 -31 -40 -35 -43 -17 -15 -149
-226 -149 -239 0 -3 -11 -27 -24 -53 -13 -26 -36 -80 -51 -120 -15 -40 -33
-86 -41 -103 -62 -144 -107 -370 -107 -545 0 -78 12 -321 17 -346 2 -12 7 -39
10 -60 3 -22 9 -52 13 -69 4 -16 7 -34 8 -40 0 -5 12 -44 25 -85 13 -41 25
-77 25 -80 1 -3 8 -18 15 -35 7 -16 14 -34 15 -40 2 -5 9 -26 17 -45 8 -19 16
-39 17 -45 2 -5 9 -21 17 -35 7 -14 49 -104 93 -200 43 -96 93 -206 111 -245
57 -125 60 -134 86 -201 46 -123 94 -274 108 -339 2 -5 8 -28 14 -50 6 -22 13
-52 16 -68 3 -15 7 -35 10 -45 3 -9 7 -28 10 -42 3 -14 10 -50 16 -80 6 -30
13 -66 15 -80 2 -14 7 -36 10 -50 20 -93 27 -449 11 -575 -5 -38 -10 -81 -11
-95 -2 -14 -4 -25 -5 -25 -2 0 -5 -12 -13 -55 -3 -14 -10 -36 -15 -50 -5 -14
-10 -28 -11 -32 0 -5 -1 -9 -2 -10 0 -2 -2 -11 -4 -20 -4 -24 -65 -182 -73
-190 -4 -4 -7 5 -8 20 -1 35 -13 168 -19 207 -5 30 -12 67 -22 115 -2 14 -5
33 -6 43 -1 9 -5 17 -10 17 -5 0 -7 6 -4 14 3 7 2 17 -3 22 -5 5 -11 24 -14
43 -2 19 -11 38 -18 42 -7 5 -10 9 -6 9 14 0 -54 148 -130 285 -20 35 -143
218 -151 225 -4 3 -22 25 -41 50 -75 98 -274 284 -370 346 -25 16 -47 31 -50
35 -14 15 -270 158 -288 160 -4 0 -20 6 -37 14 -128 56 -276 100 -440 130 -80
15 -194 25 -318 29 -40 1 -77 5 -83 9 -6 3 -14 3 -18 0 -4 -4 -35 -8 -69 -9
-179 -6 -364 -24 -386 -39 -6 -3 -11 -1 -11 5 0 6 -5 8 -12 3 -7 -4 -20 -9
-28 -10 -29 -6 -65 -12 -100 -18 -19 -3 -42 -8 -50 -11 -8 -3 -26 -8 -40 -10
-61 -12 -303 -76 -340 -91 -15 -6 -30 -11 -52 -16 -7 -2 -23 -9 -35 -15 -13
-7 -23 -10 -23 -7 0 3 -14 -2 -31 -11 -17 -8 -39 -17 -49 -19 -34 -7 -217 -92
-282 -132 -21 -13 -38 -21 -38 -19 0 3 -28 -13 -62 -34 -35 -22 -78 -47 -95
-56 -18 -9 -33 -20 -33 -25 0 -5 -5 -9 -11 -9 -12 0 -162 -101 -167 -112 -2
-5 -10 -8 -17 -8 -7 0 -15 -3 -17 -8 -1 -4 -28 -25 -58 -47 -30 -22 -60 -44
-67 -50 -7 -5 -19 -16 -27 -22 -8 -7 -18 -13 -22 -13 -4 0 -14 -8 -23 -18 -9
-10 -37 -33 -63 -52 -27 -18 -48 -37 -48 -42 0 -4 -5 -8 -11 -8 -10 0 -181
-139 -187 -152 -2 -5 -10 -8 -17 -8 -7 0 -15 -4 -17 -8 -3 -8 -122 -110 -247
-212 -24 -19 -53 -43 -64 -53 -12 -10 -35 -28 -50 -40 -15 -12 -38 -30 -50
-41 -12 -10 -67 -52 -122 -94 -55 -42 -103 -81 -107 -86 -4 -6 -8 -7 -8 -3 0
5 -19 -6 -42 -25 -23 -18 -50 -37 -59 -43 -9 -5 -40 -23 -68 -40 -28 -16 -51
-33 -51 -37 0 -5 -4 -8 -9 -8 -4 0 -75 -38 -156 -85 -82 -47 -154 -85 -161
-85 -7 0 -14 -4 -16 -9 -5 -15 -289 -148 -353 -166 -33 -9 -67 -22 -75 -29
-16 -14 -86 -43 -122 -50 -13 -3 -52 -14 -88 -24 -36 -10 -68 -19 -73 -20 -79
-18 -111 -24 -140 -24 -15 0 -27 -3 -27 -7 0 -7 -29 -9 -235 -14 -88 -2 -170
0 -182 4 -13 5 -25 4 -28 -1 -4 -7 -13 -7 -24 0 -10 5 -21 6 -25 3 -3 -3 -22
-7 -41 -9 -47 -3 -98 -43 -143 -113 -72 -112 -41 -196 124 -338 33 -29 65 -53
70 -53 5 0 16 -9 24 -20 8 -11 19 -20 24 -20 5 0 24 -11 42 -25 18 -14 37 -25
43 -25 6 0 11 -4 11 -8 0 -5 15 -16 33 -25 17 -10 46 -26 62 -36 125 -78 527
-291 549 -291 9 0 16 -4 16 -8 0 -5 24 -19 52 -32 29 -13 97 -45 151 -71 53
-27 98 -48 100 -49 1 0 12 -3 25 -6 12 -4 22 -11 22 -17 0 -6 3 -7 6 -4 4 4
19 0 33 -7 14 -8 42 -21 61 -29 19 -8 53 -22 75 -32 22 -10 54 -23 70 -30 53
-23 190 -77 200 -79 6 -1 19 -7 30 -13 11 -6 24 -11 28 -11 8 0 57 -18 92 -33
28 -13 378 -127 407 -133 12 -3 64 -17 113 -31 50 -14 98 -28 108 -30 10 -2
26 -6 35 -9 9 -3 28 -7 42 -10 14 -3 63 -14 108 -26 46 -11 88 -18 93 -14 5 3
9 1 9 -5 0 -5 8 -9 18 -9 9 1 35 -4 57 -9 22 -6 48 -11 58 -12 36 -2 47 -4 47
-10 0 -3 10 -6 23 -7 12 0 40 -4 62 -7 44 -8 96 -16 135 -21 14 -2 36 -6 50
-10 87 -21 300 -30 705 -30 400 1 657 8 675 19 14 9 12 -1 -2 -17 -11 -10 -75
-95 -110 -143 -4 -5 -31 -41 -59 -80 -29 -38 -53 -71 -54 -73 -3 -4 -43 -11
-99 -17 -28 -3 -67 -7 -86 -10 -48 -7 -132 -15 -210 -21 -36 -2 -81 -6 -100
-8 -36 -5 -195 -14 -360 -22 -91 -4 -599 -16 -630 -14 -8 0 -28 0 -45 -1 -16
-1 -36 -1 -42 0 -20 2 -38 2 -98 0 -31 -1 -58 1 -61 4 -4 3 -17 2 -31 -4 -13
-5 -22 -5 -19 0 3 5 -8 6 -27 2 -18 -5 -41 -6 -52 -4 -41 8 -60 8 -66 0 -3 -4
-17 -4 -30 1 -13 5 -33 6 -44 2 -11 -4 -29 -4 -40 0 -11 4 -32 4 -47 -1 -14
-4 -29 -5 -31 -3 -3 3 -121 7 -263 9 -308 5 -544 15 -749 31 -38 3 -95 7 -125
9 -75 5 -190 15 -220 20 -14 2 -56 6 -95 10 -38 3 -87 8 -108 11 -21 3 -63 7
-95 10 -31 2 -84 7 -117 10 -33 4 -77 7 -97 8 -21 0 -38 3 -38 7 0 3 -10 5
-22 6 -13 0 -68 4 -123 8 -114 8 -270 10 -300 3 -105 -25 -169 -111 -169 -228
0 -74 27 -127 85 -171 50 -37 185 -75 335 -95 19 -2 51 -6 72 -9 20 -3 55 -7
77 -9 38 -4 131 -14 205 -22 54 -6 99 -11 175 -19 39 -3 81 -8 95 -10 14 -3
57 -7 95 -11 98 -9 123 -11 180 -18 169 -21 298 -36 355 -42 36 -3 81 -9 100
-13 19 -4 52 -7 72 -6 21 0 38 -2 38 -5 0 -3 8 -6 18 -6 27 -1 134 -13 167
-20 17 -3 53 -7 80 -9 28 -2 50 -4 50 -5 0 -1 11 -3 25 -5 14 -1 50 -6 80 -10
30 -4 70 -9 88 -11 17 -2 48 -6 67 -9 33 -5 67 -9 145 -20 46 -6 247 -34 285
-40 17 -3 53 -7 80 -11 48 -6 67 -9 118 -18 12 -3 45 -7 72 -10 28 -4 61 -9
75 -11 14 -3 41 -7 60 -10 19 -2 44 -6 55 -8 11 -3 40 -7 65 -10 101 -14 127
-18 150 -22 13 -3 40 -7 60 -10 20 -3 47 -8 60 -10 14 -3 45 -8 70 -11 25 -3
52 -7 60 -9 8 -3 33 -7 55 -10 22 -3 51 -8 65 -11 13 -3 38 -7 55 -10 16 -2
41 -6 55 -9 14 -3 39 -8 55 -10 17 -3 57 -11 90 -17 33 -6 67 -12 75 -13 73
-11 102 -19 105 -29 2 -6 6 -438 9 -961 4 -1005 10 -1358 32 -1985 3 -102 8
-234 9 -295 5 -158 14 -382 20 -515 7 -153 14 -300 21 -440 12 -266 30 -568
39 -675 11 -114 12 -130 25 -195 13 -69 28 -106 67 -158 46 -61 154 -87 246
-57 84 27 132 85 143 174 2 20 6 51 8 69 2 18 -1 35 -5 38 -5 3 -6 13 -1 22 6
15 8 47 2 62 -1 3 -3 50 -5 105 -3 97 -10 242 -20 430 -3 50 -7 137 -10 195
-2 58 -7 143 -10 190 -5 98 -14 281 -20 425 -2 55 -7 159 -10 230 -19 457 -36
1273 -39 1877 0 159 -5 288 -9 288 -5 0 -5 5 -1 11 8 13 12 159 4 159 -3 0 -5
11 -5 25 0 14 4 25 8 25 5 0 5 6 1 12 -11 17 -11 128 -1 128 5 0 5 6 0 12 -10
18 -11 118 -1 124 5 3 5 11 1 17 -13 21 -13 567 0 568 14 2 15 1 59 -7 18 -3
46 -7 62 -9 15 -3 35 -7 45 -9 9 -3 30 -8 46 -11 17 -2 41 -8 55 -11 14 -3 37
-7 53 -8 15 0 27 -4 27 -7 0 -3 6 -6 13 -7 14 -1 51 -8 87 -16 14 -3 34 -8 45
-10 11 -2 40 -9 65 -16 25 -6 63 -15 85 -20 22 -5 76 -19 120 -30 44 -11 91
-23 105 -26 14 -3 48 -11 75 -19 28 -8 124 -35 215 -61 91 -25 205 -59 254
-75 50 -16 92 -26 94 -24 3 3 11 0 17 -5 10 -8 141 -57 200 -74 6 -2 19 -7 30
-11 11 -5 43 -17 70 -27 63 -23 65 -24 210 -93 117 -55 217 -112 223 -127 2
-5 8 -8 13 -8 5 0 17 -7 26 -15 10 -7 50 -41 90 -74 75 -62 125 -91 162 -94
11 -1 21 -5 21 -10 0 -4 5 -5 10 -2 6 4 26 8 46 10 19 2 51 16 72 31 40 30
104 94 95 94 -3 0 1 8 10 18 42 47 37 145 -12 215 -151 219 -480 408 -1066
614 -71 25 -136 46 -142 46 -7 0 -13 3 -13 7 0 3 -8 6 -18 7 -9 1 -44 10 -77
21 -80 27 -166 53 -185 55 -8 2 -19 5 -25 8 -5 4 -23 10 -40 14 -16 5 -37 10
-45 12 -8 3 -24 6 -36 7 -11 1 -24 5 -30 8 -5 3 -22 9 -39 13 -16 5 -37 10
-45 12 -8 2 -24 6 -35 8 -38 8 -60 13 -60 15 0 2 -24 8 -150 39 -22 5 -49 11
-60 14 -11 3 -63 15 -115 27 -52 11 -106 24 -120 27 -14 3 -34 7 -45 9 -11 1
-31 6 -45 9 -14 4 -35 8 -47 9 -13 0 -23 4 -23 8 0 4 -8 7 -17 6 -10 0 -31 3
-48 7 -16 4 -39 8 -50 11 -90 16 -140 31 -139 39 2 24 27 101 37 115 7 8 23
15 37 16 37 1 143 15 150 19 4 2 29 7 56 11 27 3 51 8 54 9 3 2 25 6 50 10 25
4 48 9 51 11 4 2 51 13 106 24 54 12 107 23 118 25 11 3 29 7 40 9 11 2 40 9
65 16 25 7 55 14 67 16 12 2 34 9 48 14 14 5 25 7 25 5 0 -3 16 1 36 10 19 8
38 14 42 13 4 -1 47 11 97 26 49 15 97 29 107 31 9 2 26 9 38 15 12 6 24 9 28
6 3 -3 14 2 25 11 10 10 22 17 26 16 3 -2 29 5 56 14 28 9 55 18 60 19 17 3
199 75 225 89 14 7 27 13 30 13 3 0 37 14 75 32 39 17 75 33 80 34 20 5 130
61 133 69 2 4 11 7 21 7 9 0 21 4 26 9 6 4 42 25 80 46 316 171 584 393 815
675 25 30 49 61 55 67 49 60 135 183 135 193 0 6 4 10 8 10 5 0 15 12 23 28 8
15 16 29 19 32 11 10 80 132 80 140 0 5 4 10 8 12 12 4 124 238 160 333 17 44
34 89 38 100 4 11 8 25 9 30 0 6 3 15 6 20 25 42 91 370 104 515 6 75 7 331 1
406 -10 110 -30 248 -50 334 -8 33 -12 60 -10 60 3 0 0 8 -5 18 -5 9 -12 33
-15 52 -3 19 -10 51 -16 70 -6 19 -13 42 -15 50 -6 25 -82 243 -98 283 -9 20
-16 40 -16 42 -1 3 -8 22 -17 43 -9 20 -17 42 -18 47 -3 12 -30 72 -99 215
-28 58 -51 107 -52 110 -1 3 -29 61 -62 130 -66 135 -104 219 -118 260 -2 6
-23 59 -32 80 -3 8 -7 20 -8 25 -2 6 -14 46 -29 90 -30 95 -74 275 -82 336 -3
24 -8 64 -11 89 -14 109 -7 367 12 465 24 119 83 281 110 301 8 6 15 16 15 22
0 30 127 63 165 43 6 -3 18 -7 28 -8 33 -5 132 -61 220 -124 81 -57 277 -242
277 -260 0 -4 12 -21 26 -36 78 -84 179 -369 199 -563 2 -19 7 -60 10 -90 5
-52 13 -117 19 -150 9 -61 43 -125 92 -177 30 -32 54 -53 54 -48 0 6 4 4 8 -3
10 -15 40 -23 99 -26 42 -3 143 36 143 55 0 5 5 9 11 9 16 0 72 64 124 142 63
93 217 407 229 467 2 9 8 29 14 44 7 16 12 34 12 41 0 7 3 16 7 20 4 3 8 12 9
19 2 7 11 46 20 87 18 79 25 276 11 340 -4 19 -10 50 -13 69 -4 19 -13 45 -20
59 -7 14 -11 29 -8 34 3 4 0 8 -5 8 -6 0 -11 7 -11 15 0 21 -85 180 -153 287
-21 31 -37 62 -37 68 0 5 -4 10 -9 10 -5 0 -13 10 -17 23 -4 12 -20 41 -36 65
-16 23 -26 42 -22 42 4 0 1 8 -7 18 -16 19 -30 43 -62 105 -11 23 -25 45 -30
48 -4 3 -9 12 -10 20 -2 8 -5 19 -9 24 -3 6 -21 37 -38 70 -18 33 -45 78 -59
100 -15 22 -30 48 -34 58 -19 50 -143 213 -228 299 -52 54 -98 98 -102 98 -4
0 -28 15 -54 33 -27 19 -64 41 -83 51 -19 9 -42 20 -50 25 -57 31 -164 69
-245 86 -39 9 -249 18 -255 12z m148 -512 c70 -6 192 -43 192 -56 0 -5 6 -9
13 -9 17 0 167 -149 167 -167 0 -7 3 -13 8 -13 4 0 18 -18 32 -40 14 -22 28
-40 32 -40 5 0 8 -5 8 -10 0 -6 16 -36 35 -66 19 -30 35 -57 35 -59 0 -3 23
-47 51 -97 52 -95 99 -179 128 -233 9 -16 18 -32 21 -35 3 -3 16 -25 29 -50
13 -25 29 -52 36 -60 27 -34 134 -229 158 -291 24 -60 42 -181 29 -194 -3 -3
-30 46 -61 108 -107 214 -234 376 -421 537 -29 25 -63 55 -77 68 -13 12 -26
22 -28 22 -3 0 -26 16 -52 37 -27 20 -77 50 -113 66 -36 17 -68 35 -72 41 -4
6 -8 8 -8 4 0 -3 -36 7 -80 23 -44 15 -80 26 -80 23 0 -2 -8 -1 -17 5 -19 9
-85 22 -141 25 -17 2 -34 5 -37 7 -5 5 -131 -6 -178 -16 -38 -8 -160 -69 -176
-89 -8 -9 -17 -16 -22 -16 -9 0 -74 -67 -133 -135 l-26 -30 16 39 c9 22 17 48
19 57 6 32 88 199 97 199 5 0 7 4 4 8 -8 13 70 134 151 237 48 60 120 125 140
125 7 0 13 4 13 9 0 23 194 85 235 75 6 -2 39 -5 73 -9z m-2518 -3069 c14 -4
43 -9 65 -11 22 -3 69 -13 105 -22 36 -8 71 -16 78 -16 6 0 12 -4 12 -9 0 -5
4 -7 9 -4 4 3 32 -4 62 -15 30 -11 61 -22 70 -24 50 -11 245 -126 313 -185
312 -268 479 -504 537 -759 18 -78 19 -84 25 -136 3 -27 7 -61 10 -75 6 -33 5
-225 -1 -270 -13 -94 -18 -120 -45 -207 -12 -40 -21 -75 -20 -79 1 -4 -4 -10
-12 -15 -7 -5 -13 -12 -13 -16 -1 -16 -50 -113 -57 -113 -5 0 -8 -5 -8 -11 0
-12 -70 -112 -82 -117 -5 -2 -6 -8 -2 -13 3 -5 -2 -9 -10 -9 -9 0 -16 -4 -16
-9 0 -16 -90 -109 -168 -174 -80 -67 -236 -172 -332 -224 -111 -60 -322 -165
-340 -168 -3 0 -20 -9 -37 -18 -18 -10 -33 -15 -33 -11 0 4 -6 2 -12 -4 -57
-45 -612 -214 -788 -239 -19 -3 -37 -9 -38 -14 -2 -5 -8 -7 -13 -3 -5 3 -51
-2 -102 -10 -207 -35 -395 -50 -617 -50 -136 1 -360 13 -372 20 -5 3 -38 7
-76 10 -70 4 -98 7 -197 20 -33 5 -72 8 -87 9 -16 0 -28 4 -28 8 0 5 -4 6 -8
3 -4 -2 -39 1 -77 9 -39 7 -88 15 -110 19 -45 6 -69 11 -135 26 -25 5 -56 12
-70 14 -14 2 -54 12 -90 21 -36 9 -72 19 -80 20 -8 2 -15 4 -15 5 0 1 -7 3
-15 5 -53 11 -172 46 -340 102 -58 19 -113 36 -122 38 -9 2 -26 9 -38 15 -12
6 -29 13 -38 15 -9 2 -55 18 -102 36 -47 17 -103 38 -125 46 -22 7 -49 18 -60
23 -11 5 -60 26 -110 46 -88 35 -123 50 -233 100 -29 13 -54 24 -56 24 -2 0
-48 21 -103 46 -54 25 -127 60 -163 76 -36 17 -67 30 -70 30 -3 0 -12 5 -20
12 -8 7 -36 20 -62 30 -27 10 -48 19 -48 21 0 3 238 82 273 91 4 1 9 3 12 4 3
1 8 3 13 5 4 1 16 5 27 10 11 4 40 16 65 25 94 37 346 159 440 214 25 14 81
46 125 71 44 26 100 58 125 72 45 26 119 72 174 109 16 10 36 24 45 29 36 22
176 119 181 124 3 3 41 33 85 65 66 49 266 209 312 251 6 5 24 20 40 32 15 12
42 34 59 50 17 15 55 48 84 73 30 25 74 62 99 83 43 36 75 62 128 105 12 9 45
35 73 57 28 22 61 48 73 59 12 10 33 26 47 35 14 9 30 19 35 24 6 4 28 21 50
37 22 16 46 34 53 40 6 6 12 8 12 5 0 -4 7 1 16 9 15 15 137 94 221 143 207
120 582 269 723 288 14 2 26 4 28 6 1 1 7 3 12 4 6 1 11 4 13 5 1 1 13 3 27 5
14 2 36 6 50 10 14 3 36 7 50 10 90 14 108 17 130 21 14 2 59 7 100 10 41 4
77 8 79 10 6 6 404 -4 431 -10z m2335 -1263 c-14 -169 -16 -181 -45 -318 -23
-109 -44 -190 -60 -230 -6 -16 -11 -31 -10 -33 9 -14 -164 -406 -190 -432 -3
-3 -14 -22 -24 -42 -11 -21 -23 -38 -28 -38 -4 0 -8 -5 -8 -12 0 -9 -112 -172
-129 -188 -4 -3 -31 -34 -61 -70 -109 -129 -396 -390 -429 -390 -6 0 -11 -4
-11 -8 0 -4 -22 -21 -50 -37 -27 -17 -50 -33 -50 -37 0 -5 -7 -8 -15 -8 -8 0
-15 -4 -15 -10 0 -5 -5 -10 -10 -10 -6 0 -34 -15 -63 -33 -29 -18 -79 -46
-112 -62 -33 -17 -62 -33 -65 -36 -9 -9 -145 -70 -154 -69 -5 1 -12 -3 -15 -8
-3 -6 -25 -18 -49 -26 -76 -29 -116 -44 -147 -57 -16 -7 -37 -13 -46 -15 -9
-2 -29 -9 -45 -15 -16 -7 -35 -14 -41 -16 -7 -1 -19 -5 -25 -6 -7 -2 -26 -9
-41 -15 -16 -7 -31 -12 -35 -12 -4 0 -56 -16 -116 -35 -60 -19 -118 -35 -128
-35 -10 0 -18 -4 -18 -9 0 -5 -8 -8 -17 -6 -10 1 -22 -1 -28 -5 -5 -4 -21 -10
-35 -12 -14 -3 -88 -22 -164 -42 -77 -20 -144 -36 -150 -36 -14 0 38 48 129
120 39 30 72 58 73 62 2 5 8 8 13 8 9 0 21 8 54 38 7 6 16 12 19 12 3 0 47 27
99 60 51 33 99 60 105 60 7 0 12 4 12 8 0 5 15 16 33 25 17 10 46 26 62 37 17
11 37 23 45 27 8 3 38 21 65 38 28 17 57 34 65 38 8 4 33 18 55 32 22 14 57
35 79 48 46 26 54 31 129 80 31 20 58 36 60 34 1 -1 13 7 25 19 12 11 35 27
50 35 15 8 29 16 32 20 3 3 41 30 85 60 44 30 86 62 93 72 7 9 18 17 23 17 8
0 168 121 205 155 6 5 29 24 50 40 139 109 324 280 408 378 22 27 50 59 61 72
11 13 31 38 45 56 14 18 30 38 35 44 6 6 15 18 20 27 6 8 33 49 61 89 70 102
134 207 205 339 23 42 78 170 120 278 12 32 17 27 14 -15z"/>
</g>
</svg>
