<?xml version="1.0" encoding="UTF-8" standalone="no"?>
<!-- Created with Inkscape (http://www.inkscape.org/) -->

<svg
   width="163.07031mm"
   height="43.227455mm"
   viewBox="0 0 163.07031 43.227455"
   version="1.1"
   id="svg5"
   inkscape:version="1.1 (c68e22c387, 2021-05-23)"
   sodipodi:docname="kunst.svg"
   xmlns:inkscape="http://www.inkscape.org/namespaces/inkscape"
   xmlns:sodipodi="http://sodipodi.sourceforge.net/DTD/sodipodi-0.dtd"
   xmlns="http://www.w3.org/2000/svg"
   xmlns:svg="http://www.w3.org/2000/svg">
  <sodipodi:namedview
     id="namedview7"
     pagecolor="#ffffff"
     bordercolor="#666666"
     borderopacity="1.0"
     inkscape:pageshadow="2"
     inkscape:pageopacity="0.0"
     inkscape:pagecheckerboard="0"
     inkscape:document-units="mm"
     showgrid="false"
     fit-margin-top="0"
     fit-margin-left="0"
     fit-margin-right="0"
     fit-margin-bottom="0"
     inkscape:zoom="1.4823793"
     inkscape:cx="291.76068"
     inkscape:cy="105.57352"
     inkscape:window-width="1920"
     inkscape:window-height="1017"
     inkscape:window-x="-8"
     inkscape:window-y="32"
     inkscape:window-maximized="1"
     inkscape:current-layer="layer1" />
  <defs
     id="defs2" />
  <g
     inkscape:label="Layer 1"
     inkscape:groupmode="layer"
     id="layer1"
     transform="translate(-31.042725,-218.19044)">
    <path
       style="fill:#000000;stroke-width:0.264583"
       id="path854"
       d="" />
    <path
       style="fill:#ffffff;fill-opacity:1;stroke:none;stroke-width:0.106166"
       d="m 39.642134,233.95678 c 0.878881,0 1.758653,-0.46989 2.547973,-0.83159 1.145844,-0.52521 2.340207,-0.94859 3.503463,-1.43324 0.505878,-0.21084 1.23927,-0.73923 1.804814,-0.7078 0.387822,0.0216 0.58253,0.44037 0.725429,0.74315 0.338031,0.71567 0.487194,1.5651 0.636993,2.33565 0.07803,0.40098 0.177827,0.71152 -0.194601,0.99084 -0.541232,0.40598 -1.475595,0.40555 -2.123311,0.49547 -1.554794,0.21594 -3.148764,0.35906 -4.671284,0.76089 -0.610367,0.16105 -1.883876,0.35481 -2.211778,0.93776 -0.253248,0.45025 -0.230029,1.09202 -0.230029,1.59249 v 2.65413 c 0,0.85039 -0.219614,2.09274 0.106165,2.86647 l 1.273987,-0.86705 2.441807,-1.8579 7.219257,-5.44979 0.990843,3.29113 0.60164,1.69865 2.123311,-1.38016 c 0,0.90921 0.03843,1.9801 0.247684,2.86647 0.152241,0.64464 0.68084,1.09192 0.60164,1.80482 -0.176129,1.58505 -2.113013,1.87329 -2.937282,0.63699 -0.509488,-0.76428 0.201078,-1.3845 0.283144,-2.12331 0.07049,-0.63423 -0.208403,-1.10115 -0.318497,-1.69865 l -2.547973,1.76946 -3.715794,2.61868 -2.547973,1.76946 0.95549,0.88468 2.123311,1.6633 c -1.080978,0 -2.237651,0.12188 -3.291132,-0.14152 -2.469315,-0.61735 -3.609628,-2.92465 -3.609628,-5.27293 l -2.229477,1.48632 v -10.72272 h -6.157601 v 26.01056 h 6.157601 v -11.35971 l 4.034291,2.93728 7.431588,5.43207 2.972635,2.17639 1.061655,0.77862 0.95549,0.0354 h 1.91098 6.794594 l -1.256256,-0.99084 -2.671869,-1.91098 -7.431587,-5.34374 -4.352788,-3.11415 H 58.5396 61.512235 c 0.293866,0 0.817475,-0.10267 1.043926,0.12389 0.212437,0.21233 0.123895,0.66354 0.123895,0.93776 v 2.54798 c 0,2.24051 -0.386973,5.66297 1.91098,6.97157 0.863975,0.49197 1.997823,0.6837 2.972635,0.77851 1.628048,0.15829 3.35292,0 4.98978,0 h 10.191892 c 2.349125,0 5.197865,0.39154 7.325422,-0.76089 0.916528,-0.49643 1.387159,-1.46137 1.627837,-2.42408 0.439733,-1.75884 0.389313,-3.59593 0.389313,-5.41444 v -2.01714 c 0,-0.20427 0.0689,-0.55132 -0.1239,-0.69008 -0.304164,-0.21902 -1.205722,-0.0531 -1.574753,-0.0531 h -4.352787 v 6.4761 H 68.625326 v -7.00693 c -1.4688,0.54113 -2.79279,0.53083 -4.352787,0.53083 -0.385381,0 -1.285665,0.1653 -1.574753,-0.1239 -0.197362,-0.19725 -0.123896,-0.57775 -0.123896,-0.83159 v -2.12331 -8.38708 c 0,-0.95008 0.149269,-2.03615 0,-2.97264 -0.06752,-0.42338 -0.60079,-0.42753 -0.707805,-0.84932 -0.06211,-0.24524 0.0913,-0.6079 0.141625,-0.84933 0.162327,-0.77946 0.300979,-2.23531 0.990843,-2.74257 0.507046,-0.37285 1.712874,0.39345 2.229476,0.60153 1.315922,0.53009 2.608169,1.114 3.928125,1.64557 0.672665,0.27093 1.281737,0.60164 2.017145,0.60164 v -9.2364 c 0,-1.625 0.08058,-3.45122 -1.097008,-4.74207 -1.88412,-2.06523 -4.414257,-1.73403 -6.971573,-1.73403 H 47.604549 c -2.292326,0 -5.159008,-0.42603 -6.865375,1.48632 -1.38443,1.55152 -1.309371,3.3535 -1.309371,5.30827 0,2.9186 -0.313635,6.06259 0.212331,8.91791 m 36.202449,-7.64392 v 8.59941 2.12331 l 0.247684,1.04393 0.60164,0.12389 h 1.592483 l 5.73294,-0.53083 1.787084,-0.1946 0.336226,-2.19412 1.167821,-0.0531 h 2.760304 c -0.25055,0.95209 -1.248506,1.94208 -2.229476,2.10558 -0.366271,0.061 -0.79794,0.1085 -1.167821,0.12389 -0.187807,0.008 -0.454919,-0.0552 -0.58391,0.1239 -0.121878,0.16912 -0.05308,0.5286 -0.05308,0.72543 v 2.01714 l 4.03429,0.60164 2.017147,-0.49547 -0.10617,-5.30828 1.06166,-0.0708 1.91098,2.07023 1.59248,0.23006 2.01714,0.21233 c 0,-0.5304 -0.21764,-1.66468 0.0531,-2.12331 0.25331,-0.42934 1.523675,-0.21233 1.964055,-0.21233 0.58465,0 1.47305,-0.16605 2.01714,0.0531 0.40195,0.1619 0.7214,0.55514 1.06166,0.81397 0.84847,0.64527 1.68708,1.35085 2.44181,2.10558 l -2.01715,-0.0531 -5.520605,-0.47775 v 2.33565 h 0.95549 l 2.123305,-0.3185 2.01715,0.49547 2.22948,0.14152 1.46858,-0.0708 0.1239,1.76946 h -6.7946 c -0.53061,0 -1.061855,-0.007 -1.592475,0 -0.21233,0.003 -0.42785,-0.0241 -0.5131,0.21233 -0.44313,1.22855 1.30934,0.84933 1.999415,0.84933 h 6.90076 v 3.29113 l -2.97264,-2.44181 -0.63699,-0.63699 0.21233,3.18496 v 3.29114 c 1.665,-0.30672 2.80776,-1.76055 3.29113,-3.29114 l 12.38602,10.40423 3.64498,3.06107 1.59248,1.3448 1.27399,0.0531 h 2.86647 v -11.35971 h -5.30828 l 0.10617,1.69865 0.10616,1.69864 -1.69865,-1.69864 -1.91098,-1.69865 h 3.29114 v -7.53776 c -1.21719,-0.22422 -2.47281,-0.66066 -3.60963,-1.15009 -0.38167,-0.16434 -1.03161,-0.48252 -1.07939,-0.97322 -0.0394,-0.40523 0.56544,-0.96239 0.86706,-1.16782 0.36606,-0.24938 0.77235,-0.36181 1.16782,-0.54856 0.83276,-0.39323 1.82275,-0.96992 2.7603,-1.04392 v 4.88361 l 1.59249,0.38931 1.48631,0.38921 1.06166,1.7341 1.16782,-0.28314 v -3.71579 c -2.10654,0 -2.40359,-2.93845 -1.87563,-4.45896 0.15394,-0.44334 0.53126,-0.7559 0.70781,-1.16782 h -1.16782 c 0.11221,-0.60896 0.5373,-1.28386 0.38931,-1.91098 -0.18112,-0.76673 -0.94021,-1.69047 -1.6633,-1.98179 -0.97736,-0.39366 -2.2574,-0.34514 -3.29113,-0.46001 -1.56276,-0.17369 -3.10587,-0.48476 -4.67128,-0.637 -1.14086,-0.11094 -2.247,-0.26021 -3.3973,-0.21233 -0.3599,0.015 -1.05104,-0.14364 -1.36242,0.0531 -0.20915,0.13207 -0.1963,0.37636 -0.26542,0.58391 -0.31106,0.9332 -0.28314,1.77307 -0.28314,2.76031 v 9.66106 l -1.59248,-1.27398 -2.65414,-2.22948 -1.69865,-1.48632 1.04392,-0.12389 0.1239,-0.72543 v -2.01715 -9.02407 h -4.03429 c -0.61279,0 -1.30626,0.0924 -1.91098,0 -0.59453,-0.0908 -0.99849,-0.85128 -0.3185,-1.16782 0.37498,-0.17457 0.97832,0 1.38015,0 h 3.29114 c 0.36722,0 1.15943,0.14163 1.46858,-0.0885 0.17008,-0.12654 0.1239,-0.35803 0.1239,-0.54852 v -1.38016 c 0,-2.47494 -1.83008,-4.63835 -4.35279,-4.88361 -1.24702,-0.12124 -2.56814,0 -3.821955,0 h -7.643913 -7.643919 c -1.253815,0 -2.574939,-0.12124 -3.82196,0 -2.295936,0.22322 -4.130158,2.06286 -4.352787,4.35279 -0.05722,0.58888 0,1.21275 0,1.80481 0,0.17406 -0.05542,0.46854 0.05308,0.6193 0.160204,0.22246 0.663853,0.12386 0.902407,0.12386 h 2.547973 c 0.748998,0 1.596517,-0.11292 2.335642,0 0.302996,0.0463 0.598455,0.3004 0.513098,0.63699 -0.16944,0.66836 -1.064628,0.53083 -1.574754,0.53083 h -4.777449 m 68.052107,1.59248 c -0.36733,-2.84363 0.86737,-6.20962 -1.59248,-8.40477 -1.85259,-1.65274 -4.48974,-1.25629 -6.7946,-1.25629 h -15.394 c -2.23107,0 -4.90899,-0.34145 -6.58227,1.48632 -1.54513,1.68775 -1.27398,3.93235 -1.27398,6.05143 0,0.66611 -0.17953,1.88301 0.53083,2.28256 0.25766,0.14492 0.58826,0.008 0.84932,-0.0354 0.56968,-0.095 1.23046,-0.23003 1.80481,-0.23003 0.97864,0 1.7941,0.64922 2.76031,0.74316 0.93256,0.0907 1.84505,-0.22952 2.7603,-0.3185 1.85355,-0.1802 3.69074,-0.45812 5.52061,-0.81394 0.42445,-0.0825 0.98532,-0.0735 1.38015,0.12386 0.40895,0.20446 0.75176,0.77017 1.27399,0.53083 0.38655,-0.17718 0.63041,-0.54688 1.06165,-0.65469 0.81663,-0.20414 1.54832,0.19564 2.33565,0.28311 2.09071,0.2323 4.1706,0.64583 6.26376,0.84933 0.97566,0.0949 1.67105,-0.33378 2.54798,-0.60161 0.80367,-0.24551 1.71775,-0.0354 2.54797,-0.0354 m 4.77745,7.32543 10.40422,0.10616 2.54797,0.637 c -0.17729,-0.96006 -0.43527,-1.91916 -0.67202,-2.86647 -0.11891,-0.47456 -0.3323,-0.98841 -0.28347,-1.48632 0.0573,-0.59421 0.47881,-1.17536 0.72512,-1.69865 0.23674,-0.5011 0.38325,-1.2147 0.86737,-1.5571 0.29938,-0.21206 0.59559,-0.077 0.81429,0.17695 0.37264,0.43347 0.64867,1.33365 1.30902,1.38015 1.05953,0.0746 0.97566,-1.63147 1.91098,-1.59248 0.59877,0.025 0.98946,1.03108 1.18587,1.48631 0.25798,0.59984 0.66035,1.24575 0.72511,1.91098 0.10829,1.11549 -0.54251,2.41251 -0.74316,3.50347 h 12.73986 v -3.29114 c 0,-0.32104 0.13059,-0.99912 -0.12421,-1.23863 -0.25055,-0.2359 -0.64867,-0.12697 -0.93744,-0.0707 -0.57117,0.11094 -1.22515,0.0851 -1.80482,0.14151 -0.91514,0.089 -1.94495,0.19577 -2.86646,0.10617 -0.29408,-0.0287 -0.55525,-0.18367 -0.84933,-0.21233 -0.45545,-0.0443 -0.93001,0.0624 -1.38015,0.10616 -0.62319,0.0605 -1.29734,0.12836 -1.91098,0.24769 -0.41617,0.081 -0.97566,0.21201 -1.38015,0.0355 -0.59347,-0.25905 -0.94488,-1.21008 -1.18587,-1.76946 -0.0796,-0.18537 -0.23038,-0.43435 -0.24737,-0.637 -0.052,-0.61283 0.83446,-0.57059 1.22091,-0.49544 1.2984,0.25241 2.81657,0.49544 4.14045,0.49544 0.65504,0 1.17632,-0.2661 1.80482,-0.31849 0.4873,-0.0406 1.00326,0.16534 1.48631,0.21233 0.53083,0.0516 1.06166,0.0546 1.59249,0.10616 0.45757,0.0445 0.92045,0.0615 1.38015,0.10617 0.24524,0.0239 0.5011,0.1774 0.74316,0.0531 0.55949,-0.28774 0.31849,-1.54061 0.31849,-2.07023 0,-1.914 0.45227,-4.45242 -0.56586,-6.1576 -1.56169,-2.61413 -4.43666,-2.33564 -7.07805,-2.33564 h -17.09266 c -0.83233,0 -1.722,-0.0918 -2.54797,0 -1.90355,0.21152 -3.51089,1.61361 -4.10542,3.3973 -0.21339,0.64248 -0.1412,1.34792 -0.1412,2.01714 v 3.29113 c 0,0.43021 -0.19216,1.48496 0.23038,1.75174 0.39387,0.24874 1.15614,-0.0124 1.57443,-0.0531 0.6009,-0.0584 1.20392,-0.0478 1.80482,-0.10616 0.66778,-0.0649 1.33662,-0.27851 2.01714,-0.21233 0.40449,0.0393 0.76333,0.27914 1.16782,0.31849 0.59878,0.0583 1.21454,-0.15489 1.80482,-0.21233 0.84826,-0.0824 1.69546,-0.21804 2.54797,-0.26541 0.4597,-0.0256 1.77933,-0.35827 1.55745,0.58391 -0.17093,0.72352 -0.8058,2.14539 -1.55745,2.40645 -0.41829,0.14513 -0.86525,-0.0615 -1.27399,-0.12389 -0.73041,-0.11158 -1.49481,-0.19397 -2.22947,-0.26542 -0.78881,-0.0767 -1.4704,0.14906 -2.22948,0.21234 -0.5011,0.0418 -1.18693,-0.0564 -1.69865,-0.10617 -0.87586,-0.0851 -1.77084,-0.21233 -2.65414,-0.21233 -0.23144,0 -0.72617,-0.0951 -0.92045,0.0531 -0.25692,0.19726 -0.1412,0.8334 -0.1412,1.11474 v 3.3973 m 15.394,-14.63315 c 1.09563,-0.18268 2.08191,0.70704 2.40677,1.68095 0.50748,1.52436 -0.14863,3.64367 -1.98211,3.82196 -2.99174,0.2909 -3.29325,-5.02485 -0.42466,-5.50291 M 55.036147,223.358 c 0.928736,-0.15479 1.787828,0.4678 2.335642,1.15013 1.081402,1.347 0.997213,3.63021 -0.01773,4.98978 -0.364147,0.48783 -0.94551,0.99169 -1.574753,1.06165 -4.005944,0.44515 -4.4942,-6.57639 -0.743159,-7.20156 m 29.301689,1.59249 c 0.890729,-0.14848 0.899329,0.9071 1.291716,1.36245 1.078748,1.25212 2.754359,2.11205 3.662712,3.50346 0.318496,0.48794 0.09905,1.18906 -0.03546,1.69865 -0.05542,0.21 -0.09013,0.46979 -0.35385,0.5131 -0.264458,0.0434 -0.406189,-0.22624 -0.530827,-0.40693 -0.316904,-0.45917 -0.613106,-0.93065 -0.93776,-1.38015 -0.517239,-0.71609 -1.032354,-1.42584 -1.57486,-2.12331 -0.28463,-0.36606 -0.539958,-0.83536 -0.902407,-1.13244 -0.338562,-0.27757 -0.93723,-0.23138 -1.203174,-0.58391 -0.3926,-0.52046 -0.0431,-1.34642 0.58391,-1.45092 m 14.650849,0 c 0.65408,-0.0545 1.053475,0.84225 0.76088,1.36245 -0.28187,0.50111 -1.00029,0.34891 -1.36252,0.76086 -0.96632,1.09896 -1.83911,2.36954 -2.65414,3.59193 -0.21913,0.32869 -0.68477,1.29373 -1.09701,1.36242 -0.30236,0.0504 -0.38517,-0.2962 -0.44239,-0.5131 -0.1343,-0.50917 -0.32487,-1.21389 -0.0354,-1.69865 0.25852,-0.43294 0.72809,-0.76439 1.09701,-1.09704 0.82427,-0.74314 1.72105,-1.46947 2.45954,-2.30025 0.43347,-0.48767 0.45885,-1.4007 1.27399,-1.46862 m -12.633703,0.21233 c 0.730843,-0.23645 1.883164,-0.0177 2.654138,-0.0177 h 6.051435 c 0.46745,0 1.39321,-0.17842 1.80482,0.0531 0.34652,0.1949 0.36244,0.62996 0.0884,0.88471 -0.52117,0.48461 -1.86851,0.23003 -2.53024,0.23003 h -5.520611 c -0.709079,0 -1.772115,0.20041 -2.441807,-0.0354 -0.45768,-0.16115 -0.657058,-0.93652 -0.106165,-1.11474 m -29.195524,10.06803 c 0,-0.72384 0.330493,-1.64483 0.176978,-2.33565 -0.103405,-0.46532 -0.666295,-0.98956 -0.442392,-1.48631 0.233352,-0.51788 0.865462,-0.6199 1.185551,-1.06166 0.315311,-0.43517 0.377737,-1.27483 0.884677,-1.5394 0.336439,-0.17554 0.762693,-0.008 1.061656,0.14152 0.824375,0.41224 1.498632,1.06919 1.592483,2.03488 0.128141,1.31836 -0.360114,2.67653 -0.707806,3.92812 -0.484752,1.74536 -1.073121,3.45983 -1.557024,5.20211 -0.21817,0.7851 -0.601958,1.54068 -0.778618,2.33564 -0.203307,0.91494 0.858985,1.67944 0.371579,2.65414 -0.688908,1.37782 -2.617936,0.90963 -3.025717,-0.42466 -0.255435,-0.83627 0.512673,-1.56881 0.672452,-2.33564 0.130159,-0.625 0.08005,-1.27845 0.141519,-1.91098 0.08132,-0.83701 0.212331,-1.70215 0.212331,-2.54797 l -2.86647,1.80481 -0.318496,-4.35279 -2.123311,0.0354 -1.273987,0.7078 c -0.274225,-1.48855 -1.082464,-3.0409 -0.95549,-4.56512 0.03705,-0.44409 -0.04172,-0.84826 0.141519,-1.27398 0.303103,-0.70399 1.678477,-1.90246 2.51262,-1.43324 0.413409,0.2325 0.512143,1.04265 0.743159,1.43324 0.262441,0.44366 0.704196,0.54303 1.061655,0.86705 0.171458,0.15532 0.3306,0.3753 0.283144,0.61926 -0.06582,0.33857 -0.359052,0.62479 -0.460122,0.95549 -0.149587,0.48964 0.06402,0.99913 0.07081,1.48632 0.0038,0.27635 -0.09077,0.7232 0.123895,0.93776 0.212331,0.21244 0.663534,0.1239 0.93776,0.1239 h 2.335642 m 34.185304,-5.50288 c 2.752136,-0.45874 3.042386,4.49048 0.424662,4.63582 -2.382461,0.13239 -2.704673,-4.25586 -0.424662,-4.63582 m 45.014191,8.58168 c 0.6613,-2.09422 2.52674,-2.84524 4.56511,-3.04345 0.68265,-0.0663 1.41944,-0.0353 2.12332,-0.0353 0.22188,0 0.64654,0.0846 0.79624,-0.1239 0.15924,-0.22114 0.0531,-0.78138 0.0531,-1.04392 v -2.76031 c 0,-0.28006 0.12209,-0.92321 -0.12421,-1.11474 -0.3047,-0.23834 -0.7145,-0.085 -1.04361,-0.0531 -0.51597,0.0502 -1.07758,0.10617 -1.59248,0.10617 -2.12225,0 -4.26499,0.61544 -6.36994,0.84932 -0.90591,0.10065 -2.18839,0.0297 -2.97263,0.54856 -0.20915,0.13833 -0.31404,0.31372 -0.46002,0.5131 -0.20086,0.27422 -0.46224,0.5356 -0.60164,0.84932 -0.33686,0.75802 0.0426,1.61414 0.28315,2.33564 0.1395,0.41851 0.23706,1.04584 0.58391,1.3448 0.40067,0.34546 1.18056,0.40948 1.68092,0.54845 1.03415,0.28729 2.02383,0.8851 3.0788,1.07939 m -44.908026,-3.0788 v 0.10616 h -1.16782 c 0.19407,-0.61735 0.733179,-0.32348 1.16782,-0.10616 m 35.353126,0.10616 -0.637,1.38015 -2.33564,0.74316 v -2.22947 l 2.97264,0.10616 m 2.54797,-0.10616 v 5.5206 c 0.63391,-0.18356 0.8747,-0.79496 1.06166,-1.38015 0.38984,-1.22058 0.35512,-3.58117 -1.06166,-4.14045 m -72.192565,0.10616 -0.106166,2.33564 3.184967,-2.22947 -0.95549,-0.10617 h -2.123311 m 6.263767,0 v 0.10617 l 3.821959,0.53083 1.362423,0.33622 0.123895,0.93776 v 2.44181 9.66106 c 2.766992,-1.09223 2.441807,-4.6148 2.441807,-7.00692 v -1.91098 -2.22948 c 0,-0.27815 0.0792,-0.70196 -0.05308,-0.95549 -0.267855,-0.51341 -1.241712,-0.67224 -1.751731,-0.81397 -0.254054,-0.0705 -0.544098,-0.0943 -0.690076,-0.35385 -0.112111,-0.19938 -0.05308,-0.52265 -0.05308,-0.74316 h -5.202074 m 80.579635,0 v 4.45895 h 4.56512 v -4.45895 h -4.56512 m 20.06529,0 v 1.48632 c 1.33981,0 3.29113,0.40269 3.29113,-1.48632 h -3.29113 m 16.24333,0 v 7.43159 c 0,1.49916 0.16243,3.05916 -0.4597,4.45895 -0.43209,0.97195 -1.35679,1.84633 -2.3006,2.31792 -0.3684,0.18409 -1.43005,0.24757 -1.57444,0.65472 -0.10404,0.29259 -0.018,0.75207 -0.018,1.06165 v 2.33565 7.75008 h 6.05144 v -15.92483 -3.92813 l 0.12421,-1.46858 0.83128,-0.1239 h 2.22947 8.91791 v -4.56512 h -13.80152 m -17.51731,1.48632 0.63699,1.69865 c -0.34716,0 -0.71768,-0.0382 -1.06166,0 -1.08501,0.1206 -0.92682,1.96693 -0.84932,2.7603 0.0202,0.20373 0.15925,0.43836 0.0531,0.637 -0.16137,0.30257 -0.61682,0.29036 -0.90241,0.35385 -0.75802,0.16837 -1.55851,0.47498 -2.33564,0.49547 v -2.97264 h -9.66106 v 5.62678 l 10.82888,0.10616 3.0788,0.95549 c -0.13058,-0.70961 -0.28558,-1.42506 -0.45969,-2.12331 -0.0796,-0.3152 -0.2272,-0.63858 -0.0711,-0.95549 0.21233,-0.43103 0.7697,-0.60514 1.20285,-0.67234 0.81005,-0.1257 1.59673,-0.16881 2.40678,0 0.35246,0.0734 0.78456,0.0716 1.0436,0.35385 0.29514,0.32157 0.13271,0.78679 0.0531,1.16782 -0.18792,0.90134 -0.17199,2.68482 -1.09669,3.16723 -0.61258,0.31946 -1.65725,0.1239 -2.33565,0.1239 l 0.60196,1.80481 0.15925,0.58391 0.83128,0.0531 h 2.33564 8.70557 v -10.08589 h -5.8391 -1.80482 l -0.74316,0.0177 -0.21233,0.72543 -0.31849,1.48632 -0.95549,0.23006 -1.91098,-0.44239 -1.80482,0.53082 -0.63699,-0.21233 v -0.21233 l 1.38015,-0.3185 0.58391,-0.23006 0.0531,-0.72543 -0.21234,-2.22947 h 0.42467 v -1.69865 h -1.16782 m 1.27398,1.80481 v 1.27399 h 3.29113 l -0.33654,-1.16782 -1.14977,-0.21233 -1.80482,0.10616 m -27.7092,-0.10616 -0.3185,3.29113 c 0.72925,-0.0575 2.57664,-0.62054 2.63609,-1.48632 0.0669,-0.95708 -1.56732,-1.64684 -2.31759,-1.80481 m -50.428631,3.50346 v -1.80481 c -1.451813,0 -2.919446,-0.59697 -4.352787,-0.53083 -0.830108,0.0383 -1.51753,0.55747 -2.335642,0.63699 -0.56427,0.0549 -1.240544,0.0549 -1.804814,0 -0.345356,-0.0336 -0.710141,-0.19492 -1.061655,-0.15925 -0.545373,0.0553 -0.757491,1.34555 -0.477745,1.73401 0.138758,0.19279 0.485813,0.12389 0.690076,0.12389 h 1.804814 7.537753 m 57.966381,3.3973 v -3.82196 l -0.10617,-1.80482 H 142.092 l -0.60196,0.0531 -0.1412,1.11474 v 3.18496 l 0.12421,1.22091 0.72511,0.0531 h 1.69865 m -51.808775,-4.77745 v 1.38015 h -6.05144 v 1.06166 h 4.140456 1.910984 v 6.90076 h 6.47609 v -6.7946 h -4.45895 l -1.80481,-0.0531 -0.21233,-1.11474 h 6.47609 v -1.91098 l -3.29113,0.44239 -2.01714,0.35385 -1.16782,-0.26541 m 37.264095,4.35279 v 4.88361 h 8.70557 l -0.95549,-0.95549 -0.61926,-1.06165 -0.44239,-3.0788 -0.10617,-2.76031 c -0.91461,0.0722 -1.86745,0.48454 -2.7603,0.70781 -0.6974,0.17432 -1.71829,0.18005 -2.33564,0.54845 -0.72161,0.43061 -0.14959,1.9734 -1.48632,1.71638 m -53.507427,-1.80482 c 0,1.08385 -0.108183,2.2333 0.141519,3.29113 0.378268,1.60204 1.769036,2.96372 3.361944,3.36195 0.830639,0.20766 1.696631,0.14152 2.547973,0.14152 h 4.03429 v -6.7946 H 75.844583 m 36.414777,0.10619 c 1.03373,0.59845 1.97744,1.53303 2.86647,2.33564 0.92502,0.8351 1.92818,1.60713 2.8842,2.40645 0.60896,0.50917 1.858,1.17876 2.10558,1.94634 -2.76519,0 -5.93858,0.40268 -7.41386,-2.54798 -0.27412,-0.54823 -0.36298,-1.10826 -0.47774,-1.69864 -0.10925,-0.56162 -0.28899,-1.99592 0.0353,-2.44181 m 26.85988,6.68843 v 0.10616 c 1.77615,0.51406 3.68076,0.3185 5.52061,0.3185 h 9.13023 3.18497 c 0.43846,0 1.07015,-0.1171 1.48632,0.0177 0.4735,0.15309 0.3185,0.86472 0.3185,1.25626 v 3.50346 c 0,0.33134 0.12846,1.00358 -0.12422,1.25626 -0.23993,0.23982 -0.83658,0.12389 -1.14977,0.12389 h -2.97264 -10.19189 -2.7603 c -0.28983,0 -0.80474,0.0988 -1.06166,-0.0531 -0.27709,-0.16371 -0.21233,-0.52457 -0.21233,-0.79624 v -2.22948 c -1.26443,0.0332 -2.58194,0.50206 -3.82196,0.74316 -0.32295,0.0627 -1.2278,0.0857 -1.43323,0.35385 -0.25852,0.3375 0.0327,1.08331 0.0531,1.45096 0.0738,1.32888 0.14173,3.14696 1.27399,4.10511 1.07758,0.91217 2.62335,1.0056 3.92812,1.13236 2.40147,0.23346 4.90379,0.0708 7.32542,0.0708 h 9.44874 c 1.79844,0 3.87079,0.0811 5.41444,-0.99084 0.88223,-0.6129 1.20498,-1.7304 1.3982,-2.72495 0.27603,-1.4222 0.19428,-2.90002 0.19428,-4.35279 0,-1.09022 0.0913,-2.22162 -0.10616,-3.29113 h -7.75009 c -1.15614,0 -2.5915,0.23006 -3.71579,-0.0354 -2.08615,-0.4925 -3.7572,-2.26313 -3.92813,-4.4236 h -3.29113 c -0.30576,0 -1.00114,-0.13026 -1.25594,0.0531 -0.17092,0.12304 -0.12103,0.40098 -0.15925,0.58391 -0.0839,0.4013 -0.21657,0.80707 -0.40767,1.16782 -0.83234,1.57815 -2.52249,2.79714 -4.33474,2.65414 M 98.670145,261.3474 h 5.308275 v -11.46588 l -3.82196,0.10617 -1.450965,0.0531 -0.0531,0.79624 0.0177,2.01715 z"
       id="path1390" />
  </g>
</svg>
