<?xml version="1.0" encoding="UTF-8" standalone="no"?>
<!-- Created with Inkscape (http://www.inkscape.org/) -->

<svg
   version="1.1"
   id="svg38045"
   xml:space="preserve"
   width="688.64893"
   height="660.40668"
   viewBox="0 0 688.64892 660.40667"
   sodipodi:docname="linea-recta-yuri.svg"
   inkscape:version="1.1 (c68e22c387, 2021-05-23)"
   xmlns:inkscape="http://www.inkscape.org/namespaces/inkscape"
   xmlns:sodipodi="http://sodipodi.sourceforge.net/DTD/sodipodi-0.dtd"
   xmlns="http://www.w3.org/2000/svg"
   xmlns:svg="http://www.w3.org/2000/svg"><defs
     id="defs38049"><clipPath
       clipPathUnits="userSpaceOnUse"
       id="clipPath38059"><path
         d="M 0,735.847 H 680.32 V 0 H 0 Z"
         id="path38057" /></clipPath><clipPath
       clipPathUnits="userSpaceOnUse"
       id="clipPath38091"><path
         d="M 0,735.847 H 680.32 V 0 H 0 Z"
         id="path38089" /></clipPath></defs><sodipodi:namedview
     id="namedview38047"
     pagecolor="#ffffff"
     bordercolor="#666666"
     borderopacity="1.0"
     inkscape:pageshadow="2"
     inkscape:pageopacity="0.0"
     inkscape:pagecheckerboard="0"
     showgrid="false"
     inkscape:zoom="0.84800237"
     inkscape:cx="363.79615"
     inkscape:cy="278.89073"
     inkscape:window-width="1920"
     inkscape:window-height="1017"
     inkscape:window-x="-8"
     inkscape:window-y="32"
     inkscape:window-maximized="1"
     inkscape:current-layer="g38051"
     fit-margin-top="0"
     fit-margin-left="0"
     fit-margin-right="0"
     fit-margin-bottom="0" /><g
     id="g38051"
     inkscape:groupmode="layer"
     inkscape:label="Logo t-shirt achterkant24cm breed roze"
     transform="matrix(1.3333333,0,0,-1.3333333,-89.388037,690.62332)"><g
       id="g38085"><g
         id="g38087"
         clip-path="url(#clipPath38091)"><g
           id="g38093"
           transform="translate(136.7437,225.0635)"><path
             d="m 0,0 c -2.039,-0.184 -20.768,-3.15 -23.734,-5.377 -2.968,-2.225 -3.709,-4.635 -7.232,-5.746 -3.523,-1.115 -10.569,-4.453 -12.423,-6.121 -1.855,-1.67 -8.902,0 -9.365,-5.283 0,0 -7.512,17.89 -2.317,32.726 5.19,14.836 21.879,23.365 21.879,23.365 0,0 5.007,-2.597 10.756,-2.224 0,0 8.342,-1.299 10.57,-0.559 0,0 8.529,-3.521 11.125,-11.681 0,0 3.338,-5.008 3.892,-17.432 C 3.151,1.668 2.04,0.188 0,0 m 441.508,-13.072 c -6.675,5.076 -12.377,7.582 -17.037,8.902 l -1.459,0.766 c 0,0 -4.455,43.041 -4.871,43.459 -0.416,0.416 5.705,1.945 0.836,11.961 -4.865,10.009 -7.371,11.123 -9.455,28.925 -2.086,17.803 -25.313,211.963 -25.313,211.963 h -6.675 L 402.708,84.279 c 0,0 2.779,-18.773 -2.647,-29.902 -5.42,-11.125 3.203,-15.295 4.037,-17.104 0.832,-1.808 3.338,-32.82 3.338,-32.82 0,0 -17.941,8.342 -26.98,7.233 -9.041,-1.116 -9.877,12.793 -29.903,9.732 0,0 -11.681,10.016 -17.383,10.432 0,0 -6.814,8.48 -20.722,10.429 0,0 -11.127,21.416 -32.682,21.28 0,0 -15.853,-0.278 -19.885,6.814 0,0 -7.652,5.703 -16.273,5.283 -0.779,-0.037 -1.506,-0.013 -2.213,0.043 -21.1,-18.254 -33.533,-50.414 -40.709,-76.883 -2.336,22.434 -6.762,41.834 -6.762,41.834 3.494,3.702 6.03,6.317 5.799,6.698 -2.864,4.687 -9.431,6.224 -9.431,6.224 0,0 -6.146,-2.234 -8.103,-6.644 -0.178,-0.403 4.054,-3.352 6.009,-6.069 -2.768,-20.888 -4.411,-31.742 -5.195,-41.15 -7.98,27.898 -17.49,46.055 -15.435,70.496 -0.315,0.678 -0.498,1.072 -0.5,1.084 -2.179,0.029 -8.08,0.994 -21.969,-10.467 0,0 -26.517,-0.092 -36.995,-9.828 C 97.629,41.258 96.703,35.697 95.775,35.232 c 0,0 -11.31,-3.8 -28.093,-14.556 0,0 -6.861,-2.965 -14.092,-2.502 -7.232,0.463 -21.788,-7.047 -25.125,-8.996 0,0 -10.663,-0.459 -13.351,-2.41 0,0 1.574,12.423 -7.047,21.418 0,0 -8.252,12.332 -15.761,15.576 0,0 -0.929,16.968 -1.021,22.254 -0.092,5.283 15.946,181.719 15.946,181.719 l 3.494,45.169 H -7.229 c 0,0 -18.653,-231.506 -24.107,-241.73 -3.339,-6.252 -5.008,-4.305 -8.485,-6.947 0,0 -22.668,-8.344 -28.787,-37.829 0,0 -5.285,-22.111 7.37,-40.191 l -5.006,-8.623 c 0,0 -1.67,-4.867 3.616,-7.926 0,0 -1.299,-6.49 5.332,-6.724 0,0 3.614,-3.381 7.972,-3.428 0.083,-0.002 0.161,-0.002 0.24,-0.002 l -0.009,0.002 c 0,0 3.962,-0.045 0.009,-0.002 0.083,-0.029 5.349,-1.807 8.66,-1.945 3.339,-0.139 12.194,-7.604 21.326,4.263 0,0 1.854,6.213 5.517,8.02 3.661,1.81 17.164,8.037 21.196,18.232 -12.935,0.813 -23.143,-5.939 -23.143,-5.939 -13.723,-8.531 -29.032,2.988 -29.032,2.988 l 1.912,2.613 c 0,0 11.682,-11.441 25.774,-2.845 14.089,8.591 25.211,5.713 28.926,5.67 2.502,0.072 6.655,-0.09 13.538,-0.784 0,0 15.946,-0.927 26.516,8.528 0,0 5.933,0.002 10.014,1.855 4.078,1.856 8.9,4.82 12.053,5.563 3.151,0.742 11.681,1.855 15.019,3.338 3.34,1.482 20.952,7.603 24.477,8.9 3.523,1.299 6.305,6.119 9.458,7.232 3.149,1.114 4.077,2.782 8.156,2.227 4.081,-0.559 3.895,-4.453 3.339,-5.565 -0.556,-1.113 -0.556,-6.492 1.856,-9.826 2.408,-3.338 9.085,-17.246 11.124,-25.961 2.039,-8.716 2.596,-13.908 5.377,-19.285 0,0 1.483,-8.717 1.112,-13.908 -0.369,-5.193 3.894,-10.383 5.194,-17.059 1.297,-6.673 1.113,-19.101 0,-22.623 -1.114,-3.521 -8.529,-6.673 -9.458,-7.232 -0.925,-0.555 -9.107,-0.813 -15.414,-2.668 -6.303,-1.854 -18.519,-6.787 -23.339,-11.981 0,0 -12.981,-5.562 -16.41,-8.343 -3.433,-2.783 -6.731,-3.309 -9.698,-4.606 -0.257,-0.111 0,0 -0.355,-0.052 13.699,-3.471 37.933,-8.885 55.794,-1.307 24.478,10.387 51.178,21.9 60.821,25.238 9.642,3.338 9.642,4.08 12.608,4.449 0,0 3.975,-1.072 -0.423,-2.47 -5.594,-1.778 -68.022,-29.584 -86.347,-34.155 -17.984,-4.486 -53.077,8.584 -53.077,8.584 -2.738,0.76 -5.291,1.719 -6.584,2.465 -3.058,1.762 -19.933,9.641 -25.959,10.662 -6.027,1.02 -11.867,1.76 -17.524,0.926 -5.657,-0.834 -2.409,-2.594 -10.198,-2.594 -7.789,0 -11.589,-0.373 -15.668,-2.966 -4.08,-2.598 -8.438,-9.088 -8.623,-10.756 -0.186,-1.668 -0.65,-6.026 3.522,-7.881 4.172,-1.856 7.417,-5.473 9.922,-8.348 2.502,-2.871 6.025,-6.303 8.156,-7.228 2.135,-0.928 11.869,-18.914 14.095,-20.77 2.225,-1.853 4.729,-5.933 11.033,-5.285 6.306,0.648 6.582,1.393 10.383,3.711 0,0 4.452,-3.803 8.253,-3.99 3.801,-0.186 7.695,0.279 8.808,0.373 1.113,0.093 14.183,-4.727 22.529,-3.432 8.345,1.297 9.734,3.803 18.912,1.297 9.18,-2.5 10.478,-7.137 19.658,-7.232 9.178,-0.092 16.593,1.949 23.179,1.857 6.582,-0.092 65.551,2.223 65.551,2.223 0,0 13.623,-5.098 24.842,1.209 11.221,6.302 25.406,19.004 27.633,25.959 2.222,6.951 6.211,13.07 5.467,27.814 -0.741,14.742 -3.428,19.1 -2.502,26.053 0.927,6.955 2.037,8.994 2.781,12.144 0.74,3.155 1.297,28.188 4.267,34.491 2.965,6.304 9.084,22.253 9.084,32.636 0,0 4.729,24.754 4.916,36.16 0,0 0.461,2.038 1.666,2.131 1.206,0.094 14.28,-4.822 16.69,-5.099 2.41,-0.278 18.451,-6.399 26.146,-4.637 0,0 11.405,-4.588 18.08,-5.422 0,0 3.756,-4.867 8.758,-5.562 5.01,-0.698 6.262,-1.53 6.262,-1.53 0,0 8.482,-7.511 23.502,-5.008 15.019,2.502 10.291,-0.138 10.291,-0.138 0,0 -6.258,-5.979 4.449,-4.729 10.711,1.252 3.479,1.53 5.842,1.668 2.365,0.139 2.506,-4.172 2.365,-5.84 -0.14,-1.67 -9.873,4.729 -10.429,-7.093 0,0 -6.817,-4.311 -2.368,-6.953 0,0 6.819,-7.092 21.7,-5.84 14.878,1.25 16.06,0.693 18.355,3.543 2.295,2.853 4.729,8.763 5.148,17.384 0.415,8.623 1.807,16.829 -4.869,21.905"
             style="fill:#ef2da0;fill-opacity:1;fill-rule:nonzero;stroke:none"
             id="path38095" /></g><g
           id="g38097"
           transform="translate(369.4258,304.2725)"><path
             d="m 0,0 c -2.225,1.762 -4.025,3.9 -5.764,5.764 0,0 -2.222,6.398 -1.25,13.074 0,0 5.471,2.642 4.545,19.887 0,0 -0.095,3.338 -1.486,3.988 -1.389,0.65 1.851,15.853 -0.649,24.012 -2.501,8.158 -7.695,18.357 -18.542,20.769 -10.848,2.41 -20.582,4.913 -32.357,-0.834 -11.775,-5.752 -12.887,-12.332 -15.576,-18.359 -2.688,-6.026 -3.893,-24.197 -4.08,-29.113 0,0 -1.853,-4.727 0.371,-7.788 2.226,-3.056 1.762,-7.972 1.112,-10.291 -0.648,-2.318 -0.832,-7.14 4.08,-13.351 4.914,-6.213 0.371,-9.737 5.934,-14.279 0,0 1.124,-1.084 0.845,-1.526 0.733,-2.922 3.418,-10.299 8.166,-12.406 5.762,-2.563 6.588,-2.695 15.768,2 9.178,4.695 6.909,3.842 12.463,7.045 5.549,3.201 0.664,-1.76 0.664,-1.76 0,0 -6.72,-5.381 -13.686,-8.74 0.002,0.002 0.007,0.004 0.012,0.004 C -17.221,-15.197 -0.008,-0.004 0,0"
             style="fill:#ef2da0;fill-opacity:1;fill-rule:nonzero;stroke:none"
             id="path38099" /></g><g
           id="g38101"
           transform="translate(304.3213,295.4521)"><path
             d="M 0,0 -0.509,0.9 C -0.404,0.713 -0.236,0.355 -0.006,-0.111 -0.002,-0.074 -0.002,-0.039 0,0"
             style="fill:#ffffff;fill-opacity:1;fill-rule:nonzero;stroke:none"
             id="path38103" /></g><g
           id="g38105"
           transform="translate(328.2935,180.7041)"><path
             d="M 0,0 C -1.794,17.521 -5.022,31.74 -8.547,44.068 -5.832,33.85 0,0 0,0 0,0 8.235,31.277 9.136,43.176 2.283,17.91 0.223,-2.168 0,0"
             style="fill:#ef2da0;fill-opacity:1;fill-rule:nonzero;stroke:none"
             id="path38107" /></g></g></g></g></svg>
