<?xml version="1.0" encoding="UTF-8" standalone="no"?>
<!-- Created with Inkscape (http://www.inkscape.org/) -->

<svg
   version="1.1"
   id="svg38045"
   xml:space="preserve"
   width="874.60345"
   height="152.18805"
   viewBox="0 0 874.60345 152.18805"
   sodipodi:docname="linea-recta-text.svg"
   inkscape:version="1.1 (c68e22c387, 2021-05-23)"
   xmlns:inkscape="http://www.inkscape.org/namespaces/inkscape"
   xmlns:sodipodi="http://sodipodi.sourceforge.net/DTD/sodipodi-0.dtd"
   xmlns="http://www.w3.org/2000/svg"
   xmlns:svg="http://www.w3.org/2000/svg"><defs
     id="defs38049"><clipPath
       clipPathUnits="userSpaceOnUse"
       id="clipPath38059"><path
         d="M 0,735.847 H 680.32 V 0 H 0 Z"
         id="path38057" /></clipPath><clipPath
       clipPathUnits="userSpaceOnUse"
       id="clipPath38091"><path
         d="M 0,735.847 H 680.32 V 0 H 0 Z"
         id="path38089" /></clipPath></defs><sodipodi:namedview
     id="namedview38047"
     pagecolor="#ffffff"
     bordercolor="#666666"
     borderopacity="1.0"
     inkscape:pageshadow="2"
     inkscape:pageopacity="0.0"
     inkscape:pagecheckerboard="0"
     showgrid="false"
     inkscape:zoom="0.84800237"
     inkscape:cx="385.02251"
     inkscape:cy="8.8443149"
     inkscape:window-width="1920"
     inkscape:window-height="1017"
     inkscape:window-x="-8"
     inkscape:window-y="32"
     inkscape:window-maximized="1"
     inkscape:current-layer="g38051" /><g
     id="g38051"
     inkscape:groupmode="layer"
     inkscape:label="Logo t-shirt achterkant24cm breed roze"
     transform="matrix(1.3333333,0,0,-1.3333333,-15.287004,970.0242)"><g
       id="g38053"><g
         id="g38055"
         clip-path="url(#clipPath38059)"><g
           aria-label="Linea Recta"
           transform="matrix(0.81237981,0,0,-1,7.4092,627.5234)"
           id="text38063"
           style="font-size:138.689px;font-family:Ragtime-Bold;-inkscape-font-specification:Ragtime-Bold;fill:#ef2da0"><path
             d="M 4.9928038,-99.994766 H 30.095512 v 78.497972 H 63.658249 L 57.417244,0 H 4.9928038 Z"
             id="path64776" /><path
             d="M 78.636503,-75.030746 H 102.6297 V 0 H 78.636503 Z m 24.131887,-24.96402 0.13869,19.000393 H 78.636503 v -19.000393 z"
             id="path64778" /><path
             d="m 126.48411,-75.030746 h 38.00078 q 13.73021,0 19.41646,6.934449 5.82494,6.93445 5.82494,21.358106 V 0 h -23.71582 v -43.687034 q 0,-3.883291 -0.27738,-5.131492 -0.27738,-1.38689 -1.52558,-2.912469 -1.2482,-1.664268 -2.4964,-2.080335 -1.10951,-0.416067 -4.43805,-0.416067 l -6.93445,-0.138689 V -0.138689 L 126.48411,0 Z"
             id="path64780" /><path
             d="m 257.96108,-19.832526 q 1.52558,0.138689 3.46723,0.416067 1.94164,0.138689 3.46722,0.138689 l 4.85412,0.138689 3.18984,-0.138689 L 267.39193,0 l -8.7374,0.138689 q -19.83253,0 -29.54076,-7.9052727 -9.70823,-8.0439613 -13.73021,-16.9200573 -3.88329,-9.014785 -3.88329,-19.555149 0,-9.153473 2.91247,-15.671856 2.91247,-6.657072 9.43085,-10.956431 6.65707,-4.299358 23.29975,-4.299358 14.42366,0 22.46762,4.299358 8.18265,4.16067 8.18265,16.226613 0,5.131493 -2.08034,10.124296 -1.94164,4.992804 -5.13149,8.598718 -3.18985,3.605914 -10.81774,9.430852 l -7.07314,5.131493 q 1.2482,0.416067 2.63509,0.832134 1.38689,0.416067 2.63509,0.693445 z m -21.49679,-14.839723 q 7.90527,-3.605914 12.06594,-7.766584 4.29936,-4.160669 4.29936,-8.043961 0,-4.715426 -7.76659,-4.715426 -4.85411,0 -7.62789,3.328536 -2.77378,3.328536 -2.77378,9.292162 0,2.635091 0.27738,3.883292 0.27738,1.248201 1.52558,4.021981 z"
             id="path64782" /><path
             d="m 344.78023,0 q -13.45284,0 -21.08073,-2.6350909 -7.48921,-2.6350909 -14.00759,-9.2921631 -6.37969,-6.79576 -9.70823,-15.394478 -3.32854,-8.737407 -3.32854,-18.168258 0,-29.540756 32.59192,-29.540756 h 33.42405 L 362.53242,0 Z m -6.10232,-20.525971 v -33.701426 h -6.51838 q -11.51119,0 -11.51119,11.788564 0,6.518383 2.91247,11.788565 3.05116,5.270182 5.82494,7.073139 2.77378,1.802957 9.29216,3.051158 z"
             id="path64784" /><path
             d="m 439.78187,-74.198613 h 25.2414 V 0 h -25.2414 z m 1.66427,-25.796153 h 45.62868 q 14.97841,0 20.80335,4.299359 5.82494,4.16067 8.18265,9.569541 2.35771,5.408871 2.35771,11.649875 0,10.540364 -4.57673,16.64268 -4.57674,6.102316 -7.35052,8.598718 -2.77378,2.496402 -9.29216,7.073138 8.32134,15.25579 12.75938,22.19024 Q 514.39655,-13.036766 524.52085,0 l -20.24859,14.146278 q -14.14628,-18.4456369 -20.52598,-28.986001 -6.241,-10.540363 -15.39447,-31.898468 7.07313,-5.131493 10.81774,-8.32134 3.7446,-3.328536 7.62789,-7.766584 3.88329,-4.576737 3.88329,-8.876096 0,-3.605913 -1.94164,-4.854114 -1.94165,-1.38689 -3.46723,-1.664268 -1.52558,-0.277378 -4.29936,-0.277378 h -45.3513 z"
             id="path64786" /><path
             d="m 583.74084,-19.832526 q 1.52558,0.138689 3.46722,0.416067 1.94165,0.138689 3.46723,0.138689 l 4.85411,0.138689 3.18985,-0.138689 L 593.17169,0 584.43428,0.138689 q -19.83253,0 -29.54075,-7.9052727 -9.70823,-8.0439613 -13.73022,-16.9200573 -3.88329,-9.014785 -3.88329,-19.555149 0,-9.153473 2.91247,-15.671856 2.91247,-6.657072 9.43085,-10.956431 6.65707,-4.299358 23.29975,-4.299358 14.42366,0 22.46762,4.299358 8.18265,4.16067 8.18265,16.226613 0,5.131493 -2.08033,10.124296 -1.94165,4.992804 -5.1315,8.598718 -3.18984,3.605914 -10.81774,9.430852 l -7.07314,5.131493 q 1.24821,0.416067 2.6351,0.832134 1.38689,0.416067 2.63509,0.693445 z m -21.4968,-14.839723 q 7.90527,-3.605914 12.06594,-7.766584 4.29936,-4.160669 4.29936,-8.043961 0,-4.715426 -7.76658,-4.715426 -4.85412,0 -7.6279,3.328536 -2.77378,3.328536 -2.77378,9.292162 0,2.635091 0.27738,3.883292 0.27738,1.248201 1.52558,4.021981 z"
             id="path64788" /><path
             d="m 641.43526,-6.1023158 q -9.01478,-5.6862492 -14.14628,-16.3653012 -5.13149,-10.679053 -5.13149,-23.854507 0,-14.007589 7.07314,-21.358106 7.07314,-7.350516 20.66466,-7.350516 h 17.89088 l 5.27018,20.109904 h -13.8689 q -6.93445,0 -10.12429,3.051158 -3.18985,3.051158 -3.18985,9.985607 0,5.963627 3.05116,11.511187 3.05115,5.408871 7.35051,7.905273 4.29936,2.357713 7.35052,3.189847 3.18985,0.693445 9.43085,0.693445 l -5.96362,19.00039199 q -9.29217,0 -14.56235,-1.38688996 -5.13149,-1.38688993 -11.09512,-5.13149283 z"
             id="path64790" /><path
             d="m 687.75724,-75.030746 h 5.27019 v -13.036766 l 23.71581,-6.93445 v 19.971216 h 12.20464 v 20.803349 h -12.20464 v 24.964019 1.38689 q 0,7.211828 6.3797,7.211828 h 0.97082 7.21183 L 725.61934,0 h -11.78857 q -12.75938,0 -16.3653,-5.6862488 -3.46722,-5.6862492 -4.02198,-8.8760962 -0.55475,-3.189846 -0.55475,-11.372497 v -28.292555 h -5.1315 z"
             id="path64792" /><path
             d="m 794.54768,0 q -13.45283,0 -21.08073,-2.6350909 -7.4892,-2.6350909 -14.00758,-9.2921631 -6.3797,-6.79576 -9.70823,-15.394478 -3.32854,-8.737407 -3.32854,-18.168258 0,-29.540756 32.59191,-29.540756 h 33.42405 L 812.29987,0 Z m -6.10231,-20.525971 v -33.701426 h -6.51839 q -11.51118,0 -11.51118,11.788564 0,6.518383 2.91247,11.788565 3.05115,5.270182 5.82493,7.073139 2.77378,1.802957 9.29217,3.051158 z"
             id="path64794" /></g></g></g></g></svg>
