<?xml version="1.0" encoding="UTF-8" standalone="no"?>
<!-- Created with Inkscape (http://www.inkscape.org/) -->

<svg
   width="110.73315mm"
   height="97.744591mm"
   viewBox="0 0 110.73315 97.744591"
   version="1.1"
   id="svg8368"
   inkscape:version="1.1 (c68e22c387, 2021-05-23)"
   sodipodi:docname="pega.svg"
   xmlns:inkscape="http://www.inkscape.org/namespaces/inkscape"
   xmlns:sodipodi="http://sodipodi.sourceforge.net/DTD/sodipodi-0.dtd"
   xmlns="http://www.w3.org/2000/svg"
   xmlns:svg="http://www.w3.org/2000/svg">
  <sodipodi:namedview
     id="namedview8370"
     pagecolor="#ffffff"
     bordercolor="#666666"
     borderopacity="1.0"
     inkscape:pageshadow="2"
     inkscape:pageopacity="0.0"
     inkscape:pagecheckerboard="0"
     inkscape:document-units="mm"
     showgrid="false"
     fit-margin-top="0"
     fit-margin-left="0"
     fit-margin-right="0"
     fit-margin-bottom="0"
     inkscape:zoom="0.35355339"
     inkscape:cx="504.87424"
     inkscape:cy="210.71782"
     inkscape:window-width="1920"
     inkscape:window-height="1017"
     inkscape:window-x="-8"
     inkscape:window-y="32"
     inkscape:window-maximized="1"
     inkscape:current-layer="g8641" />
  <defs
     id="defs8365" />
  <g
     inkscape:label="Layer 1"
     inkscape:groupmode="layer"
     id="layer1"
     transform="translate(-51.591624,-75.258557)">
    <g
       id="g8641"
       transform="translate(-20.035288,-24.565423)">
      <path
         style="fill:#ffffff;fill-opacity:1;stroke-width:0.0205258"
         d="m 135.70506,197.26177 v -0.30653 l 0.25144,-0.0897 c 0.33104,-0.11812 0.52846,-0.21795 0.72578,-0.36702 0.50024,-0.3779 0.87981,-0.96741 1.04485,-1.62275 0.0793,-0.31491 0.16348,-1.13029 0.11948,-1.15748 -0.01,-0.006 -0.063,-0.003 -0.1183,0.008 -0.0553,0.0103 -0.28604,0.0432 -0.51281,0.0731 -0.6733,0.0888 -1.21246,0.0703 -1.96201,-0.0671 -1.20111,-0.22025 -2.17938,-0.71224 -2.78306,-1.39966 -0.39879,-0.4541 -0.58419,-0.87414 -0.64363,-1.45821 -0.0285,-0.28034 -0.0287,-3.02996 -2.1e-4,-3.3816 0.0496,-0.61264 0.20536,-1.07171 0.52621,-1.55139 0.50731,-0.75845 1.27914,-1.27213 2.22572,-1.48129 0.95081,-0.21011 1.97687,-0.17075 3.17025,0.12158 l 0.1451,0.0355 0.27126,-0.10683 c 0.4065,-0.16009 0.49523,-0.17392 1.12165,-0.17477 0.48088,-6.6e-4 0.55276,0.004 0.72668,0.0448 0.50775,0.1197 0.84218,0.42814 1.00678,0.92855 0.10617,0.32276 0.10334,0.18604 0.10347,5.00506 2.1e-4,4.44422 -2.2e-4,4.4834 -0.0422,4.69014 -0.16552,0.81616 -0.78861,1.44789 -1.87334,1.89934 -0.52447,0.21828 -1.52607,0.47884 -2.27163,0.59096 -0.2428,0.0365 -0.46505,0.0542 -0.78511,0.0625 l -0.44644,0.0116 v -0.30653 z m 2.15484,-7.68881 c -3.9e-4,-3.235 0.006,-3.07121 -0.13545,-3.35908 -0.0857,-0.17419 -0.30469,-0.41093 -0.46724,-0.50517 -0.37077,-0.21495 -0.81919,-0.22854 -1.20322,-0.0365 -0.2864,0.14325 -0.54973,0.45462 -0.64729,0.76539 -0.0521,0.16582 -0.058,0.65629 -0.0325,2.68887 0.0241,1.92113 0.0209,1.8761 0.15013,2.11857 0.1724,0.32344 0.771,0.74104 1.42253,0.9924 0.17563,0.0678 0.81044,0.24921 0.88774,0.25375 0.0204,0.001 0.0256,-0.59515 0.0253,-2.91828 z m -25.20317,7.92475 c -0.37672,-0.0539 -0.74487,-0.3003 -1.01579,-0.67995 -0.22121,-0.31001 -0.42719,-0.81341 -0.54347,-1.32825 l -0.0533,-0.23605 -0.007,-5.95247 c -0.005,-4.31323 -2.1e-4,-6.0164 0.0166,-6.18462 0.0561,-0.56191 0.25026,-1.04731 0.5145,-1.28604 0.30653,-0.27693 0.65596,-0.3808 1.2785,-0.38003 0.54227,6.5e-4 0.74381,0.0422 1.13003,0.23292 l 0.26551,0.1311 0.14501,-0.0497 c 0.6169,-0.21138 1.44303,-0.33475 2.04364,-0.30517 0.86053,0.0424 1.48061,0.22819 2.07237,0.62099 0.31779,0.21095 0.77506,0.66315 0.97095,0.96019 0.39284,0.59569 0.60964,1.17942 0.72804,1.96021 0.0277,0.18239 0.034,0.51838 0.0411,2.18599 0.006,1.3534 0.001,2.05403 -0.0146,2.23731 -0.0717,0.82981 -0.32078,1.4161 -0.88098,2.07338 -0.32008,0.37556 -0.78221,0.71872 -1.32618,0.98476 -0.35565,0.17394 -0.61782,0.26941 -1.01238,0.36867 -0.95603,0.2405 -1.57903,0.25036 -2.57548,0.0408 -0.0936,-0.0197 -0.15185,-0.0234 -0.16474,-0.0105 -0.0238,0.0238 0.0133,0.99968 0.059,1.55125 0.0686,0.82703 0.13238,1.17604 0.29084,1.59075 0.18729,0.49014 0.32783,0.73589 0.52459,0.91725 0.11049,0.10185 0.1974,0.12929 0.40995,0.12944 l 0.15907,2.1e-4 v 0.22578 0.22579 l -1.46246,-0.003 c -0.80435,-0.001 -1.52155,-0.011 -1.59378,-0.0213 z m 1.91707,-6.20316 c 0.49786,-0.15439 0.86772,-0.32689 1.23154,-0.5744 0.22368,-0.15217 0.63028,-0.55284 0.72499,-0.71441 0.0922,-0.15724 0.16403,-0.37138 0.1896,-0.56493 0.0139,-0.10514 0.019,-1.04363 0.0149,-2.72606 l -0.006,-2.56572 -0.0454,-0.15983 c -0.11683,-0.41165 -0.41047,-0.79187 -0.73877,-0.95661 -0.28104,-0.14103 -0.64152,-0.13785 -0.92973,0.008 -0.13674,0.0693 -0.3689,0.29148 -0.48143,0.46074 -0.0502,0.0756 -0.1187,0.20598 -0.15216,0.28982 -0.13149,0.32952 -0.12555,0.13828 -0.12555,4.04432 0,1.95178 0.007,3.54853 0.0154,3.54833 0.008,-2e-4 0.14471,-0.0404 0.30276,-0.0894 z m 41.24649,2.69394 c -0.77704,-0.0337 -1.51124,-0.2364 -1.92868,-0.53253 -0.29614,-0.21006 -0.59744,-0.58928 -0.71931,-0.9053 -0.12777,-0.33132 -0.22408,-0.85212 -0.26692,-1.4434 -0.0123,-0.1706 -0.0196,-0.66485 -0.0161,-1.10839 l 0.006,-0.80051 0.12316,-0.0665 c 0.3058,-0.1651 0.68001,-0.23665 1.24181,-0.23741 0.34574,-4.7e-4 0.39772,0.004 0.58075,0.0532 0.9045,0.24188 1.57901,0.92166 1.76597,1.77974 0.038,0.17459 0.042,0.25431 0.0379,0.75892 -0.003,0.36132 0.004,0.60461 0.0188,0.67735 0.0354,0.1715 0.13258,0.34402 0.27918,0.49587 0.14509,0.15029 0.30456,0.24619 0.48949,0.29436 0.1317,0.0343 0.39243,0.0417 0.43865,0.0125 0.0246,-0.0156 0.0271,-0.18264 0.0162,-1.11321 -0.0113,-0.96337 -0.0177,-1.12321 -0.0537,-1.33091 -0.0658,-0.37971 -0.15415,-0.61194 -0.33789,-0.88852 -0.25129,-0.37825 -0.46381,-0.53578 -1.04045,-0.77124 -1.54405,-0.63045 -2.65205,-1.30154 -3.12513,-1.89281 -0.23703,-0.29626 -0.32429,-0.54242 -0.32683,-0.92204 -0.002,-0.2687 0.0448,-0.42581 0.19103,-0.64447 0.33817,-0.50561 0.958,-0.8198 1.91708,-0.97176 0.32334,-0.0512 1.31486,-0.0504 1.73526,0.001 0.78253,0.0965 1.34237,0.19668 1.8594,0.33266 1.11385,0.29295 2.13828,0.76671 2.78455,1.28777 l 0.1796,0.14481 v 0.21924 c 0,0.12059 -0.006,0.30249 -0.0131,0.40423 l -0.0131,0.18499 -0.15621,-0.0604 c -0.0859,-0.0332 -0.41483,-0.14655 -0.73092,-0.25181 -1.34346,-0.44737 -2.44029,-0.72891 -3.07339,-0.7889 -0.50865,-0.0482 -1.00961,0.0833 -1.19429,0.31343 l -0.0633,0.0788 -0.006,0.58172 -0.006,0.58173 0.0984,0.0132 c 1.28165,0.17192 2.52816,0.54566 3.35957,1.0073 0.93042,0.51661 1.51008,1.15021 1.71155,1.87082 l 0.0561,0.20059 -5.7e-4,0.75945 c -5.8e-4,0.75561 -8.4e-4,0.76045 -0.0546,0.95689 -0.1778,0.64998 -0.61858,1.17919 -1.23797,1.4863 -0.42574,0.21109 -0.79749,0.2782 -1.318,0.2379 -0.37524,-0.029 -0.60141,-0.0781 -0.88287,-0.1917 -0.19043,-0.0768 -0.23101,-0.10382 -0.26527,-0.17645 -0.002,-0.004 -0.0571,0.0208 -0.12316,0.0541 -0.48151,0.24286 -1.11813,0.34441 -1.93663,0.30893 z m 20.68996,0 c -0.61318,-0.0292 -1.26199,-0.17525 -1.65232,-0.37189 -0.38383,-0.19336 -0.7335,-0.53914 -0.91846,-0.90824 -0.091,-0.18167 -0.15914,-0.39955 -0.22073,-0.70618 -0.1049,-0.52219 -0.12609,-0.80523 -0.13788,-1.84182 l -0.0108,-0.94699 0.092,-0.0539 c 0.26005,-0.15241 0.55366,-0.22638 1.03859,-0.26169 0.42129,-0.0307 0.67815,-0.006 0.98179,0.0955 0.80534,0.26836 1.39194,0.86986 1.6018,1.64249 0.0548,0.20161 0.0556,0.21495 0.0579,0.8616 0.002,0.62151 0.005,0.66345 0.0472,0.77998 0.12103,0.33167 0.44381,0.61923 0.7714,0.68724 0.0604,0.0125 0.17789,0.0201 0.26108,0.0167 l 0.15125,-0.006 -8e-4,-1.11866 c -8.2e-4,-1.16653 -0.005,-1.23599 -0.0956,-1.59074 -0.0504,-0.19721 -0.18418,-0.49087 -0.30423,-0.66765 -0.23566,-0.34702 -0.46761,-0.51086 -1.07282,-0.75779 -1.11635,-0.45547 -2.05303,-0.96416 -2.61117,-1.41807 -0.20048,-0.16304 -0.52046,-0.50361 -0.60184,-0.64057 -0.1211,-0.20383 -0.17134,-0.38536 -0.18331,-0.66233 -0.009,-0.19708 -0.004,-0.27189 0.0247,-0.36893 0.0772,-0.2654 0.2388,-0.49613 0.49618,-0.70825 0.29336,-0.24177 0.58939,-0.3818 1.06286,-0.50276 0.48355,-0.12353 0.67042,-0.14345 1.34634,-0.14348 0.6209,0 0.76897,0.0113 1.48811,0.11394 1.61311,0.23021 3.13454,0.80227 4.025,1.51342 l 0.21357,0.17056 v 0.4084 0.4084 l -0.20012,-0.0728 c -1.42077,-0.51717 -3.04588,-0.96291 -3.76213,-1.03188 -0.5733,-0.0552 -1.12065,0.10796 -1.24857,0.3722 -0.0413,0.0854 -0.0438,0.12102 -0.0438,0.63815 0,0.42439 0.006,0.54775 0.0257,0.54789 0.072,4.9e-4 0.83647,0.12799 1.04168,0.17372 1.55596,0.34674 2.69082,0.87407 3.39939,1.57957 0.26236,0.26123 0.43856,0.499 0.56523,0.76272 0.12212,0.25426 0.17515,0.45538 0.20493,0.77728 0.031,0.33471 0.0112,1.1561 -0.0332,1.38332 -0.16571,0.84682 -0.85164,1.56318 -1.71429,1.79033 -0.57092,0.15033 -1.39196,0.0654 -1.91096,-0.19755 -0.0553,-0.028 -0.10057,-0.0649 -0.10057,-0.0819 0,-0.0275 -0.007,-0.0274 -0.061,5.8e-4 -0.35602,0.1841 -0.86391,0.31066 -1.32446,0.33002 -0.13547,0.006 -0.27864,0.0126 -0.31815,0.0154 -0.0395,0.003 -0.20577,-0.001 -0.36947,-0.009 z m -51.32464,-0.0406 c -1.00061,-0.0936 -1.81571,-0.41337 -2.44535,-0.95938 -0.41002,-0.35555 -0.83121,-0.98112 -0.98012,-1.45573 -0.22901,-0.72988 -0.31033,-1.29921 -0.30995,-2.1701 3.1e-4,-0.68814 0.0309,-1.01555 0.13243,-1.41596 0.19452,-0.76733 0.64512,-1.5352 1.17563,-2.00345 0.87153,-0.76923 2.03134,-1.26699 3.3286,-1.42855 0.37793,-0.0471 1.16694,-0.0467 1.51053,7.2e-4 1.15086,0.1588 2.1789,0.6401 2.80138,1.31155 0.95471,1.02982 0.8674,2.2698 -0.23417,3.32536 -0.12538,0.12014 -0.31289,0.27525 -0.4167,0.34469 -0.45485,0.30424 -1.18072,0.59751 -2.18129,0.8813 -0.34981,0.0992 -1.74145,0.4483 -2.09235,0.52486 -0.11213,0.0245 -0.17837,0.051 -0.21248,0.0851 -0.0475,0.0475 -0.049,0.0574 -0.0362,0.23827 0.0316,0.44651 0.0996,0.72681 0.24946,1.02861 0.22319,0.44934 0.51859,0.71502 0.97573,0.87754 0.22535,0.0801 0.24417,0.0833 0.55652,0.0939 l 0.32328,0.011 v 0.29433 c 0,0.2885 -9e-4,0.29452 -0.0462,0.30456 -0.0938,0.0208 -0.71152,0.0919 -0.97908,0.11275 -0.31628,0.0246 -0.84911,0.0239 -1.11968,-0.001 z m 0.23385,-4.16387 c 0.37408,-0.0955 0.9016,-0.30263 1.16178,-0.45615 0.34335,-0.20259 0.77467,-0.59183 0.90984,-0.82108 0.14441,-0.24492 0.22325,-0.58224 0.20181,-0.86339 -0.0229,-0.30086 -0.14636,-0.55501 -0.38301,-0.78874 -0.23527,-0.23237 -0.46618,-0.33475 -0.79023,-0.35036 -0.3608,-0.0174 -0.62741,0.0827 -0.891,0.33457 -0.17219,0.1645 -0.28715,0.33997 -0.35582,0.54308 -0.044,0.13009 -0.0453,0.16221 -0.0519,1.28799 -0.005,0.85268 -6.5e-4,1.15457 0.0166,1.15457 0.0128,0 0.0947,-0.0182 0.18192,-0.0405 z m 40.17965,4.0828 c -0.11383,-0.009 -0.31502,-0.0353 -0.4471,-0.0589 -0.66049,-0.11826 -1.14209,-0.37298 -1.63368,-0.86409 -0.24132,-0.24109 -0.33513,-0.37244 -0.42515,-0.59532 -0.11339,-0.28072 -0.10866,-0.10642 -0.10904,-4.01854 -2.5e-4,-2.42977 0.007,-3.63192 0.0206,-3.65828 0.0853,-0.15928 1.33161,-0.274 1.95973,-0.18037 0.76348,0.11381 1.36158,0.64292 1.57692,1.39503 0.0824,0.28771 0.0817,0.26605 0.0951,2.88114 0.0122,2.35914 0.0158,2.55411 0.0497,2.66723 0.14041,0.4686 0.44828,0.71548 0.92859,0.74465 0.20509,0.0125 0.50864,-0.0187 0.70897,-0.0728 0.10506,-0.0284 0.13081,-0.0439 0.14249,-0.0859 0.008,-0.0282 0.0152,-1.68768 0.0163,-3.68776 0.001,-2.00008 0.007,-3.65064 0.0141,-3.66792 0.0474,-0.12362 1.20232,-0.25433 1.74909,-0.19796 0.55211,0.0569 0.91807,0.21689 1.26301,0.55209 0.32834,0.31906 0.51684,0.70498 0.58766,1.20309 0.0129,0.0908 0.0206,1.45624 0.0208,3.71048 l 4.1e-4,3.56681 -0.0975,0.062 c -0.11389,0.0724 -0.4581,0.18385 -0.76459,0.24748 -0.40791,0.0847 -1.09677,0.0545 -1.48897,-0.0654 -0.2003,-0.0612 -0.55903,-0.25144 -0.71194,-0.37757 l -0.12891,-0.10633 -0.10359,0.0454 c -0.16869,0.0739 -0.69802,0.2521 -0.94208,0.31711 -0.51438,0.13699 -0.99052,0.21345 -1.53016,0.24573 -0.37329,0.0223 -0.44754,0.0222 -0.75089,-0.001 z m -92.004977,-0.0202 c -0.77068,-0.0727 -1.38846,-0.38983 -1.65758,-0.85093 -0.10765,-0.18446 -0.20121,-0.4538 -0.25666,-0.73893 l -0.0439,-0.22578 -0.007,-4.78763 c -0.004,-2.6332 -0.002,-4.78764 0.004,-4.78764 0.006,0 0.91818,-0.1621 2.02738,-0.36024 2.31482,-0.41348 2.71794,-0.47852 3.45354,-0.55726 0.44255,-0.0474 0.62129,-0.0569 1.04682,-0.0559 0.5714,10e-4 0.81342,0.026 1.39575,0.1425 0.70316,0.14066 1.17894,0.2998 1.7545,0.58685 0.58352,0.29102 0.92532,0.53383 1.31563,0.93461 0.59377,0.6097 0.89031,1.19741 1.01866,2.01888 0.0337,0.21585 0.0369,0.41697 0.0369,2.3502 0,2.21807 -0.003,2.31077 -0.094,2.76386 -0.086,0.42886 -0.21247,0.79881 -0.37285,1.09037 -0.36207,0.65824 -0.83519,1.17415 -1.45893,1.5909 -1.4069,0.94 -3.5652,1.14557 -5.77896,0.55043 l -0.19231,-0.0517 -0.0774,0.0395 c -0.11375,0.058 -0.46111,0.19405 -0.62284,0.24389 -0.29021,0.0894 -1.06959,0.14383 -1.49113,0.10407 z m 2.8088,-1.69358 c 0.35,-0.0916 0.67056,-0.21807 1.07057,-0.42226 0.38591,-0.197 0.62722,-0.36648 0.92438,-0.64923 0.25604,-0.24362 0.43285,-0.48864 0.51761,-0.71734 0.11123,-0.30006 0.11363,-0.33796 0.13894,-2.19207 0.0129,-0.94829 0.0251,-2.13058 0.0269,-2.6273 0.004,-1.02499 0.004,-1.02189 -0.16053,-1.35743 -0.19724,-0.40171 -0.60978,-0.73305 -1.06071,-0.85195 -0.21599,-0.057 -0.57173,-0.0613 -0.78688,-0.01 -0.44103,0.10605 -0.86087,0.44104 -1.05735,0.84368 -0.1657,0.33956 -0.15183,-0.0317 -0.15862,4.24846 -0.003,2.09958 -0.002,3.82844 0.003,3.84191 0.0106,0.0276 0.083,0.0133 0.54231,-0.10694 z m 15.82131,1.69401 c -0.45628,-0.0335 -0.87198,-0.13688 -1.24146,-0.30888 -0.11446,-0.0533 -0.17473,-0.0934 -0.18199,-0.12121 -0.006,-0.0229 -0.0147,-0.0416 -0.0193,-0.0416 -0.005,0 -0.065,0.0285 -0.13408,0.0634 -0.30193,0.15241 -0.75994,0.2896 -1.19712,0.35858 -0.28507,0.045 -1.17682,0.0628 -1.53163,0.0306 -0.56668,-0.0514 -1.20695,-0.18751 -1.60588,-0.34138 -0.37211,-0.14352 -0.64818,-0.31877 -0.93389,-0.59285 -0.47501,-0.45566 -0.70471,-0.95245 -0.8545,-1.84807 -0.10107,-0.60428 -0.11656,-0.86385 -0.12742,-2.13468 l -0.0102,-1.19049 0.10971,-0.0645 c 0.32759,-0.19267 0.72152,-0.29479 1.30171,-0.33744 0.59993,-0.0441 1.01873,0.008 1.4686,0.18437 0.88554,0.34622 1.57622,1.06789 1.83292,1.91515 0.10755,0.355 0.11892,0.48 0.11581,1.27267 -0.003,0.82068 0.003,0.87355 0.13773,1.13492 0.10656,0.20701 0.39242,0.48808 0.59989,0.58985 0.0847,0.0415 0.21398,0.0896 0.28736,0.10685 0.14274,0.0335 0.48507,0.0426 0.53011,0.0141 0.0223,-0.0142 0.0256,-0.27838 0.0183,-1.47241 -0.01,-1.59591 -0.0112,-1.61462 -0.14757,-2.09144 -0.071,-0.24804 -0.26749,-0.63675 -0.43409,-0.85856 -0.26537,-0.3533 -0.58822,-0.57579 -1.19401,-0.82282 -1.41721,-0.57792 -2.52629,-1.16137 -3.2781,-1.72449 -0.31624,-0.23687 -0.7689,-0.68643 -0.91026,-0.90403 -0.20228,-0.31138 -0.27372,-0.57142 -0.27644,-1.00627 -0.001,-0.23699 0.005,-0.2852 0.0531,-0.43104 0.18524,-0.55563 0.76178,-1.07371 1.49283,-1.34145 0.9624,-0.35247 2.07567,-0.43329 3.55095,-0.25779 1.75416,0.20867 3.10701,0.57834 4.38225,1.19745 0.6148,0.29849 1.04533,0.56666 1.4486,0.90231 l 0.1709,0.14225 -0.006,0.47715 c -0.003,0.26244 -0.0121,0.49312 -0.0195,0.51263 -0.0124,0.0324 -0.0267,0.0303 -0.1675,-0.0246 -0.24552,-0.0959 -1.63387,-0.5571 -2.08442,-0.69247 -1.13535,-0.34112 -2.03716,-0.55842 -2.65703,-0.64023 -0.38878,-0.0513 -0.86195,-0.0213 -1.19178,0.0757 -0.1824,0.0536 -0.38227,0.1696 -0.4805,0.27886 -0.13044,0.14508 -0.13748,0.19757 -0.13004,0.96953 l 0.006,0.65508 0.39965,0.0573 c 0.50414,0.0723 0.83816,0.13699 1.31608,0.25486 1.84616,0.45531 3.14091,1.08269 4.00137,1.93887 0.46592,0.4636 0.76969,0.95488 0.90745,1.46759 l 0.0662,0.24631 3.3e-4,0.94419 c 3.1e-4,0.84648 -0.004,0.96224 -0.038,1.11865 -0.12068,0.54955 -0.38779,1.03061 -0.80328,1.44672 -0.44343,0.44409 -1.00827,0.74692 -1.60374,0.8598 -0.21603,0.041 -0.63063,0.0555 -0.93843,0.033 z m 52.941617,3.5e-4 c -0.41913,-0.0228 -0.8551,-0.0715 -1.08133,-0.12087 -0.36248,-0.0791 -0.61332,-0.20635 -0.98484,-0.49954 -0.33979,-0.26814 -0.68882,-0.80283 -0.81043,-1.2415 -0.0385,-0.1388 -0.0442,-0.21231 -0.0439,-0.56002 3.5e-4,-0.36624 0.005,-0.4177 0.0545,-0.60551 0.0674,-0.25562 0.237,-0.5972 0.41272,-0.83129 0.15502,-0.20652 0.49051,-0.53645 0.7204,-0.70846 0.70853,-0.53014 1.75167,-0.94705 3.23284,-1.29207 0.44633,-0.10397 0.66216,-0.15936 1.28286,-0.32923 l 0.1642,-0.0449 -0.007,-0.13143 c -0.009,-0.16526 -0.0915,-0.62529 -0.15821,-0.87788 -0.10622,-0.40219 -0.28689,-0.72915 -0.55921,-1.01201 -0.29214,-0.30346 -0.62539,-0.49783 -1.15898,-0.67598 l -0.26171,-0.0874 -2.8e-4,-0.20668 c -2.1e-4,-0.11368 -0.006,-0.22747 -0.0127,-0.25287 l -0.0124,-0.0462 0.28463,2e-4 c 0.6911,5.2e-4 1.53942,0.12379 2.26744,0.32949 1.05539,0.29819 1.95843,0.80746 2.42429,1.36717 0.40169,0.48263 0.58119,0.95287 0.68816,1.80277 0.0329,0.26143 0.0362,0.53165 0.0362,2.99412 v 2.70676 l -0.28748,0.11962 c -0.36626,0.1524 -0.47208,0.17946 -0.80621,0.20617 -0.69552,0.0556 -1.21129,-0.13151 -1.84929,-0.67089 -0.10589,-0.0895 -0.20357,-0.17094 -0.21708,-0.18093 -0.016,-0.0119 -0.0917,0.0213 -0.21799,0.0954 -0.10639,0.0625 -0.32736,0.17901 -0.49106,0.25892 -0.86829,0.42393 -1.54658,0.55266 -2.60833,0.49499 z m 2.05414,-1.67404 c 0.37537,-0.11108 0.70662,-0.44079 0.83388,-0.83 0.0334,-0.10216 0.0376,-0.2238 0.0439,-1.2796 l 0.007,-1.1667 -0.0678,0.0145 c -0.1345,0.0287 -0.53627,0.15597 -0.72085,0.2283 -0.76598,0.30017 -1.39324,0.81583 -1.57426,1.29416 -0.0566,0.14962 -0.10083,0.38973 -0.1013,0.55016 -0.002,0.5681 0.41051,1.08616 0.96364,1.21119 0.16188,0.0366 0.45294,0.0262 0.61577,-0.022 z m -63.766757,1.5934 c -0.31761,-0.11434 -0.51383,-0.38064 -0.53475,-0.72572 -0.008,-0.13775 -0.002,-0.19255 0.0345,-0.30022 0.10574,-0.3116 0.34205,-0.51128 0.65789,-0.55592 0.36604,-0.0517 0.6947,0.11972 0.85632,0.44673 0.0741,0.14987 0.0774,0.16563 0.0773,0.36299 -1e-4,0.18161 -0.007,0.22068 -0.0561,0.32611 -0.10793,0.23085 -0.25665,0.36871 -0.481,0.4459 -0.15303,0.0526 -0.4081,0.0527 -0.55415,2e-4 z m 12.6679,0.0121 c -0.31073,-0.10282 -0.51178,-0.33237 -0.56733,-0.64775 -0.0616,-0.34974 0.12735,-0.72353 0.44069,-0.87176 0.42148,-0.19939 0.92339,-0.0229 1.11845,0.39324 0.0492,0.105 0.055,0.14115 0.055,0.34315 0,0.202 -0.006,0.23814 -0.055,0.34315 -0.0766,0.16339 -0.22101,0.31072 -0.38252,0.39024 -0.11837,0.0583 -0.15684,0.0666 -0.33057,0.0714 -0.12259,0.003 -0.22752,-0.005 -0.27872,-0.0217 z m 7.019807,0 c -0.31515,-0.10428 -0.51466,-0.33417 -0.5699,-0.65666 -0.0588,-0.34349 0.12778,-0.71129 0.43675,-0.86079 0.42066,-0.20354 0.92907,-0.0267 1.12495,0.39118 0.0492,0.105 0.055,0.14115 0.055,0.34315 0,0.21271 -0.004,0.23361 -0.0662,0.36103 -0.08,0.16345 -0.22745,0.30807 -0.39117,0.3836 -0.096,0.0443 -0.15288,0.0552 -0.31236,0.0599 -0.12196,0.004 -0.22575,-0.004 -0.2771,-0.0214 z m -2.06284,-0.13905 c -0.4793,-0.0551 -1.226417,-0.22318 -1.724157,-0.38791 -0.58933,-0.19504 -1.05266,-0.54407 -1.38312,-1.04191 -0.14798,-0.22295 -0.2153,-0.3639 -0.29623,-0.62027 l -0.0551,-0.17447 -0.0103,-3.67411 c -0.008,-2.86312 -0.0159,-3.68388 -0.0356,-3.71838 -0.0766,-0.13371 -0.4417,-0.40017 -1.39812,-1.02034 -0.9466,-0.6138 -1.25513,-0.85082 -1.25513,-0.96424 0,-0.0315 0.37874,-0.034 5.264847,-0.034 h 5.26486 v 0.98258 0.98259 l -0.13855,0.013 c -0.0762,0.007 -0.33252,0.0223 -0.56959,0.0338 -1.91487,0.0923 -3.00061,0.28308 -3.39971,0.59734 -0.15245,0.12005 -0.14102,-0.13436 -0.14068,3.13081 3.1e-4,2.92901 0.008,3.33666 0.0737,3.72109 0.0556,0.32729 0.084,0.40873 0.28296,0.812 0.16476,0.33391 0.21456,0.41528 0.34632,0.56591 0.0846,0.0968 0.19195,0.20607 0.23846,0.24291 l 0.0846,0.067 v 0.25485 0.25484 l -0.49775,-0.003 c -0.27376,-0.001 -0.56703,-0.0106 -0.65169,-0.0203 z m 21.13151,-18.0758 c -0.22887,-0.28619 -1.10445,-1.45701 -1.40818,-1.88301 -2.83919,-3.98206 -5.0252,-7.97757 -6.30564,-11.52521 -1.42271,-3.94183 -1.73113,-7.32735 -0.91437,-10.03703 0.36915,-1.22469 0.95172,-2.29251 1.77757,-3.25818 0.40788,-0.47693 1.03355,-1.05925 1.57719,-1.46791 2.48879,-1.87086 6.25693,-2.99731 11.20513,-3.34968 0.93309,-0.0665 2.29018,-0.12147 2.55545,-0.10361 0.0847,0.006 0.30635,0.02 0.49262,0.0318 1.28724,0.0814 2.92133,0.33818 4.30609,0.6766 5.01367,1.22527 8.54396,3.65394 10.27788,7.07069 1.71812,3.3856 1.69494,7.70088 -0.0693,12.90042 -1.0195,3.00469 -2.6376,6.32599 -4.83137,9.91689 -0.2053,0.33604 -0.37541,0.60885 -0.37803,0.60623 -0.003,-0.003 0.0537,-0.16666 0.12522,-0.36454 1.25703,-3.47946 2.05004,-6.84159 2.2992,-9.74806 0.084,-0.9802 0.10804,-2.36386 0.0549,-3.16097 -0.14913,-2.23531 -0.60168,-4.03707 -1.42806,-5.68563 -1.00642,-2.00772 -2.46768,-3.56417 -4.48611,-4.77833 -0.38725,-0.23295 -1.30757,-0.69316 -1.75495,-0.87757 -1.55363,-0.64041 -3.26299,-1.04775 -4.95697,-1.18127 -0.38557,-0.0304 -1.74637,-0.0117 -2.33994,0.0322 -2.3133,0.17087 -4.09529,0.5975 -5.65484,1.35383 -1.01398,0.49174 -1.77308,1.03103 -2.50517,1.77976 -1.29295,1.32233 -2.09338,3.07632 -2.37799,5.21086 -0.0937,0.70254 -0.1046,0.90416 -0.1046,1.92942 0,1.01644 0.0102,1.21999 0.10442,2.0731 0.39009,3.5338 1.78941,7.85906 3.95113,12.21283 0.37165,0.74851 0.78297,1.53898 0.90517,1.73955 0.0224,0.0367 0.0376,0.0666 0.0338,0.0665 -0.004,-2e-4 -0.0714,-0.0809 -0.15024,-0.1796 z m -24.795347,-2.09274 c -1.40029,-1.16276 -2.52759,-2.28805 -3.46054,-3.45433 -1.6327,-2.04103 -2.59012,-4.12922 -2.79971,-6.1063 -0.0636,-0.60028 -0.0297,-1.41469 0.0736,-1.76522 0.0592,-0.20091 0.256,-0.59646 0.42383,-0.85182 0.89286,-1.3585 2.91077,-2.94225 5.91678,-4.64377 1.44234,-0.81642 3.306257,-1.75012 4.935017,-2.47213 0.68166,-0.30217 0.71983,-0.32949 0.71983,-0.51532 0,-0.30553 -0.38932,-0.78704 -1.15971,-1.43432 -0.85338,-0.71702 -1.48725,-1.5395 -2.02216,-2.62387 -1.165677,-2.36305 -1.581977,-5.54363 -1.250577,-9.55474 0.14051,-1.70059 0.49815,-3.90759 0.87146,-5.37775 l 0.0808,-0.31815 -0.0105,0.17343 c -0.0558,0.91742 -0.0466,2.14886 0.0229,3.07991 0.347857,4.66086 1.881527,8.58939 4.462967,11.43202 0.33802,0.37222 0.84547,0.86507 1.17038,1.13671 0.44471,0.3718 0.63009,0.53973 1.0335,0.93625 1.11973,1.10062 1.75579,2.02422 1.97738,2.87129 0.0659,0.2519 0.0753,0.63614 0.0206,0.84483 -0.11853,0.45255 -0.45955,0.8295 -0.98918,1.09343 -0.079,0.0394 -0.31456,0.14118 -0.52341,0.22621 -2.17937,0.88738 -4.67599,2.04916 -6.52449,3.03613 -2.464357,1.31579 -4.137597,2.5041 -4.825017,3.42667 -0.46132,0.61911 -0.7779,1.54417 -0.90858,2.65491 -0.0407,0.34624 -0.034,1.36359 0.0114,1.73422 0.25844,2.10701 1.15495,4.15631 2.75227,6.29134 0.17583,0.23502 0.31732,0.42928 0.31441,0.43167 -0.003,0.002 -0.14384,-0.11068 -0.31318,-0.2513 z m 56.627677,0.15831 c -0.46633,-1.84158 -0.8155,-3.24241 -0.93115,-3.73569 -1.00229,-4.27494 -1.28008,-6.55938 -1.05579,-8.68239 0.0892,-0.84438 0.26574,-1.70805 0.59156,-2.89413 0.12764,-0.46466 0.18333,-0.65639 0.65588,-2.25783 0.30236,-1.02467 0.31141,-1.07007 0.31096,-1.55996 -3.1e-4,-0.34402 -0.007,-0.42536 -0.0456,-0.57898 -0.12788,-0.50535 -0.38997,-0.94244 -0.74977,-1.25042 -0.79445,-0.68001 -1.08263,-1.72451 -0.8544,-3.09678 0.18172,-1.09261 0.75913,-2.49917 1.53777,-3.74595 0.50902,-0.81507 1.53461,-2.88238 2.16893,-4.37198 1.2783,-3.00189 2.00037,-5.64482 2.23471,-8.17952 0.0445,-0.48084 0.0625,-1.77188 0.0314,-2.25103 -0.15135,-2.33359 -0.84996,-4.28624 -2.08801,-5.83611 -0.26957,-0.33746 -0.88077,-0.95403 -1.18783,-1.19825 -0.25335,-0.2015 -0.56969,-0.42138 -0.76972,-0.535 -0.42094,-0.23912 0.70153,0.24458 1.21707,0.52446 1.87596,1.01844 3.33985,2.39901 4.37222,4.12338 0.18991,0.3172 0.57926,1.11304 0.71803,1.46765 1.35314,3.45781 0.9664,7.70419 -1.15063,12.63361 -0.55591,1.29441 -1.31131,2.80018 -1.69902,3.38674 -1.16344,1.76014 -1.59365,3.45697 -1.18651,4.67988 0.1285,0.38594 0.32645,0.71613 0.61676,1.02873 0.45264,0.48741 0.82019,1.2032 0.97562,1.90001 0.0378,0.16953 0.0448,0.2632 0.0441,0.59142 -7.4e-4,0.35249 -0.006,0.40889 -0.0535,0.5865 -0.0981,0.36583 -0.25603,0.67501 -0.49897,0.97684 -0.32796,0.40745 -0.77825,1.29892 -1.12322,2.22366 -1.26648,3.39506 -1.96832,8.54674 -2.04413,15.00433 -0.0107,0.91304 -0.018,1.12084 -0.0368,1.04681 z M 129.02392,159.3111 c -0.52971,-0.0527 -0.85555,-0.11848 -1.27259,-0.25673 -0.72384,-0.23997 -1.42069,-0.67632 -1.91779,-1.2009 -1.16671,-1.23121 -1.44834,-2.9319 -0.73043,-4.41097 1.0351,-2.13253 3.81149,-3.10106 6.17312,-2.15344 1.05487,0.42326 1.89577,1.18736 2.36776,2.1515 0.45215,0.92357 0.51582,1.96437 0.17955,2.93473 -0.52203,1.5064 -1.95489,2.62922 -3.68489,2.88754 -0.26014,0.0388 -0.92171,0.0675 -1.11473,0.0483 z m 42.36516,-7.52319 c -1.52948,-0.81718 -2.74591,-1.79475 -3.80282,-3.05607 -2.29643,-2.74055 -3.59817,-6.65253 -3.82146,-11.48415 -0.12684,-2.7447 0.12262,-6.0187 0.64591,-8.47714 0.17382,-0.81662 0.20514,-1.09273 0.20375,-1.796 -9.4e-4,-0.47537 -0.008,-0.60981 -0.046,-0.85182 -0.19619,-1.25616 -0.72247,-2.26214 -1.65903,-3.17123 -0.54427,-0.5283 -1.12316,-0.93131 -1.87207,-1.30331 -0.28676,-0.14244 -0.77561,-0.34627 -0.96324,-0.40164 -0.1797,-0.053 -0.0608,-0.0392 0.26444,0.0308 1.62301,0.34928 3.28813,0.9191 4.59887,1.57377 2.22348,1.11057 3.47264,2.42213 3.80882,3.99907 0.051,0.23918 0.055,0.29403 0.0553,0.76064 4.4e-4,0.57831 -0.009,0.64549 -0.18406,1.32391 -0.49507,1.91767 -0.84919,4.14958 -1.00467,6.3322 -0.11326,1.5898 -0.12009,3.21063 -0.0198,4.69013 0.22952,3.38527 0.99594,6.39741 2.28229,8.96976 0.47956,0.95898 1.05517,1.89943 1.63947,2.67861 0.12275,0.16369 0.23525,0.31378 0.25001,0.33354 0.0504,0.0674 -0.0191,0.0395 -0.37574,-0.15109 z m -91.904057,-9.24645 c -0.77624,-0.0669 -1.29978,-0.2263 -1.67873,-0.51122 -0.36935,-0.27772 -0.55652,-0.71054 -0.53261,-1.2316 0.0123,-0.26815 0.0633,-0.47985 0.19045,-0.79022 0.22497,-0.54927 0.36136,-1.22377 0.44412,-2.19628 0.042,-0.49308 0.0355,-2.53095 -0.0102,-3.20201 -0.11273,-1.65648 -0.31373,-3.39913 -0.53513,-4.6395 -0.30917,-1.73209 -0.46506,-3.84514 -0.32301,-4.37833 0.33223,-1.24701 1.64156,-2.62096 3.97428,-4.17041 0.62911,-0.41787 1.36524,-0.86661 2.01152,-1.22621 0.50872,-0.28305 1.41183,-0.7551 1.4231,-0.74384 0.005,0.005 -0.1017,0.12691 -0.23677,0.27125 -1.4402,1.53912 -2.83347,3.36734 -3.57878,4.69601 -0.44185,0.78768 -0.66309,1.35975 -0.80968,2.09362 -0.27289,1.36611 -0.27938,2.51204 -0.0212,3.73436 0.0404,0.19119 0.11442,0.59298 0.16453,0.89287 0.48132,2.88075 0.63922,5.25858 0.44062,6.63528 -0.0223,0.15468 -0.0858,0.45975 -0.14115,0.67794 -0.11225,0.44272 -0.14508,0.64108 -0.14508,0.87656 0,0.31789 0.0734,0.54047 0.23615,0.71628 0.1748,0.1888 0.37131,0.27268 0.70803,0.30219 0.47843,0.0419 1.42097,-0.2089 2.09363,-0.55717 0.53246,-0.27569 1.09759,-1.00646 1.34104,-1.7341 0.13196,-0.39443 0.16688,-0.62807 0.16544,-1.10687 l -0.001,-0.42078 -0.10586,-0.51666 c -0.46748,-2.28164 -0.49084,-3.85345 -0.0624,-4.19881 0.0603,-0.0486 0.10565,-0.064 0.23605,-0.08 0.4708,-0.0579 1.36705,-0.26829 1.94967,-0.45777 1.30385,-0.42405 2.07124,-0.95573 2.2683,-1.57157 0.0572,-0.17884 0.0573,-0.43398 1.5e-4,-0.61414 -0.0393,-0.12395 -0.0395,-0.12944 -0.004,-0.0924 0.14161,0.14712 0.34805,0.53688 0.41632,0.78605 0.0626,0.22859 0.062,0.60934 -0.001,0.83385 -0.19737,0.69934 -0.87487,1.38782 -1.92383,1.95503 -0.12353,0.0668 -0.28903,0.1484 -0.36777,0.18134 -0.24161,0.10107 -0.35601,0.24353 -0.4466,0.55613 -0.0428,0.14767 -0.0465,0.201 -0.0461,0.66346 3.5e-4,0.41569 0.009,0.55805 0.0473,0.82103 0.0916,0.62129 0.27261,1.42789 0.48509,2.16154 0.13321,0.45992 0.14455,0.54856 0.14359,1.12258 -7.4e-4,0.44296 -0.006,0.52827 -0.0471,0.71593 -0.10711,0.49353 -0.30859,0.96333 -0.57324,1.33665 -0.17303,0.2441 -0.60915,0.68459 -0.86988,0.87861 -0.44915,0.33424 -0.9953,0.62293 -1.6044,0.84805 -0.67483,0.24943 -2.13649,0.5395 -3.29826,0.65457 -0.22293,0.0221 -1.2123,0.0427 -1.37523,0.0287 z m 38.383157,-12.51074 c -4.4762,-0.0709 -9.05188,-0.70667 -13.352,-1.85526 -7.165527,-1.91396 -13.945277,-5.2297 -20.474437,-10.01333 -0.65396,-0.47913 -2.08558,-1.57177 -2.22407,-1.69746 -0.01,-0.009 0.25359,0.11955 0.58498,0.28514 2.99225,1.49514 7.20072,3.01891 11.5523,4.18275 10.663067,2.85189 22.699457,3.87817 35.222917,3.00327 8.83524,-0.61723 18.01499,-2.18665 27.17588,-4.64611 0.35549,-0.0954 0.64874,-0.17115 0.65166,-0.16823 0.003,0.003 -0.11707,0.0594 -0.26663,0.12541 -0.49579,0.21897 -1.28212,0.59202 -2.72475,1.29267 -2.88508,1.40122 -4.33213,2.07735 -6.11086,2.85527 -7.54115,3.29808 -14.60705,5.32347 -21.57838,6.18529 -2.84802,0.35209 -5.55803,0.49648 -8.45661,0.45059 z m -10.59863,-8.46909 c 0.15197,-0.45495 0.20116,-0.82878 0.18672,-1.41899 -0.0186,-0.75868 -0.18527,-1.43129 -0.5381,-2.17118 -0.38364,-0.80447 -0.86968,-1.46562 -1.72597,-2.3478 -1.94189,-2.00059 -3.21776,-3.88905 -3.57108,-5.28569 -0.11107,-0.43905 -0.13433,-0.75269 -0.0817,-1.10175 0.10721,-0.71121 0.59098,-1.21143 1.4453,-1.49446 0.8052,-0.26674 1.78883,-0.33778 3.4301,-0.24771 2.18962,0.12017 5.6238,0.0697 8.33346,-0.12238 6.74384,-0.47814 12.00566,-1.83212 15.4277,-3.96987 1.48598,-0.9283 2.6574,-2.05924 3.426,-3.30761 0.0955,-0.155148 0.17368,-0.276623 0.17368,-0.269948 0,0.0067 -0.0516,0.13478 -0.11475,0.284678 -0.54202,1.28742 -1.26982,2.51624 -2.11759,3.57539 -2.99679,3.74396 -7.86235,6.09432 -14.26011,6.88847 -2.51187,0.3118 -5.42382,0.36575 -7.81307,0.14475 -0.41523,-0.0384 -0.45825,-0.039 -0.65683,-0.009 -0.95221,0.14242 -1.49657,0.52673 -1.62854,1.14971 -0.12522,0.59117 0.19191,1.47248 0.84178,2.33935 0.56334,0.75143 0.84937,1.37926 1.0006,2.19625 0.0401,0.21652 0.0455,0.31334 0.0448,0.80051 -0.001,0.74011 -0.0618,1.11211 -0.29648,1.81653 -0.31094,0.93324 -0.87236,1.92947 -1.51514,2.68863 l -0.0606,0.0716 z"
         id="path8647" />
    </g>
  </g>
</svg>
