<?xml version="1.0" encoding="UTF-8" standalone="no"?>
<!-- Created with Inkscape (http://www.inkscape.org/) -->

<svg
   width="51.62212mm"
   height="51.06115mm"
   viewBox="0 0 51.62212 51.06115"
   version="1.1"
   id="svg5"
   inkscape:version="1.1 (c68e22c387, 2021-05-23)"
   sodipodi:docname="saltare.svg"
   xmlns:inkscape="http://www.inkscape.org/namespaces/inkscape"
   xmlns:sodipodi="http://sodipodi.sourceforge.net/DTD/sodipodi-0.dtd"
   xmlns="http://www.w3.org/2000/svg"
   xmlns:svg="http://www.w3.org/2000/svg">
  <sodipodi:namedview
     id="namedview7"
     pagecolor="#ffffff"
     bordercolor="#666666"
     borderopacity="1.0"
     inkscape:pageshadow="2"
     inkscape:pageopacity="0.0"
     inkscape:pagecheckerboard="0"
     inkscape:document-units="mm"
     showgrid="false"
     fit-margin-top="0"
     fit-margin-left="0"
     fit-margin-right="0"
     fit-margin-bottom="0"
     inkscape:zoom="1.4823793"
     inkscape:cx="133.23175"
     inkscape:cy="39.463583"
     inkscape:window-width="1920"
     inkscape:window-height="1017"
     inkscape:window-x="-8"
     inkscape:window-y="32"
     inkscape:window-maximized="1"
     inkscape:current-layer="layer1" />
  <defs
     id="defs2" />
  <g
     inkscape:label="Layer 1"
     inkscape:groupmode="layer"
     id="layer1"
     transform="translate(-80.169705,-178.03058)">
    <path
       style="fill:#ffffff;fill-opacity:1;stroke-width:0.0627741"
       d="m 105.12063,229.06553 c -3.87853,-0.11779 -8.171551,-1.35966 -11.581829,-3.35034 -0.310732,-0.18138 -0.621464,-0.36132 -0.690516,-0.39987 -0.196027,-0.10942 -1.251799,-0.80982 -1.28687,-0.8537 -0.01726,-0.0216 -0.190528,-0.14391 -0.385034,-0.2718 -0.194506,-0.12788 -0.420493,-0.29665 -0.502193,-0.37503 -0.0817,-0.0784 -0.346285,-0.29441 -0.587965,-0.48008 -0.477323,-0.3667 -0.523699,-0.40812 -1.423687,-1.27157 -0.503022,-0.48259 -0.597042,-0.60185 -0.546155,-0.69278 0.03381,-0.0604 0.09662,-0.10984 0.139575,-0.10984 0.10717,0 0.472424,0.39936 0.748065,0.81792 0.303887,0.46146 0.428123,0.56919 1.012453,0.87797 0.405602,0.21434 0.832483,0.50939 1.388006,0.95938 0.03453,0.028 0.274637,0.19846 0.53358,0.37887 2.150275,1.49816 4.605871,2.66913 7.281801,3.47239 0.797469,0.23938 2.316029,0.57055 3.232869,0.70503 0.24168,0.0354 0.63716,0.0943 0.87884,0.1307 0.48242,0.0727 1.08798,0.11408 2.49792,0.17063 1.43978,0.0577 3.52697,-0.12938 5.19191,-0.46544 0.25894,-0.0523 0.54143,-0.10783 0.62774,-0.12347 0.75465,-0.13673 2.9436,-0.78749 3.54674,-1.05444 0.10358,-0.0458 0.42843,-0.1765 0.7219,-0.29035 1.1266,-0.43705 2.80331,-1.32833 4.14607,-2.20389 0.8775,-0.57219 2.50897,-1.82802 3.07055,-2.36357 0.34482,-0.32883 0.45144,-0.39139 0.54075,-0.31726 0.14243,0.1182 0.11098,0.1825 -0.27155,0.55518 -0.91318,0.88964 -2.59884,2.12683 -4.23203,3.10606 -1.63356,0.97946 -4.42512,2.16347 -6.01585,2.55157 -0.15537,0.0379 -0.38841,0.0953 -0.51789,0.12756 -0.75291,0.18755 -1.93826,0.44108 -2.24417,0.48001 -0.12084,0.0154 -0.53044,0.07 -0.91023,0.12147 -0.74587,0.10101 -2.59712,0.20775 -3.35841,0.19362 -0.25895,-0.005 -0.71092,-0.016 -1.00439,-0.0249 z m 3.57375,-2.83323 c -0.24081,-0.028 -0.49782,-0.6369 -0.49782,-1.17941 0,-0.31599 0.0202,-0.40257 0.0942,-0.40257 0.07,0 0.0942,0.0737 0.0942,0.28661 0,0.15764 0.034,0.34832 0.0755,0.42373 0.0415,0.0754 0.0811,0.17081 0.0881,0.21198 0.007,0.0412 0.0545,0.13457 0.10557,0.20755 0.0918,0.13112 0.0946,0.12999 0.23334,-0.0945 0.0915,-0.14804 0.15169,-0.36793 0.17283,-0.63128 0.0282,-0.35126 0.0488,-0.40411 0.15783,-0.40411 0.11628,0 0.12294,0.0308 0.0917,0.42373 -0.0307,0.38605 -0.18144,0.81126 -0.38379,1.08285 -0.039,0.0523 -0.14188,0.0858 -0.23146,0.0754 z m -5.26865,-0.67175 v -0.65913 h -0.24522 c -0.21431,0 -0.24108,-0.0158 -0.21239,-0.12555 0.0297,-0.11366 0.0856,-0.12555 0.59048,-0.12555 0.51579,0 0.55764,0.009 0.55764,0.12555 0,0.10207 -0.0419,0.12555 -0.22374,0.12555 h -0.22375 l 0.0197,0.65926 c 0.0194,0.64771 0.0173,0.65926 -0.12151,0.65913 -0.1375,0 -0.14124,-0.0176 -0.14124,-0.65926 z m 0.81606,0.53946 c 0,-0.0888 0.0324,-0.1112 0.12555,-0.0868 0.0691,0.0181 0.12555,0.0719 0.12555,0.11967 0,0.0478 -0.0565,0.0868 -0.12555,0.0868 -0.0816,0 -0.12555,-0.0418 -0.12555,-0.11967 z m 0.43942,0.0255 c -0.0683,-0.0823 -0.0183,-0.0942 0.39612,-0.0942 0.41842,0 0.47893,-0.0147 0.51393,-0.12499 0.0218,-0.0687 0.0242,-0.15002 0.005,-0.18061 -0.0326,-0.0527 -0.58816,-0.22556 -0.67247,-0.20925 -0.11479,0.0222 -0.26688,-0.26309 -0.25267,-0.474 0.0236,-0.35038 0.0908,-0.39219 0.63012,-0.39219 0.41142,0 0.49053,0.0178 0.55782,0.12555 0.076,0.12163 0.0627,0.12555 -0.42432,0.12555 -0.48369,0 -0.50273,0.006 -0.50273,0.14533 0,0.12226 0.0649,0.16822 0.40874,0.28962 0.22481,0.0794 0.42889,0.1764 0.45352,0.21562 0.083,0.13214 0.0876,0.3781 0.01,0.5234 -0.0703,0.13138 -0.12051,0.14429 -0.56112,0.14429 -0.35355,0 -0.50495,-0.0254 -0.56204,-0.0942 z m 1.35833,0 c 0.0199,-0.0518 0.0755,-0.0942 0.12358,-0.0942 0.0481,0 0.0874,0.0424 0.0874,0.0942 0,0.0518 -0.0556,0.0942 -0.12358,0.0942 -0.0841,0 -0.11202,-0.0301 -0.0875,-0.0942 z m 0.82711,-0.56484 0.0197,-0.65926 h -0.22375 c -0.18189,0 -0.22374,-0.0235 -0.22374,-0.12555 0,-0.11625 0.0418,-0.12555 0.56496,-0.12555 0.46035,0 0.56497,0.0174 0.56497,0.0942 0,0.0518 0.007,0.11389 0.0157,0.13801 0.009,0.0241 -0.0832,0.0453 -0.20402,0.0471 l -0.21971,0.003 -0.0179,0.64344 c -0.0172,0.61697 -0.0236,0.64344 -0.15693,0.64356 -0.13598,0 -0.13861,-0.0144 -0.11931,-0.65912 z m 0.89049,0.53542 c 0,-0.0841 0.0301,-0.11202 0.0942,-0.0874 0.0518,0.0199 0.0942,0.0755 0.0942,0.12357 0,0.0481 -0.0424,0.0874 -0.0942,0.0874 -0.0518,0 -0.0942,-0.0556 -0.0942,-0.12358 z m -24.230816,-3.01418 c -0.320569,-0.0346 -0.855345,-0.13365 -1.192708,-0.22097 -0.16045,-0.0415 -1.004387,-0.49373 -1.004387,-0.53817 0,-0.0318 -0.02948,-0.0579 -0.06551,-0.0579 -0.08198,0 -0.562233,-0.43983 -0.562233,-0.5149 0,-0.0304 -0.05334,-0.11257 -0.11853,-0.18255 -0.118103,-0.12677 -0.339873,-0.72773 -0.405253,-1.09819 -0.0215,-0.12183 9.67e-4,-0.24538 0.05993,-0.32956 0.0875,-0.12493 0.148561,-0.13467 0.844057,-0.13467 0.666032,0 0.763747,0.014 0.875279,0.12555 0.06905,0.0691 0.125548,0.16886 0.125548,0.22179 0,0.17081 0.301523,0.69729 0.458104,0.79989 0.08361,0.0548 0.191296,0.13834 0.239297,0.18568 0.286728,0.28281 1.332458,0.46535 2.072184,0.36173 0.54082,-0.0758 1.010144,-0.24892 0.969003,-0.3575 -0.01658,-0.0438 0.0078,-0.0613 0.05816,-0.042 0.05302,0.0203 0.174549,-0.0845 0.31301,-0.26999 0.204169,-0.27355 0.22409,-0.33522 0.2034,-0.62969 -0.01989,-0.28307 -0.05565,-0.35816 -0.269127,-0.56517 -0.387683,-0.37592 -0.98601,-0.60854 -2.223577,-0.86448 -0.779529,-0.16122 -1.64266,-0.41227 -2.008772,-0.58428 -0.357181,-0.16781 -0.941612,-0.57144 -0.941612,-0.65032 0,-0.0247 -0.04262,-0.0875 -0.0947,-0.13959 -0.324877,-0.32488 -0.481494,-1.25416 -0.324099,-1.92304 0.223139,-0.94828 0.693923,-1.411 1.813054,-1.78202 0.743401,-0.24646 2.364328,-0.28308 3.324163,-0.0751 0.815182,0.17663 1.505574,0.62687 1.847368,1.20475 0.31037,0.52476 0.47017,1.41016 0.276597,1.53253 -0.102087,0.0645 -1.263876,0.0828 -1.485569,0.0233 -0.07963,-0.0214 -0.15239,-0.1055 -0.175678,-0.20316 -0.17401,-0.72968 -0.541275,-1.0809 -1.29874,-1.24201 -0.502112,-0.10679 -1.18861,-0.0899 -1.70473,0.042 -0.595656,0.15218 -0.989241,0.72243 -0.849046,1.23018 0.08474,0.30691 0.607338,0.74461 0.944361,0.79095 0.0791,0.0109 0.175217,0.0395 0.213584,0.0636 0.03837,0.0241 0.165485,0.0578 0.282484,0.0748 0.116998,0.017 0.325718,0.0597 0.463821,0.0947 0.806093,0.2047 1.825441,0.44264 1.896335,0.44264 0.04533,0 0.202166,0.0547 0.348525,0.12155 0.146358,0.0669 0.373739,0.16499 0.50529,0.21808 0.285974,0.11542 0.922137,0.64425 0.922137,0.76654 0,0.0476 0.02482,0.0865 0.05516,0.0865 0.144103,0 0.227325,0.43663 0.227325,1.1927 0,0.7642 -0.0056,0.79616 -0.213274,1.2241 -0.328875,0.6776 -0.80707,1.07639 -1.66995,1.39269 -0.628865,0.23051 -1.741492,0.31567 -2.730676,0.209 z m 7.375963,-0.003 c -0.622923,-0.0958 -0.752606,-0.1439 -1.254227,-0.46478 -0.796808,-0.50972 -1.122098,-1.87424 -0.754194,-3.16368 0.149109,-0.5226 0.573589,-1.00006 1.121608,-1.26161 0.564037,-0.26919 1.012861,-0.37589 2.51894,-0.5988 1.810626,-0.26799 2.207914,-0.46969 2.187724,-1.11068 -0.009,-0.28491 -0.299335,-0.93063 -0.418542,-0.93078 -0.0282,-3e-5 -0.141192,-0.0677 -0.251097,-0.15037 -0.109905,-0.0827 -0.358807,-0.18527 -0.553116,-0.22799 -0.445725,-0.098 -1.384824,-0.056 -1.534996,0.0686 -0.05962,0.0495 -0.119392,0.08 -0.132829,0.0678 -0.05664,-0.0515 -0.439571,0.15767 -0.590572,0.32251 -0.206645,0.22558 -0.428541,0.66628 -0.446847,0.88747 -0.0077,0.0934 -0.04706,0.19716 -0.0874,0.23064 -0.04106,0.0341 -0.398107,0.0531 -0.811035,0.0431 -0.89904,-0.0216 -0.906699,-0.0281 -0.795417,-0.6771 0.09613,-0.56057 0.375763,-1.16529 0.69017,-1.49252 0.299158,-0.31137 0.985643,-0.66408 1.558993,-0.80101 1.028199,-0.24556 2.778838,-0.16429 3.528831,0.16381 0.542569,0.23736 0.605058,0.27734 0.903674,0.5781 0.332662,0.33505 0.434609,0.50783 0.63157,1.07041 0.13059,0.373 0.136799,0.51079 0.1684,3.73749 0.03215,3.2827 0.03032,3.35195 -0.09101,3.43688 -0.08636,0.0605 -0.324725,0.0867 -0.787815,0.0867 -0.684902,0 -0.814651,-0.042 -0.814651,-0.26365 0,-0.0622 -0.02825,-0.113 -0.06277,-0.113 -0.03453,0 -0.06278,-0.043 -0.06278,-0.0955 0,-0.0525 -0.0709,-0.12782 -0.157556,-0.1673 -0.133436,-0.0608 -0.179084,-0.0517 -0.298177,0.0594 -0.232756,0.21713 -0.930827,0.56088 -1.358748,0.66909 -0.494924,0.12514 -1.540345,0.17459 -2.046128,0.0968 z m 2.155502,-1.41249 c 0.32494,-0.11307 0.950945,-0.50317 1.063071,-0.66246 0.04393,-0.0624 0.116586,-0.15019 0.161467,-0.19507 0.04488,-0.0449 0.161053,-0.23694 0.258161,-0.42681 0.148798,-0.29093 0.181223,-0.44391 0.206224,-0.97295 0.02865,-0.60629 0.02432,-0.63271 -0.126679,-0.77304 -0.154829,-0.14388 -0.160823,-0.14439 -0.618788,-0.0518 -0.254344,0.0514 -0.688431,0.12675 -0.964638,0.16737 -0.276206,0.0406 -0.527609,0.0894 -0.558674,0.10838 -0.03106,0.019 -0.147847,0.0427 -0.259517,0.0527 -0.512957,0.046 -1.362499,0.49434 -1.451454,0.76594 -0.01928,0.0589 -0.07788,0.20339 -0.130232,0.32115 -0.112639,0.2534 -0.07849,0.76723 0.07206,1.08417 0.131036,0.27586 0.497208,0.56041 0.849851,0.66041 0.344018,0.0976 1.108926,0.0577 1.499149,-0.078 z m 10.429011,1.41135 c -0.75913,-0.11184 -1.48168,-0.4716 -1.91489,-0.95343 -0.3235,-0.35981 -0.47615,-0.6302 -0.67743,-1.19995 -0.13405,-0.37944 -0.13641,-0.45342 -0.15412,-4.84165 -0.0168,-4.15773 -0.0107,-4.46162 0.0902,-4.53543 0.16047,-0.11734 1.44465,-0.10866 1.56387,0.0106 0.0698,0.0698 0.0897,0.29994 0.0897,1.03889 0,0.999 0.0618,1.27749 0.29749,1.34009 0.28526,0.0758 4.66055,0.85794 4.71508,0.84292 0.0224,-0.006 0.10431,0.024 0.18199,0.0671 0.12893,0.0715 0.14125,0.12398 0.14125,0.60201 0,0.7147 -0.004,0.7171 -0.8978,0.56872 -0.38662,-0.0642 -0.77357,-0.12195 -0.85988,-0.1284 -0.0863,-0.006 -0.19931,-0.0282 -0.2511,-0.0483 -0.0966,-0.0375 -2.14099,-0.41374 -2.47958,-0.45638 -0.10357,-0.0131 -0.26431,-0.041 -0.3572,-0.062 -0.12923,-0.0293 -0.20661,-6.3e-4 -0.32956,0.12238 l -0.16069,0.16068 0.001,1.87038 c 6.9e-4,1.02871 0.0286,2.05949 0.062,2.29063 0.12029,0.83167 0.57435,1.49304 1.14149,1.66267 0.34391,0.10286 1.06808,0.10749 1.16811,0.007 0.0414,-0.0414 0.0753,-0.0549 0.0753,-0.0298 0,0.025 0.13022,-0.0239 0.28938,-0.10858 0.26648,-0.14186 0.58945,-0.50444 0.58945,-0.66174 0,-0.0364 0.026,-0.0661 0.0577,-0.0661 0.14981,0 0.25613,-0.88648 0.25613,-2.1355 0,-1.01113 0.0179,-1.28117 0.0897,-1.35295 0.0665,-0.0665 0.26246,-0.0897 0.75778,-0.0897 0.49531,0 0.69128,0.0232 0.75777,0.0897 0.0723,0.0723 0.0897,0.3586 0.0897,1.47886 0,0.76406 -0.0311,1.58959 -0.0691,1.83453 -0.0939,0.60491 -0.46989,1.37789 -0.86817,1.78463 -0.29434,0.30059 -1.03777,0.73409 -1.39498,0.81344 -0.64566,0.14341 -1.38748,0.17467 -2.00087,0.0843 z m 7.31489,0.001 c -0.56703,-0.088 -1.06449,-0.29715 -1.39136,-0.58488 -0.99695,-0.87755 -0.98688,-3.13395 0.0177,-3.97353 0.30315,-0.25335 0.97536,-0.54731 1.56156,-0.68287 0.20736,-0.048 0.85037,-0.15791 1.42891,-0.24434 1.66571,-0.24884 1.9826,-0.35859 2.15863,-0.7476 0.15388,-0.34005 0.0451,-0.85709 -0.24361,-1.15779 -0.16109,-0.16779 -0.70703,-0.52169 -0.70703,-0.45833 0,0.008 -0.0847,-0.019 -0.18833,-0.059 -0.2179,-0.0842 -1.39261,-0.0595 -1.53796,0.0323 -0.0518,0.0327 -0.12891,0.0647 -0.17137,0.0712 -0.14465,0.022 -0.6401,0.36816 -0.64241,0.44889 -0.001,0.0442 -0.0406,0.0951 -0.0875,0.11314 -0.0469,0.018 -0.1365,0.20778 -0.19918,0.42175 -0.17263,0.58933 -0.15669,0.58045 -1.00079,0.55783 -0.8535,-0.0229 -0.87078,-0.0378 -0.77834,-0.67096 0.0749,-0.51322 0.0795,-0.53064 0.21664,-0.81607 0.15591,-0.32461 0.1865,-0.36492 0.55957,-0.73741 0.56565,-0.56475 1.35577,-0.8424 2.57419,-0.90456 1.11573,-0.0569 1.96851,0.0759 2.72108,0.42368 0.30756,0.14214 0.88844,0.657 0.88844,0.78746 0,0.0471 0.0252,0.0856 0.056,0.0856 0.0308,0 0.10603,0.12006 0.16725,0.26679 0.14798,0.35476 0.13645,0.3078 0.24759,1.00825 0.14038,0.88471 0.11366,6.48145 -0.0314,6.57309 -0.0518,0.0327 -0.41296,0.0599 -0.8026,0.0605 l -0.70844,9.4e-4 -0.11636,-0.26679 c -0.064,-0.14674 -0.17778,-0.30347 -0.25286,-0.34829 -0.12117,-0.0723 -0.16952,-0.0582 -0.43068,0.12571 -0.39941,0.2813 -0.78745,0.46394 -1.23641,0.58193 -0.46465,0.12212 -1.5662,0.17184 -2.07094,0.0935 z m 1.80167,-1.3194 c 0.3748,-0.0746 0.79357,-0.23722 0.9178,-0.3564 0.0456,-0.0438 0.1024,-0.0796 0.12619,-0.0796 0.0941,0 0.69904,-0.64043 0.82199,-0.87018 0.0403,-0.0752 0.0576,-0.16205 0.0385,-0.19292 -0.0191,-0.0309 -0.005,-0.0659 0.0308,-0.0779 0.0805,-0.0268 0.19723,-1.07765 0.14912,-1.34207 -0.0572,-0.31424 -0.20759,-0.36368 -0.76744,-0.25226 -0.26519,0.0528 -0.77876,0.1419 -1.14128,0.19804 -0.36252,0.0562 -0.68738,0.11962 -0.72191,0.14104 -0.0345,0.0214 -0.091,0.0405 -0.12554,0.0424 -0.0345,0.002 -0.16165,0.0272 -0.28249,0.0563 -1.09559,0.26356 -1.50529,1.54324 -0.76781,2.39824 0.2939,0.34073 1.0021,0.47864 1.72203,0.33534 z m 13.40228,1.29063 c -1.26501,-0.20661 -2.19671,-0.8568 -2.73534,-1.90888 -0.16319,-0.31874 -0.26419,-0.61309 -0.4221,-1.23015 -0.14183,-0.55419 -0.16106,-2.31045 -0.0316,-2.88761 0.16709,-0.74503 0.5241,-1.66351 0.64661,-1.66351 0.0276,0 0.0503,-0.042 0.0503,-0.0933 0,-0.0513 0.17656,-0.27071 0.39234,-0.48753 0.43546,-0.43755 1.05342,-0.79085 1.69147,-0.96703 0.50765,-0.14018 1.99093,-0.15686 2.49871,-0.0281 0.53054,0.13454 1.21338,0.47791 1.5402,0.77451 0.29995,0.27222 0.84522,0.9834 0.84522,1.1024 0,0.0359 0.0599,0.20182 0.13311,0.36868 0.20525,0.46775 0.36405,1.23885 0.41018,1.99173 0.0381,0.62142 0.0313,0.69173 -0.0744,0.76898 -0.094,0.0687 -0.69664,0.085 -3.14526,0.085 h -3.02899 l -0.0977,0.13952 c -0.0994,0.14197 -0.13158,0.43343 -0.0561,0.5089 0.0229,0.0229 0.0505,0.1232 0.0614,0.22294 0.0309,0.28193 0.37477,0.95315 0.63479,1.23896 0.13521,0.14861 0.42013,0.34812 0.67036,0.46937 0.39784,0.19281 0.48405,0.2107 1.00438,0.20849 0.50963,-0.002 0.60862,-0.0226 0.94606,-0.19568 0.44074,-0.22603 0.66142,-0.42998 0.95024,-0.87821 l 0.20998,-0.32586 0.75841,-0.0194 c 0.83458,-0.0213 0.93737,0.0168 0.93737,0.3482 0,0.37848 -0.91322,1.73534 -1.16795,1.73534 -0.0481,0 -0.0875,0.0239 -0.0875,0.0532 0,0.0965 -0.87025,0.51121 -1.27061,0.60552 -0.5936,0.13983 -1.61993,0.16863 -2.26352,0.0635 z m 3.02949,-5.5049 c 0.15006,-0.16106 0.15451,-0.22841 0.0428,-0.64728 -0.18184,-0.68175 -0.56815,-1.16531 -1.21499,-1.52086 -0.38139,-0.20964 -0.46181,-0.22986 -0.92411,-0.23234 -0.4435,-0.002 -0.55988,0.0225 -0.93734,0.2005 -0.6485,0.30582 -1.08045,0.83276 -1.27276,1.5527 -0.11261,0.42159 -0.10711,0.51179 0.0402,0.65912 0.12031,0.12032 0.20924,0.12555 2.13187,0.12555 1.98311,0 2.00781,-0.002 2.13432,-0.13739 z m -1.69245,-0.13257 c 0,-0.0449 0.0315,-0.11313 0.07,-0.15165 0.0385,-0.0385 0.10208,-0.12789 0.14124,-0.19858 0.0392,-0.0707 0.22246,-0.38551 0.40734,-0.69958 0.32634,-0.55442 0.33966,-0.56786 0.45733,-0.46137 0.14836,0.13426 0.14289,0.14969 -0.33702,0.94935 -0.34315,0.57179 -0.4058,0.64343 -0.56254,0.64343 -0.10288,0 -0.17639,-0.034 -0.17639,-0.0816 z m -29.453323,5.38987 c -0.107577,-0.11554 -0.113302,-0.42412 -0.113302,-6.10675 0,-5.64103 0.0063,-5.98766 0.109855,-6.03018 0.208695,-0.0857 1.494363,-0.0523 1.607714,0.0418 0.09668,0.0802 0.103458,0.5475 0.08812,6.07027 -0.01184,4.2625 -0.03656,6.00328 -0.08596,6.05268 -0.04083,0.0408 -0.362033,0.0744 -0.78123,0.0816 -0.632851,0.0109 -0.724471,-0.001 -0.825193,-0.10943 z m 19.884743,-0.008 c -0.0878,-0.0878 -0.0986,-0.57456 -0.0986,-4.41303 0,-3.27193 0.0182,-4.33258 0.0753,-4.3897 0.0835,-0.0835 1.4102,-0.10707 1.53449,-0.0273 0.0395,0.0254 0.0967,0.17239 0.12715,0.32671 0.0474,0.2407 0.0831,0.28856 0.25044,0.33656 0.17716,0.0508 0.21962,0.0322 0.46107,-0.20213 0.14627,-0.14195 0.30491,-0.25809 0.35254,-0.25809 0.0476,0 0.0866,-0.025 0.0866,-0.0555 0,-0.0791 0.59827,-0.30925 0.99726,-0.38365 0.45965,-0.0857 1.03277,-0.0795 1.12451,0.0123 0.0503,0.0503 0.0753,0.3289 0.0753,0.83977 0,0.89003 -0.0262,0.93797 -0.49902,0.91287 -0.84309,-0.0448 -1.67602,0.29462 -2.17903,0.88781 -0.1422,0.1677 -0.41663,0.7368 -0.35528,0.7368 0.0195,0 0.005,0.0363 -0.0314,0.0806 -0.14886,0.17936 -0.19863,0.98391 -0.19908,3.21816 -6.3e-4,1.7247 -0.0199,2.34525 -0.0758,2.40111 -0.05,0.05 -0.32264,0.0753 -0.81158,0.0753 -0.58562,0 -0.75643,-0.0202 -0.8349,-0.0986 z m 7.3346,-2.24709 c -0.0643,-0.16757 -0.005,-0.26814 0.53908,-0.912 0.43539,-0.51539 0.56534,-0.63186 0.7062,-0.63294 0.30293,-0.002 0.28488,0.0302 -0.60376,1.08678 -0.44332,0.52713 -0.57812,0.6234 -0.64152,0.45816 z m -40.277051,-3.13132 c -0.168701,-0.13277 -1.24255,-1.9554 -1.24255,-2.10896 0,-0.0398 0.08475,-0.0724 0.188322,-0.0724 0.103577,0 0.188322,0.0226 0.188322,0.0503 0,0.0609 0.69997,1.28365 1.023053,1.78707 0.127837,0.1992 0.23243,0.37575 0.23243,0.39234 0,0.0632 -0.294339,0.0267 -0.389577,-0.0483 z m 44.472721,-3.22736 c -0.13342,-0.0538 -0.0891,-0.24782 0.20715,-0.90702 0.50657,-1.1271 1.1877,-3.29718 1.40661,-4.48137 0.0319,-0.17263 0.10261,-0.55398 0.15711,-0.84745 0.30584,-1.64693 0.37703,-2.47665 0.37703,-4.39419 0,-1.91754 -0.0712,-2.74726 -0.37703,-4.39419 -0.0545,-0.29347 -0.1252,-0.67482 -0.15711,-0.84745 -0.22625,-1.22393 -0.90056,-3.36767 -1.45097,-4.61289 -0.36987,-0.83676 -1.07723,-2.23099 -1.46555,-2.88861 -0.38014,-0.64377 -1.43714,-2.24153 -1.53655,-2.32265 -0.0212,-0.0173 -0.17804,-0.215 -0.34864,-0.43942 -0.74555,-0.98075 -2.48046,-2.80305 -3.45042,-3.62422 -2.64374,-2.23819 -5.51345,-3.84144 -8.75699,-4.89234 -0.7503,-0.2431 -1.74041,-0.50744 -2.29126,-0.61171 -0.10357,-0.0196 -0.32956,-0.066 -0.50219,-0.10316 -0.30544,-0.0657 -0.57084,-0.1117 -1.41242,-0.24477 -0.75199,-0.1189 -2.59193,-0.2538 -3.45015,-0.25294 -0.81669,8.1e-4 -2.6723,0.13662 -3.39223,0.24827 -0.18989,0.0294 -0.55712,0.0855 -0.81606,0.12463 -0.76334,0.11523 -2.937359,0.64523 -3.452581,0.84169 -0.12084,0.0461 -0.417448,0.14723 -0.659128,0.22479 -1.772472,0.56884 -4.668921,2.0682 -6.340189,3.28204 -0.225545,0.16381 -1.510569,1.18319 -1.749125,1.38753 -0.938036,0.80352 -1.809642,1.68297 -2.823317,2.84872 -0.47003,0.54054 -1.687022,2.20601 -2.077461,2.84302 -0.201035,0.328 -0.418977,0.67369 -0.484314,0.7682 -0.180201,0.26067 -1.199334,2.28772 -1.365398,2.71577 -0.08037,0.20715 -0.183061,0.46139 -0.228208,0.56496 -0.257618,0.59103 -0.858581,2.37792 -0.928929,2.76206 -0.01265,0.0691 -0.03996,0.16792 -0.06071,0.21971 -0.02075,0.0518 -0.06893,0.21598 -0.107068,0.36488 -0.03814,0.14889 -0.08395,0.30877 -0.101801,0.35528 -0.01931,0.0503 0.02657,0.10307 0.113332,0.13027 0.08018,0.0252 0.371769,0.15251 0.647975,0.28303 0.582813,0.27541 1.721344,0.73702 2.04016,0.82717 0.12084,0.0342 0.237303,0.0901 0.258807,0.12439 0.02546,0.0405 0.08424,0.0381 0.168501,-0.007 0.182768,-0.0978 0.854819,-0.086 1.107172,0.0194 0.229843,0.096 0.425498,0.26784 0.532315,0.46743 0.144288,0.26961 0.05432,0.96516 -0.151452,1.17093 -0.225209,0.22521 -0.76338,0.28222 -1.148376,0.12164 -0.59526,-0.24828 -0.906989,-0.87344 -0.738607,-1.48126 0.03956,-0.14279 0.03768,-0.14364 -0.0565,-0.0258 -0.135011,0.16888 -0.12215,0.61933 0.02597,0.90967 0.18102,0.35483 0.586201,0.67499 0.954104,0.75389 0.38626,0.0828 0.809346,-0.0104 1.010523,-0.22263 0.07726,-0.0815 0.183843,-0.14869 0.236853,-0.14928 0.130163,-0.001 1.370314,0.61385 1.521978,0.75514 0.108407,0.101 0.112827,0.13759 0.04264,0.35305 -0.06733,0.20669 -0.280864,0.61656 -0.629691,1.20868 -0.121792,0.20674 -0.322434,0.4441 -0.3754,0.4441 -0.02384,0 -0.223551,-0.16872 -0.443792,-0.37495 -0.220241,-0.20622 -0.478121,-0.40739 -0.573067,-0.44703 -0.09495,-0.0397 -0.172629,-0.0958 -0.172629,-0.12483 0,-0.029 -0.105931,-0.0818 -0.235403,-0.11734 -0.129471,-0.0355 -0.423909,-0.18493 -0.654304,-0.33198 -0.230396,-0.14706 -0.511508,-0.32388 -0.624696,-0.39293 -0.113187,-0.069 -0.249538,-0.15414 -0.303002,-0.18908 -0.05346,-0.0349 -0.309069,-0.18704 -0.568012,-0.33799 -0.258944,-0.15094 -0.617898,-0.38365 -0.797677,-0.51712 -0.179779,-0.13348 -0.356331,-0.24268 -0.392338,-0.24268 -0.03601,0 -0.06547,-0.0213 -0.06547,-0.0474 0,-0.0261 -0.07768,-0.0827 -0.172629,-0.12576 -0.09495,-0.0431 -0.313871,-0.24717 -0.4865,-0.45356 -0.172629,-0.2064 -0.332442,-0.37579 -0.355141,-0.37644 -0.0227,-6.5e-4 -0.05476,0.14713 -0.07124,0.32839 -0.01648,0.18126 -0.06853,0.64029 -0.115664,1.02008 -0.112856,0.90934 -0.11665,4.51577 -0.0057,5.42996 0.16099,1.32666 0.311594,2.18198 0.584295,3.31837 0.18925,0.78863 0.817845,2.75451 1.048885,3.28029 0.321686,0.73207 0.325416,0.76137 0.09346,0.73439 -0.148465,-0.0173 -0.197916,-0.0848 -0.378705,-0.51748 -0.707745,-1.69368 -1.316714,-4.04138 -1.613201,-6.21921 -0.244672,-1.79723 -0.240822,-4.87129 0.0083,-6.62268 0.05156,-0.36252 0.116132,-0.81873 0.143483,-1.0138 0.02735,-0.19507 0.06584,-0.38075 0.08554,-0.41262 0.01969,-0.0319 0.06704,-0.23949 0.105202,-0.46139 0.03816,-0.22189 0.07754,-0.43169 0.0875,-0.46622 0.01,-0.0345 0.03849,-0.14752 0.0634,-0.25109 0.304664,-1.26697 0.668973,-2.45041 1.043517,-3.3898 0.137657,-0.34526 0.252221,-0.64784 0.254587,-0.6724 0.0024,-0.0246 0.268203,-0.5754 0.590747,-1.22409 0.533191,-1.07234 0.859042,-1.66409 1.254406,-2.27799 0.07782,-0.12084 0.251168,-0.39747 0.385211,-0.61472 0.206064,-0.33398 0.543133,-0.80771 0.858801,-1.20698 0.04149,-0.0525 0.159699,-0.20784 0.262693,-0.34526 0.772045,-1.03008 2.494804,-2.8516 3.412632,-3.60826 0.146578,-0.12084 0.342885,-0.28666 0.436239,-0.36848 0.09335,-0.0818 0.26713,-0.22306 0.386168,-0.31387 0.119038,-0.0908 0.281385,-0.22477 0.360771,-0.29768 0.07939,-0.0729 0.264474,-0.21409 0.411308,-0.3137 0.146834,-0.0996 0.281094,-0.19617 0.298357,-0.21456 0.03311,-0.0353 1.274521,-0.86386 1.455243,-0.97129 2.785113,-1.65564 5.404128,-2.68746 8.36891,-3.2971 0.63578,-0.13073 0.6976,-0.14079 1.53797,-0.25021 2.96778,-0.3864 6.11814,-0.2818 8.7256,0.2897 1.69192,0.37084 2.28485,0.53825 3.57813,1.01028 2.37679,0.86749 4.7067,2.13526 6.65406,3.62066 1.51859,1.15835 2.73932,2.31198 4.02689,3.80553 0.54598,0.63332 1.8111,2.32274 1.8111,2.41851 0,0.0192 0.0296,0.0691 0.0657,0.1108 0.2877,0.33185 1.21911,1.96068 1.70372,2.97944 0.3889,0.81755 0.9154,2.10048 1.07542,2.6205 0.0531,0.17263 0.15819,0.48336 0.23348,0.69052 0.30067,0.82727 0.84366,3.24341 0.96636,4.30003 0.0181,0.15536 0.0444,0.33898 0.0586,0.40803 0.0142,0.069 0.0625,0.78232 0.10736,1.58504 0.0669,1.19682 0.0669,1.72219 0,2.919 -0.0448,0.80273 -0.0931,1.516 -0.10736,1.58505 -0.0142,0.0691 -0.0406,0.25266 -0.0586,0.40803 -0.20896,1.79939 -0.88469,4.31156 -1.68741,6.27329 -0.4115,1.00562 -0.39517,0.98033 -0.58393,0.90416 z m -25.18351,-2.59272 c -0.32546,-0.13346 -0.69269,-0.29805 -0.81606,-0.36577 -0.30455,-0.16715 -0.74811,-0.30183 -1.38565,-0.42074 -0.70756,-0.13196 -3.750791,-0.53186 -4.582514,-0.60217 -2.394531,-0.20241 -3.434294,-0.42476 -3.876303,-0.82892 -0.215613,-0.19715 -0.173584,-0.24904 0.164097,-0.20259 0.434909,0.0598 0.812122,-0.0528 0.863584,-0.25786 0.06205,-0.24724 -0.07438,-0.59952 -0.350964,-0.90621 -0.138171,-0.15321 -0.250725,-0.29269 -0.250122,-0.30995 0.0028,-0.0803 0.298578,-0.35362 0.461523,-0.42655 0.443514,-0.19849 3.546652,-0.43076 4.620313,-0.34582 0.224997,0.0178 1.008936,-0.0292 1.747606,-0.10471 0.73676,-0.0754 1.35424,-0.12232 1.37218,-0.10438 0.0179,0.0179 -0.0229,0.11193 -0.0908,0.20886 -0.35355,0.5049 -0.62313,1.59499 -0.54811,2.2164 0.0398,0.32946 0.23498,0.8809 0.37324,1.05442 0.41672,0.52294 1.16046,0.82881 2.01534,0.82881 0.38478,0 1.01254,-0.12452 1.59628,-0.31662 0.42762,-0.14073 1.31826,-0.61383 1.31826,-0.70026 0,-0.0277 0.0253,-0.0503 0.0563,-0.0503 0.14049,0 0.73952,-0.59585 1.04425,-1.03871 0.2296,-0.33368 0.6451,-1.24692 0.6868,-1.50956 0.0327,-0.2058 0.0807,-0.27755 0.24096,-0.36013 0.11008,-0.0567 0.28021,-0.16705 0.37805,-0.24518 0.24035,-0.19193 0.78158,-0.18069 2.29765,0.0477 1.19282,0.17971 1.34348,0.17891 2.22587,-0.0117 l 0.18167,-0.0392 -0.13459,0.1346 c -0.18019,0.18019 -0.17064,0.24299 0.0694,0.45621 0.20327,0.18056 0.69575,0.3689 0.96461,0.3689 0.0778,0 0.21758,0.0289 0.31063,0.0643 0.16666,0.0634 0.16874,0.0712 0.13957,0.52563 -0.0486,0.75708 -0.30469,1.02766 -1.27,1.34176 -0.34722,0.11298 -0.99854,0.38624 -1.44738,0.60724 -0.85149,0.41926 -1.04097,0.47318 -2.22848,0.63405 -0.75885,0.1028 -3.23255,0.56957 -4.14613,0.78234 -0.83643,0.19481 -1.29282,0.16655 -2.00112,-0.1239 z m -0.86105,-0.69289 c -0.35018,-0.0513 -0.91011,-0.29419 -1.13807,-0.49374 -0.38893,-0.34046 -0.59848,-1.30624 -0.4582,-2.11179 0.0906,-0.52017 0.29491,-1.13333 0.45279,-1.35877 0.0642,-0.0917 0.11669,-0.18144 0.11669,-0.19954 0,-0.0181 0.13057,-0.1691 0.29016,-0.33556 l 0.29015,-0.30266 h 1.0438 c 1.27946,0 1.77607,0.10734 2.11604,0.45739 0.11804,0.12155 0.21462,0.19395 0.21462,0.1609 0,-0.11272 -0.4074,-0.45465 -0.69089,-0.57985 -0.39393,-0.17398 -1.00521,-0.28202 -1.61871,-0.28609 -0.51751,-0.003 -0.52044,-0.004 -0.5022,-0.16039 0.0159,-0.13616 0.0829,-0.1777 0.50641,-0.31387 0.42033,-0.13516 0.48378,-0.17417 0.45724,-0.28113 -0.0179,-0.0719 0.0607,-0.29078 0.18676,-0.52005 0.11967,-0.21772 0.21759,-0.45316 0.21759,-0.52321 0,-0.07 -0.1102,-0.401 -0.24489,-0.73544 -0.13469,-0.33444 -0.40449,-1.00354 -0.59956,-1.48691 -0.30268,-0.75001 -0.72491,-2.21003 -0.72491,-2.50666 0,-0.0501 -0.0229,-0.10519 -0.0508,-0.12246 -0.028,-0.0173 -0.0405,0.12936 -0.0279,0.32586 0.0289,0.4505 -0.12336,0.72068 -0.50321,0.89312 -0.33633,0.15267 -0.51063,0.1517 -0.8555,-0.005 -0.36174,-0.16412 -0.55835,-0.40177 -0.60837,-0.73534 -0.0515,-0.34367 -0.004,-0.57995 0.21001,-1.03201 0.16126,-0.34151 0.18537,-0.36345 0.4417,-0.40189 0.5855,-0.0878 0.87108,0.0689 1.11623,0.61258 0.15566,0.34519 0.21869,0.29703 0.11602,-0.0887 -0.13268,-0.49838 -0.11697,-0.58868 0.13186,-0.75776 0.31005,-0.21069 0.48213,-0.16029 0.67885,0.19883 0.088,0.16067 0.338,0.46163 0.55552,0.66878 0.21978,0.20931 0.29741,0.26509 0.17474,0.12555 -0.51719,-0.58828 -0.75127,-1.11162 -0.81425,-1.82045 -0.0245,-0.27621 -0.0487,-0.4377 -0.0536,-0.35887 -0.0163,0.25847 -0.31134,0.74606 -0.61124,1.01005 -0.16186,0.14247 -0.33033,0.25904 -0.37438,0.25904 -0.044,0 -0.0898,0.0291 -0.10168,0.0647 -0.0147,0.044 -0.0848,0.0427 -0.21872,-0.004 -0.13822,-0.0482 -0.2975,-0.0497 -0.53292,-0.005 -0.29559,0.056 -0.34753,0.0499 -0.43392,-0.0513 -0.0666,-0.0779 -0.22817,-0.1288 -0.50219,-0.15812 -0.58171,-0.0622 -1.041144,-0.20753 -1.235481,-0.39072 -0.04297,-0.0405 -0.14539,-0.12655 -0.227598,-0.19122 -0.358857,-0.28227 -0.589719,-1.139 -0.517197,-1.91931 0.07063,-0.75999 0.35602,-1.86475 0.481711,-1.86475 0.07674,0 0.247052,0.18818 0.247052,0.27298 0,0.0949 0.347433,0.4803 0.433023,0.4803 0.0921,0 0.38304,-0.30514 0.38304,-0.40171 0,-0.15867 0.30193,-0.41434 0.48929,-0.41434 0.13925,0 0.26112,0.0839 0.52432,0.36095 0.30906,0.32532 0.76431,0.72351 0.96866,0.84724 0.054,0.0327 0.0678,0.0102 0.0457,-0.0743 -0.12276,-0.46942 0.52359,-0.9691 1.01141,-0.7819 0.24689,0.0947 0.0401,0.81654 -0.29022,1.01322 -0.13989,0.0833 -0.13861,0.0846 0.0443,0.0462 0.34091,-0.0717 0.4708,-0.2563 0.4708,-0.669 0,-0.20113 0.0215,-0.3657 0.0477,-0.3657 0.0262,0 0.0825,-0.0557 0.12498,-0.12378 0.0719,-0.11512 0.0661,-0.11951 -0.0832,-0.0628 -0.23898,0.0909 -0.54534,0.0739 -0.70669,-0.0391 -0.2146,-0.15031 -0.39606,-0.0647 -0.60691,0.28638 -0.2684,0.44688 -0.43614,0.4367 -0.9032,-0.0548 -0.19375,-0.2039 -0.42361,-0.41485 -0.51079,-0.46877 -0.14504,-0.0897 -0.17264,-0.0888 -0.32495,0.0111 -0.0915,0.0601 -0.22708,0.18625 -0.30117,0.28045 -0.20212,0.25695 -0.44452,0.23088 -0.746509,-0.0803 -0.140176,-0.14445 -0.260731,-0.34007 -0.28312,-0.45942 -0.03757,-0.20024 0.05695,-0.60698 0.141189,-0.60758 0.02252,-1.8e-4 0.13244,-0.0861 0.244273,-0.19086 0.273957,-0.25677 0.639517,-0.38392 1.235497,-0.42974 l 0.49723,-0.0382 0.0936,-0.28249 c 0.1187,-0.35816 0.22182,-0.43494 0.58743,-0.43742 0.16196,-0.001 0.31409,-0.0337 0.33805,-0.0725 0.0278,-0.045 0.1535,-0.0575 0.34722,-0.0345 0.167,0.0198 0.32021,0.009 0.34047,-0.0237 0.0685,-0.1108 0.3271,-0.0656 0.36074,0.0631 0.0267,0.10207 0.0695,0.1166 0.25501,0.0865 0.12262,-0.0199 0.29915,-0.0171 0.39231,0.006 l 0.16938,0.0425 -0.0461,0.51442 c -0.0254,0.28293 -0.0667,0.75962 -0.0919,1.05931 -0.0252,0.29969 -0.0826,0.58923 -0.12753,0.64344 -0.045,0.0542 -0.0562,0.0986 -0.0249,0.0986 0.14341,0 0.2956,-0.42029 0.32289,-0.89167 0.0156,-0.26915 0.0479,-0.48937 0.0718,-0.48937 0.0825,0 0.32103,0.61472 0.41694,1.07469 0.0945,0.45333 0.18041,0.59344 0.45328,0.73948 0.17981,0.0962 0.17381,0.17183 -0.0174,0.21983 -0.0932,0.0234 -0.14213,0.0716 -0.12306,0.12134 0.0174,0.0454 -0.0212,0.20752 -0.0858,0.36031 -0.0646,0.15279 -0.15353,0.45048 -0.19756,0.66152 -0.073,0.34981 -0.069,0.40806 0.0445,0.65913 0.16837,0.37241 0.34642,0.54434 0.75962,0.73352 0.87866,0.40226 2.04652,-0.0433 2.26786,-0.86532 0.0787,-0.29222 0.14056,-0.31016 0.33737,-0.0978 0.13428,0.1449 0.54463,1.2666 0.54261,1.48324 -5e-4,0.0547 0.0187,0.11904 0.0427,0.14306 0.066,0.066 0.0781,0.18456 0.11704,1.13858 0.0463,1.13636 0.018,1.2337 -0.3848,1.32345 -0.37296,0.0831 -0.62292,0.20774 -1.14096,0.56891 -0.21563,0.15034 -0.46045,0.27335 -0.54404,0.27335 -0.13783,0 -0.15199,0.0258 -0.15199,0.27683 0,0.15226 -0.0306,0.33402 -0.068,0.40391 -0.10283,0.19215 -0.0894,0.29399 0.0262,0.19809 0.0518,-0.043 0.0942,-0.11212 0.0942,-0.15364 0,-0.11374 0.54212,-0.78877 0.77161,-0.9608 0.43311,-0.32465 0.77502,-0.45491 1.19408,-0.45491 0.44733,0 0.57271,0.0715 0.77017,0.43942 0.0956,0.17808 0.12225,0.38902 0.14071,1.11318 0.0213,0.83671 0.0102,0.9424 -0.17454,1.66352 -0.43808,1.70974 -1.08297,3.38823 -1.43828,3.74354 -0.20633,0.20634 -0.57704,0.18175 -0.8481,-0.0562 -0.3841,-0.33724 -0.91784,-1.34094 -0.91784,-1.72599 0,-0.074 -0.0208,-0.1554 -0.0463,-0.18085 -0.0592,-0.0592 -0.0581,-0.0425 -0.0716,-1.04181 -0.0127,-0.94073 -0.0819,-0.98439 -0.19437,-0.12265 -0.0441,0.33774 -0.0487,0.63773 -0.0128,0.82511 0.0376,0.19622 0.0343,0.31654 -0.01,0.36072 -0.0465,0.0465 -0.0376,0.0897 0.0301,0.14499 0.053,0.0433 0.14552,0.21994 0.20552,0.39257 0.15904,0.45761 0.22151,0.58335 0.51456,1.03578 0.37267,0.57533 0.56805,0.70592 1.01714,0.67984 l 0.3567,-0.0207 -0.013,0.2285 c -0.0207,0.36365 -0.55344,1.32467 -1.00418,1.81151 -0.64842,0.70035 -1.95833,1.43945 -2.74138,1.54677 -0.25871,0.0355 -0.29036,0.0266 -0.29036,-0.0813 0,-0.16743 0.53533,-0.65672 1.20024,-1.09703 0.54369,-0.36003 0.93956,-0.78181 0.92896,-0.98975 -0.003,-0.0552 -0.0438,-0.0122 -0.0911,0.0957 -0.10414,0.23751 -0.38228,0.52397 -0.63089,0.64977 -0.48912,0.24751 -1.53272,1.13939 -1.53272,1.30988 0,0.0627 -0.28812,0.2015 -0.39529,0.19039 -0.0415,-0.004 -0.2208,-0.0291 -0.39837,-0.0551 z m 3.16971,-2.95023 c -6.8e-4,-0.51487 -0.0348,-0.4249 -0.0715,0.18833 -0.016,0.267 -0.007,0.41645 0.022,0.34525 0.0276,-0.069 0.0499,-0.30916 0.0496,-0.53358 z m -0.0733,-0.63951 c -0.02,-0.0501 -0.0349,-0.0352 -0.0379,0.0379 -0.003,0.0662 0.0121,0.10325 0.033,0.0824 0.0209,-0.0209 0.0231,-0.075 0.005,-0.12032 z m -0.10595,-0.40959 c -0.0684,-0.10667 -0.0702,-0.10653 -0.0358,0.003 0.0199,0.0632 0.0384,0.14799 0.0411,0.18832 0.004,0.0529 0.0135,0.0522 0.0358,-0.003 0.017,-0.0419 -0.001,-0.1266 -0.0411,-0.18832 z m 0.4711,-6.29547 c -0.0213,-0.0345 -0.0812,-0.0628 -0.13296,-0.0628 -0.0518,0 -0.0767,0.0282 -0.0554,0.0628 0.0213,0.0345 0.0812,0.0628 0.13296,0.0628 0.0518,0 0.0767,-0.0282 0.0554,-0.0628 z m -0.28248,-0.12555 c 0,-0.0345 -0.0282,-0.0628 -0.0628,-0.0628 -0.0345,0 -0.0628,0.0282 -0.0628,0.0628 0,0.0345 0.0282,0.0628 0.0628,0.0628 0.0345,0 0.0628,-0.0282 0.0628,-0.0628 z m -2.48107,-4.59892 c 0.0335,-0.0791 0.0225,-0.10163 -0.0386,-0.0791 -0.047,0.0173 -0.18432,-0.0527 -0.30516,-0.15555 -0.35995,-0.30633 -0.3698,-0.31387 -0.40987,-0.31387 -0.0874,0 -0.22769,-0.19774 -0.19704,-0.27762 0.0222,-0.0579 -0.0271,-0.0949 -0.15084,-0.11307 -0.10112,-0.0148 -0.18386,-0.008 -0.18386,0.0148 0,0.0521 0.32821,0.34741 0.65953,0.59329 0.41981,0.31157 0.43456,0.33643 0.42526,0.71712 l -0.009,0.35232 0.0812,-0.31387 c 0.0447,-0.17263 0.10226,-0.36363 0.12802,-0.42444 z m 0.28397,-0.56475 c 0,-0.0693 0.29601,-0.4767 0.46712,-0.64294 0.0711,-0.069 0.20688,-0.16561 0.30177,-0.21457 0.24184,-0.12479 0.1596,-0.16862 -0.0918,-0.0489 -0.33055,0.15735 -0.58531,0.45239 -0.72728,0.84225 -0.0844,0.23168 -0.0992,0.31881 -0.041,0.24101 0.0502,-0.067 0.0912,-0.14659 0.0912,-0.17682 z m 11.84949,13.98723 c -0.39651,-0.20685 -0.64853,-0.62679 -0.71395,-1.18965 l -0.0373,-0.32072 0.30455,-0.10986 c 0.48161,-0.17372 0.90849,-0.84659 0.68126,-1.07383 -0.19069,-0.19069 -0.10989,-0.28111 0.39228,-0.43903 0.26758,-0.0842 0.71249,-0.19643 0.9887,-0.24951 0.2762,-0.0531 0.82318,-0.15725 1.2155,-0.23147 0.7846,-0.14843 1.68171,-0.42465 2.15018,-0.66204 0.16634,-0.0843 0.39534,-0.15326 0.5089,-0.15326 0.2197,0 0.24953,0.0397 0.44752,0.59635 0.0491,0.13811 0.20755,0.4868 0.35206,0.77488 0.14451,0.28808 0.25363,0.52903 0.24248,0.53544 -0.13194,0.0759 -0.51278,0.22768 -0.57166,0.22776 -0.11515,1.9e-4 -1.17011,0.55551 -1.31928,0.69448 -0.0717,0.0668 -0.16037,0.12151 -0.19701,0.12156 -0.0366,5e-5 -0.19375,0.11376 -0.34911,0.2527 -0.25083,0.2243 -0.52219,0.37851 -1.16133,0.65998 -0.10357,0.0456 -0.57761,0.21201 -1.0534,0.36976 -0.94238,0.31246 -1.53863,0.37475 -1.88042,0.19646 z m -23.002447,-0.47204 c -0.210335,-0.0501 -0.650037,-0.29738 -0.880516,-0.49518 -0.387903,-0.33291 -0.642163,-1.22957 -0.395806,-1.39583 0.163067,-0.11006 0.703572,-0.007 1.171243,0.2241 0.963002,0.47513 1.579293,1.56308 0.956045,1.68773 -0.246602,0.0493 -0.591955,0.0409 -0.850966,-0.0208 z m 21.761787,-1.17586 c -0.29529,-0.0494 -0.7549,-0.21831 -0.84829,-0.3117 -0.11958,-0.11958 -0.11924,-0.30056 8e-4,-0.4206 0.1435,-0.1435 0.74499,-0.34909 1.21734,-0.41608 0.77805,-0.11035 1.13971,0.11724 0.92048,0.57925 -0.16267,0.34279 -0.31748,0.46985 -0.66268,0.54388 -0.32631,0.07 -0.35382,0.0711 -0.62765,0.0252 z m -23.577812,-0.35735 c -0.106945,-0.10782 -0.39905,-0.37964 -0.649123,-0.60406 -0.250072,-0.22442 -0.546263,-0.49278 -0.658203,-0.59635 -0.111941,-0.10358 -0.448407,-0.41431 -0.747705,-0.69052 -0.299298,-0.27621 -0.839231,-0.78041 -1.199853,-1.12046 -0.735888,-0.6939 -0.721013,-0.6365 -0.295615,-1.1408 0.119614,-0.1418 0.700399,-1.29751 0.700399,-1.39373 0,-0.0992 0.07734,-0.10317 0.171762,-0.009 0.06173,0.0617 0.470031,0.28012 1.785891,0.95524 0.161776,0.083 0.387763,0.20862 0.502193,0.27914 l 0.208055,0.12823 0.01213,-0.22769 c 0.0067,-0.12524 0.02963,-0.29744 0.05103,-0.38267 0.03378,-0.13458 0.02609,-0.14435 -0.0584,-0.0742 -0.05703,0.0473 -0.162579,0.0644 -0.255044,0.0412 -0.236359,-0.0593 -0.210513,-0.32961 0.06196,-0.64793 0.220075,-0.25711 0.274511,-0.39366 0.156935,-0.39366 -0.03453,0 -0.06277,-0.1119 -0.06277,-0.24868 0,-0.237 0.01179,-0.25185 0.251096,-0.31629 0.394473,-0.10622 0.331425,-0.25088 -0.109854,-0.25205 -0.428363,-10e-4 -0.536172,-0.0558 -0.507686,-0.25724 0.02004,-0.14177 0.04248,-0.14901 0.416831,-0.13459 0.264308,0.0102 0.518921,-0.0263 0.767003,-0.10985 0.438956,-0.14787 0.712678,-0.15519 1.222769,-0.0327 0.296798,0.0713 0.460544,0.0762 0.772406,0.0234 0.217668,-0.0369 0.409135,-0.0537 0.425482,-0.0374 0.01635,0.0164 -8.22e-4,0.11006 -0.03815,0.20824 -0.106131,0.27915 -0.01318,0.63826 0.236849,0.915 0.121969,0.13501 0.210739,0.25265 0.197266,0.26143 -0.0596,0.0388 -1.329495,0.42543 -1.81356,0.5521 -0.319692,0.0837 -0.597865,0.19844 -0.693951,0.28632 -0.184787,0.16902 -0.405276,0.19171 -0.460655,0.0474 -0.08267,-0.21543 -0.03354,-0.38266 0.152918,-0.52051 0.105061,-0.0777 0.2497,-0.26201 0.321419,-0.40963 0.249581,-0.51371 0.799788,-0.62198 1.026018,-0.2019 0.06745,0.12526 0.09954,0.28404 0.08181,0.40484 -0.03265,0.22245 0.04346,0.27031 0.107752,0.0678 0.117533,-0.37031 -0.189587,-0.87338 -0.533195,-0.87338 -0.270487,0 -0.604938,0.23928 -0.734182,0.52526 -0.06035,0.13353 -0.216926,0.32894 -0.347955,0.43424 -0.190096,0.15276 -0.238237,0.23385 -0.238237,0.40127 0,0.12773 0.04621,0.24938 0.118118,0.31095 0.115416,0.0988 0.115056,0.10811 -0.01569,0.40594 -0.0941,0.21433 -0.171074,0.30598 -0.259359,0.30879 -0.102498,0.003 -0.09135,0.0225 0.06071,0.10479 0.102443,0.0554 0.223816,0.13835 0.269719,0.18425 0.0459,0.0459 0.181255,0.12987 0.300784,0.18659 0.119528,0.0567 0.280639,0.16992 0.358023,0.25157 0.07738,0.0816 0.165904,0.14893 0.196713,0.14952 0.131144,0.003 1.053292,1.01384 1.174671,1.28823 0.187547,0.42398 0.226564,1.11844 0.08765,1.56008 -0.15039,0.47813 -0.206137,0.512 -0.506314,0.30764 -0.546407,-0.37199 -1.428729,-0.56974 -1.632571,-0.3659 -0.05156,0.0516 -0.08968,0.21164 -0.08968,0.37665 0,0.15783 -0.02119,0.28337 -0.04708,0.27898 -0.02589,-0.004 -0.134581,-0.0962 -0.241526,-0.20402 z m 31.361812,-0.79862 c 0,-0.0456 -0.14255,-0.38458 -0.31678,-0.7532 -0.49111,-1.03905 -0.57285,-0.89985 0.99313,-1.6914 0.73451,-0.37127 1.3701,-0.70266 1.41242,-0.73642 0.0423,-0.0337 0.27467,-0.16732 0.51635,-0.29682 0.24168,-0.12949 0.46767,-0.26893 0.5022,-0.30987 0.0345,-0.041 0.11221,-0.093 0.17263,-0.11566 0.0604,-0.0227 0.10985,-0.0665 0.10985,-0.0974 0,-0.0309 0.12006,-0.13626 0.26679,-0.2341 0.14674,-0.0978 0.29504,-0.20921 0.32957,-0.24749 0.0345,-0.0383 0.21814,-0.1847 0.40803,-0.32536 0.18989,-0.14066 0.43,-0.33249 0.53358,-0.42629 0.28916,-0.26185 0.62659,-0.38387 1.39269,-0.50361 0.97667,-0.15265 1.17185,-0.0811 0.92388,0.33868 -0.0947,0.1604 -0.25213,0.2564 -0.57459,0.35052 -0.0777,0.0227 -0.14124,0.0754 -0.14124,0.1172 0,0.0418 -0.0494,0.11915 -0.10986,0.17191 -0.0604,0.0528 -0.16635,0.17516 -0.2354,0.272 -0.0691,0.0968 -0.16086,0.2133 -0.20402,0.2588 -0.0431,0.0455 -0.0785,0.098 -0.0785,0.11675 0,0.0367 -0.38468,0.61354 -0.44375,0.66545 -0.13105,0.11517 -0.33558,0.71033 -0.36885,1.07333 -0.0215,0.2349 -0.0568,0.44471 -0.0783,0.46625 -0.0216,0.0215 -0.15545,-0.0378 -0.29757,-0.13182 -0.15881,-0.10509 -0.37274,-0.18129 -0.55504,-0.1977 -0.53284,-0.048 -1.08131,0.44067 -1.08131,0.96331 0,0.0821 0.0282,0.14927 0.0628,0.14927 0.0345,0 0.063,-0.0918 0.0632,-0.20401 0.001,-0.51313 0.58375,-0.87921 1.19141,-0.7485 0.30898,0.0665 0.52393,0.39242 0.48621,0.7373 -0.0507,0.46305 -0.38854,0.71741 -0.95301,0.71741 -0.34815,0 -0.49375,-0.0757 -0.63947,-0.33233 -0.0475,-0.0837 -0.11555,-0.0854 -0.55636,-0.0135 -0.63602,0.10376 -0.91321,0.20146 -1.44125,0.50797 -0.65197,0.37845 -0.80788,0.45198 -1.05792,0.49889 -0.17197,0.0323 -0.2315,0.0221 -0.2315,-0.0396 z m -28.158156,-5.39639 c -0.167512,-0.17478 -0.185125,-0.23445 -0.192592,-0.65253 l -0.0082,-0.46016 0.479025,-0.13023 c 0.263463,-0.0716 0.789757,-0.21516 1.16954,-0.31897 0.379784,-0.1038 1.269607,-0.30391 1.977386,-0.44467 1.20557,-0.23977 1.312648,-0.27254 1.694902,-0.51864 0.224417,-0.14448 0.447725,-0.30071 0.496245,-0.34717 0.14654,-0.14034 0.37159,-0.19951 0.75884,-0.19951 0.34182,0 0.56537,0.0955 0.56537,0.24162 0,0.0244 -0.11426,0.26774 -0.2539,0.5408 -0.24738,0.48373 -0.25195,0.5041 -0.17776,0.79354 0.10719,0.41826 0.001,0.55943 -0.58556,0.78049 -0.25189,0.0949 -0.490179,0.19759 -0.529536,0.22824 -0.03936,0.0306 -0.6293,0.19609 -1.310985,0.36765 l -1.239427,0.31191 h -1.329478 -1.329478 z m 11.358476,-4.39274 c -0.49479,-0.24492 -0.71431,-0.58769 -0.71431,-1.11537 0,-0.29423 0.0458,-0.47064 0.21705,-0.83588 0.23306,-0.4971 0.35673,-0.68266 0.45496,-0.68266 0.034,0 0.10998,-0.0532 0.16885,-0.11826 0.13777,-0.15223 1.08926,-0.53698 1.57595,-0.63724 0.38872,-0.0801 1.19835,-0.43715 1.43499,-0.63286 0.0739,-0.0611 0.2779,-0.23278 0.45335,-0.38146 0.46438,-0.39356 0.6748,-0.55282 0.73041,-0.55282 0.027,0 0.0492,-0.0452 0.0492,-0.10039 0,-0.10404 0.3764,-0.75307 0.59635,-1.02831 0.3846,-0.48126 1.78612,-1.78806 2.18768,-2.03982 0.10875,-0.0682 0.20715,-0.14587 0.21866,-0.17263 0.0332,-0.0771 0.18515,-0.0565 0.21999,0.0298 0.0611,0.15136 0.0409,-0.61522 -0.0219,-0.83217 -0.0721,-0.24908 0.0843,-1.87375 0.20391,-2.11822 0.0779,-0.15928 0.26742,-0.18852 0.32076,-0.0495 0.0194,0.0505 0.008,0.25526 -0.0243,0.45511 -0.15741,0.96106 -0.0436,0.82496 0.21806,-0.26088 0.20114,-0.83453 0.30008,-1.03156 0.52087,-1.03727 0.15906,-0.004 0.13916,0.3046 -0.0725,1.12365 -0.11982,0.46374 -0.20356,0.86628 -0.18609,0.89453 0.0617,0.0998 0.15338,0.0493 0.22047,-0.12125 0.0672,-0.17091 0.28437,-0.68117 0.56104,-1.31826 0.11341,-0.26115 0.17322,-0.32957 0.28813,-0.32957 0.31618,0 0.26049,0.28978 -0.2989,1.55534 -0.12747,0.28839 -0.14625,0.3908 -0.0716,0.39043 0.0259,-1.3e-4 0.0993,-0.12725 0.16315,-0.28249 0.0638,-0.15523 0.13649,-0.28224 0.16144,-0.28224 0.025,0 0.11077,-0.14831 0.19071,-0.32957 0.14439,-0.3274 0.33882,-0.5452 0.48908,-0.54788 0.12486,-0.002 0.0925,0.33751 -0.073,0.76693 -0.0833,0.21615 -0.20023,0.52736 -0.25978,0.69158 -0.0596,0.16423 -0.16217,0.36073 -0.22804,0.43667 -0.1011,0.11657 -0.11568,0.2119 -0.0936,0.61164 0.0144,0.26046 0.0752,0.58573 0.13507,0.72282 0.12689,0.29047 0.0739,0.43105 -0.17369,0.46075 -0.30636,0.0368 -0.56575,-0.39311 -0.44322,-0.73452 0.0403,-0.11221 0.10244,-0.16224 0.19734,-0.15883 0.16543,0.006 0.18256,-0.0688 0.0293,-0.12766 -0.29361,-0.11266 -0.44516,0.55585 -0.19741,0.87081 0.073,0.0928 0.11666,0.18474 0.0971,0.20435 -0.0772,0.0772 -0.65156,0.14773 -0.8889,0.10911 -0.1381,-0.0225 -0.35998,-0.0961 -0.49306,-0.16351 -0.13308,-0.0675 -0.22309,-0.0921 -0.20003,-0.0548 0.0714,0.11556 0.36733,0.24109 0.67823,0.28771 0.16354,0.0245 0.29735,0.0771 0.29735,0.11686 0,0.10288 -0.37885,0.86626 -0.48022,0.96762 -0.0466,0.0466 -0.0847,0.11449 -0.0847,0.15082 0,0.0363 -0.11299,0.23528 -0.2511,0.44209 -0.1381,0.20681 -0.25109,0.40105 -0.25109,0.43164 0,0.0306 -0.0282,0.0556 -0.0628,0.0556 -0.0345,0 -0.0628,0.0303 -0.0628,0.0673 0,0.037 -0.0353,0.10664 -0.0785,0.15476 -0.10829,0.12075 -0.1784,0.2094 -0.39423,0.49851 -0.34389,0.46063 -0.97598,1.03258 -1.2143,1.09878 -0.33215,0.0923 -0.40567,0.0827 -0.35294,-0.0459 0.1559,-0.38027 0.074,-0.86071 -0.1922,-1.12687 -0.19698,-0.19698 -0.74537,-0.0401 -1.07022,0.30614 -0.20754,0.22121 -0.0341,0.15965 0.21717,-0.0771 0.20264,-0.1909 0.6594,-0.24101 0.82563,-0.0906 0.16651,0.15069 0.22244,0.50196 0.1331,0.83598 -0.12508,0.46768 -0.51286,0.70171 -1.16268,0.70171 -0.63431,0 -0.78549,-0.294 -0.41453,-0.8061 0.22752,-0.31409 0.2423,-0.39644 0.0365,-0.20305 -0.0835,0.0785 -0.21389,0.28685 -0.2897,0.46308 l -0.13784,0.32042 0.19653,0.1756 c 0.15576,0.13917 0.25735,0.1756 0.48977,0.1756 h 0.29323 l -0.18176,0.18972 c -0.1,0.10434 -0.34537,0.24937 -0.54533,0.32228 -0.19995,0.0729 -0.36356,0.15702 -0.36356,0.18692 0,0.0299 -0.0399,0.0544 -0.0887,0.0544 -0.1304,0 -0.73916,0.63215 -0.88229,0.9162 -0.0679,0.13482 -0.16681,0.30541 -0.21971,0.37909 -0.0529,0.0737 -0.13857,0.1975 -0.19036,0.27513 -0.15562,0.23326 -0.39597,0.44552 -0.61003,0.53872 -0.30574,0.13312 -0.94053,0.11269 -1.2494,-0.0402 z m 7.56853,-8.11762 c -0.0605,-0.0557 -0.0688,-0.046 -0.0373,0.0432 0.0223,0.0632 0.0439,0.14799 0.0479,0.18832 0.004,0.0403 0.0208,0.0209 0.0373,-0.0432 0.0165,-0.0641 -0.005,-0.14883 -0.0479,-0.18832 z"
       id="path1062" />
  </g>
</svg>
