<?xml version="1.0" encoding="UTF-8" standalone="no"?>
<!-- Created with Inkscape (http://www.inkscape.org/) -->

<svg
   width="72.587463mm"
   height="95.634041mm"
   viewBox="0 0 72.587463 95.634041"
   version="1.1"
   id="svg12596"
   inkscape:version="1.1 (c68e22c387, 2021-05-23)"
   sodipodi:docname="split.svg"
   xmlns:inkscape="http://www.inkscape.org/namespaces/inkscape"
   xmlns:sodipodi="http://sodipodi.sourceforge.net/DTD/sodipodi-0.dtd"
   xmlns="http://www.w3.org/2000/svg"
   xmlns:svg="http://www.w3.org/2000/svg">
  <sodipodi:namedview
     id="namedview12598"
     pagecolor="#ffffff"
     bordercolor="#666666"
     borderopacity="1.0"
     inkscape:pageshadow="2"
     inkscape:pageopacity="0.0"
     inkscape:pagecheckerboard="0"
     inkscape:document-units="mm"
     showgrid="false"
     fit-margin-top="0"
     fit-margin-left="0"
     fit-margin-right="0"
     fit-margin-bottom="0"
     inkscape:zoom="0.74118967"
     inkscape:cx="354.16036"
     inkscape:cy="41.150061"
     inkscape:window-width="1920"
     inkscape:window-height="1017"
     inkscape:window-x="-8"
     inkscape:window-y="32"
     inkscape:window-maximized="1"
     inkscape:current-layer="layer1" />
  <defs
     id="defs12593" />
  <g
     inkscape:label="Layer 1"
     inkscape:groupmode="layer"
     id="layer1"
     transform="translate(-11.540403,-137.80798)">
    <path
       id="path862"
       style="fill:#000000;fill-opacity:1;fill-rule:evenodd;stroke:none;stroke-width:0.230405"
       d="m 72.328056,137.80987 c -1.186598,0.0362 -1.481854,0.49855 -2.195732,1.61644 h 0.0067 l -0.01344,0.0129 c -0.170957,0.27649 -0.348903,0.5664 -0.519864,0.84956 -0.210126,0.35552 -0.414678,0.69779 -0.631486,1.02681 -0.454131,0.68499 -0.894802,1.19883 -1.401463,1.60042 -0.513109,0.4016 -1.104969,0.698 -1.861386,0.94154 -0.592371,0.191 -1.236636,0.3883 -1.88154,0.5793 -1.70384,0.51358 -3.446925,1.04026 -4.91391,1.73839 -1.18405,0.55296 -2.112214,1.35012 -3.026691,2.13372 -1.052486,0.90203 -2.091346,1.78423 -3.446817,2.23191 -2.68375,-0.0461 -5.20329,1.33009 -10.795206,4.38526 l -0.717269,0.3886 c -0.73038,-0.18432 -1.427427,-0.20402 -2.1115,-0.10541 -0.677619,0.0922 -1.335389,0.30333 -1.999877,0.5798 -1.532649,-0.69788 -3.131132,-1.15938 -4.795572,-1.37665 -1.671125,-0.22374 -3.408117,-0.20372 -5.217253,0.0532 -0.368419,-0.22396 -0.67087,-0.39558 -1.05265,-0.53382 -0.394451,-0.14493 -0.874615,-0.25641 -1.591633,-0.34881 -0.473712,-0.0592 -1.111935,-0.0198 -1.789554,0.0196 -1.197414,0.0726 -2.519209,0.15131 -3.085084,-0.30282 -0.677619,-0.71126 -1.394643,-0.9612 -2.15129,-0.75706 -0.730152,0.19746 -1.486715,0.84297 -2.269628,1.92288 l -0.0067,0.007 c -0.388004,0.54652 -0.578814,0.8101 -0.802537,1.04696 -0.217041,0.22395 -0.460349,0.4348 -0.940512,0.84285 l -0.118853,0.092 c -0.401365,0.34215 -0.710108,0.60586 -0.940512,0.93534 -0.243308,0.3357 -0.394809,0.72381 -0.467156,1.30328 -0.05921,0.47417 -0.08509,0.94194 0.03979,1.32395 0.138245,0.41473 0.427615,0.73062 0.99994,0.84905 h 0.03256 c 0.927608,0.0263 1.868442,-0.71758 2.684074,-1.36271 0.408045,-0.32948 0.783201,-0.62554 1.08572,-0.76378 0.467032,-0.22396 0.887801,-0.38199 1.249537,-0.47439 0.348602,-0.0919 0.65173,-0.12498 0.895035,-0.0987 h 0.03928 c 0.408048,-0.0396 1.730497,0.44772 3.263365,1.12603 1.835171,0.80319 3.960075,1.86985 5.210019,2.62051 1.335424,0.79674 2.539275,1.29739 3.730006,1.79783 0.868164,0.36218 1.736437,0.72416 2.624645,1.19165 0.572326,0.2963 0.967079,0.63212 1.243336,1.01389 0.269803,0.38202 0.434207,0.81653 0.539501,1.31052 0.03271,0.32256 0.07901,0.70458 0.131776,1.11931 0.197225,1.60684 0.453771,3.66165 -0.105421,4.95215 -0.368416,0.86217 -0.783111,1.64628 -1.20406,2.44947 -0.151376,0.28984 -0.302586,0.57887 -0.453718,0.8754 -0.644674,1.25777 -1.098714,2.2847 -1.401467,3.35793 -0.302522,1.07322 -0.460118,2.18605 -0.506428,3.60857 -0.09193,2.62038 -0.09849,5.20158 0.105421,7.80262 0.204126,2.59436 0.618389,5.21497 1.361672,7.94112 0.0065,0.65849 0.02004,1.33641 0.05943,2.04122 0.03271,0.69143 0.08552,1.41561 0.15141,2.16627 -1.513295,3.85213 -0.875059,7.12477 -0.348813,9.81129 0.22371,1.13889 0.427362,2.17923 0.427362,3.08818 0,1.42873 -0.263284,2.10018 -0.546219,2.8112 -0.308972,0.80388 -0.650769,1.65938 -0.690398,3.61528 l -6.302457,4.51704 0.210839,0.30954 9.393742,-6.74274 c 0.703887,0.0193 1.19752,0.54662 1.394746,1.34359 -0.256439,-0.30943 -0.578937,-0.39519 -0.9803,-0.27699 -0.355055,0.10529 -1.269584,0.61262 -1.664499,1.23817 -0.211251,0.33605 -0.138882,0.6035 -0.202054,1.09812 l -0.0016,0.001 -6.854877,4.91908 0.21704,0.30902 6.465239,-4.64364 c -0.03461,0.0603 -0.05508,0.12471 -0.110072,0.17983 -0.486844,0.48063 -0.447476,0.37508 -0.789614,0.49351 0.282924,0.13179 0.572307,0.21075 0.855244,0.24391 0.289618,0.033 0.572307,0.0129 0.855245,-0.0532 0.401134,-0.0986 0.900953,-0.33558 1.388027,-0.67128 0.440534,-0.30298 0.874829,-0.69123 1.216981,-1.11931 0.190775,-0.24377 0.243308,-0.50065 0.21704,-0.75086 l -0.01292,-0.0785 c 0.197226,-0.21059 0.341918,-0.4414 0.434081,-0.66559 0.105968,-0.24091 0.158324,-0.47672 0.168981,-0.66404 l 5.136121,-3.65611 c 0.07397,0.42634 0.143216,0.83512 0.227377,1.29811 0,0.63222 0.0065,1.2778 0.01964,1.94252 0.0067,0.64513 0.01946,1.30991 0.03927,1.98799 -0.328787,0.4744 -0.532606,1.07374 -0.624766,1.81126 -0.01313,0.11843 -0.01942,0.23718 -0.03256,0.36897 l -7.874971,5.64927 0.217556,0.30954 7.64398,-5.48494 c 0,0.54675 0.04631,1.15228 0.144692,1.81746 0,0.16428 -0.02597,0.32227 -0.07183,0.47388 l -6.638356,4.76043 0.210841,0.31006 5.157309,-3.70055 c 0.796046,0.23662 1.295778,0.28284 1.868101,0.19068 0.572556,-0.0991 1.112239,-0.36234 1.802992,-0.80356 1.841852,-1.15916 1.842157,-1.29047 1.749764,-3.26595 v -0.0129 l 12.775964,-9.16585 -0.217558,-0.30954 -12.578559,9.02787 c -0.02603,-0.34929 -0.05232,-0.73091 -0.08527,-1.11983 -0.03272,-0.35552 -0.0725,-0.71734 -0.118338,-1.07332 l 11.703677,-8.40155 -0.210839,-0.30954 -11.532113,8.27029 c 0.157827,-1.02737 0.204333,-2.18622 0.137975,-3.46335 l 0.250113,-1.0604 c 0.269576,-1.14557 0.525979,-2.24542 0.716754,-3.37809 l 8.795845,-6.31435 -0.210322,-0.31005 -8.506458,6.10453 c 0.118428,-0.80987 0.197226,-1.63987 0.217041,-2.52232 l 7.196976,-5.16196 -0.210839,-0.30954 -6.979419,5.01106 c -0.01336,-0.86263 -0.118198,-1.77814 -0.217041,-2.67994 -0.03295,-0.30966 -0.07221,-0.62577 -0.0987,-0.88935 -0.08548,-0.85596 -0.118692,-1.36943 -0.07906,-1.85674 0.04585,-0.48731 0.170871,-0.97424 0.407728,-1.77767 0.157827,-0.53984 0.341971,-1.15232 0.526066,-1.76474 1.263076,-4.21386 2.552867,-8.52748 2.427758,-12.81369 -0.09215,-3.15426 -1.046091,-5.8077 -2.098579,-8.75089 -0.631309,-1.7649 -1.295459,-3.62855 -1.841749,-5.76141 -0.171188,-0.68499 -0.269894,-1.35693 -0.296622,-2.03501 -0.02603,-0.67831 0.01404,-1.36272 0.112655,-2.06706 0.151145,-1.09972 0.328715,-2.35089 0.56534,-3.4308 0.230404,-1.05364 0.519901,-1.95545 0.888317,-2.38332 0.697204,-0.79673 1.559113,-1.40248 2.433961,-2.02158 0.737063,-0.51357 1.486394,-1.04739 2.170927,-1.71255 0.729919,-0.70435 1.44744,-1.44827 2.158008,-2.22519 0.703884,-0.77024 1.394568,-1.57352 2.065507,-2.39675 0.394681,-0.0855 0.776303,-0.19761 1.170987,-0.32918 0.407586,-0.13824 0.835393,-0.30299 1.28261,-0.48731 0.72992,-0.30943 1.809602,-1.33669 3.289721,-2.75229 2.065345,-1.97548 4.933664,-4.71451 8.696626,-7.24297 l 0.01292,-0.007 c 0.684072,-0.51357 1.493176,-0.91525 2.427243,-1.2051 0.940966,-0.2963 2.006494,-0.4736 3.197219,-0.5395 0.736838,-0.0396 1.631643,0.17078 2.539897,0.38137 0.947192,0.2175 1.907434,0.44123 2.776059,0.41497 0.664017,-0.0265 1.052547,-0.19716 1.243327,-0.54623 0.18409,-0.32925 0.17088,-0.7971 0.0589,-1.42265 -0.12465,-0.66518 -0.40799,-1.24436 -0.848519,-1.73167 -0.434081,-0.47417 -1.026626,-0.86878 -1.769917,-1.16531 -0.519788,-0.20414 -1.170618,-0.28345 -1.848467,-0.36225 -0.6115,-0.0726 -1.256252,-0.15131 -1.835031,-0.32918 -0.796049,-0.2698 -1.473652,-0.55335 -2.085144,-0.80357 -1.079214,-0.44122 -1.941343,-0.80319 -2.763655,-0.84904 -0.209698,-0.0115 -0.397375,-0.015 -0.566891,-0.01 z m 0.341067,0.46871 c 0.541713,0.0331 1.180227,0.24667 1.909961,0.62115 1.401315,0.71771 2.348359,2.83793 3.68401,3.00912 1.052724,0.13154 1.065805,-1.94889 3.506248,-0.95447 1.085437,0.48708 1.276297,1.45482 1.164786,2.11977 -0.0329,0.18432 -0.09247,0.34901 -0.158131,0.46767 -0.309203,0.54652 -1.342006,0.68468 -2.835484,0.678 -0.894665,-0.20391 -1.776016,-0.40137 -2.532663,-0.36174 -1.223447,0.0659 -2.322195,0.25641 -3.289205,0.55294 -0.973918,0.30275 -1.822595,0.73066 -2.539378,1.27072 -3.78923,2.53514 -6.670363,5.2941 -8.742619,7.27604 -1.453854,1.38957 -2.506647,2.39673 -3.177585,2.67323 -0.440534,0.18455 -0.85489,0.34903 -1.256255,0.48059 -0.408046,0.13825 -0.795941,0.25018 -1.190625,0.33589 l -0.105418,0.0594 c -0.697434,0.85596 -1.401609,1.66604 -2.09858,2.42983 -0.710567,0.77692 -1.420873,1.51438 -2.144572,2.21226 -0.657804,0.64536 -1.394552,1.16569 -2.124935,1.67949 -0.894432,0.62532 -1.769686,1.24435 -2.493388,2.08049 -0.125108,0.13848 -0.236802,0.31577 -0.342098,0.52659 -0.506199,0.34882 -0.966777,0.38188 -1.374593,0.0987 -1.151101,-1.27068 -2.092129,-2.19219 -2.822051,-2.76521 -0.677619,-0.5267 -1.184439,-0.79021 -1.486731,-0.67179 -0.914474,0.37533 -0.13199,1.28373 0.170532,1.65261 1.992998,2.38353 2.934385,4.3725 2.836003,5.95261 -0.06613,1.02715 -0.559692,2.20602 -1.506884,2.89078 -0.763331,0.54652 -2.039742,0.78323 -2.92127,0.38809 -0.960324,-0.44099 -1.578626,-1.61946 -1.841746,-3.54242 -0.289388,-2.12663 -0.157917,-5.16859 0.407725,-9.11934 -0.914474,2.1794 -1.361924,7.84845 -2.802411,8.22378 -0.282937,0.0793 -0.572309,-0.0655 -0.855247,-0.43408 -0.0394,-0.32948 -0.07864,-0.639 -0.104902,-0.92862 l -0.0067,-0.0196 c -0.118197,-0.54652 -0.295928,-1.02738 -0.605131,-1.46193 -0.309202,-0.42809 -0.743534,-0.80349 -1.368393,-1.13274 -0.920925,-0.47417 -1.782871,-0.83622 -2.657718,-1.2051 -1.177597,-0.48731 -2.374853,-0.98758 -3.684014,-1.77095 -1.263075,-0.75734 -3.401271,-1.83079 -5.249806,-2.64067 -1.565598,-0.68498 -2.933923,-1.18485 -3.433901,-1.15858 -0.282937,-0.0263 -0.618423,0.007 -1.006657,0.11162 -0.387998,0.0986 -0.828836,0.26363 -1.31568,0.49403 -0.341921,0.16474 -0.736603,0.47407 -1.157552,0.80977 -0.539377,0.42809 -1.131483,0.89567 -1.710492,1.13275 -0.993272,-0.20414 -1.137878,-1.12625 -0.769461,-1.67277 0.414496,-0.61242 1.453499,-1.53425 3.565157,-1.94252 0.0067,-0.84282 -1.716831,-0.49341 -0.532784,-1.23093 0.769782,-0.48063 1.493309,-0.0331 2.09858,0.65164 0.315886,0.30298 0.848387,0.17792 1.236618,-0.12506 0.552508,-0.42786 -0.08541,-0.4146 1.026292,-0.45423 1.473668,-0.0592 2.500125,-0.033 3.289723,0.25011 1.164233,0.41473 1.788859,1.21154 2.459797,2.11357 1.526199,2.0741 2.704002,4.63571 6.664193,4.65553 -2.657713,-0.90204 -3.8876,-1.9953 -4.381127,-2.91714 -0.960327,-1.8043 0.04571,-2.12684 1.690335,-1.94252 2.026177,0.23041 4.953955,1.43577 5.526278,5.04414 0.401365,-1.56053 0.03917,-3.08853 0.651124,-4.22765 0.677619,-1.25778 2.295771,-3.13399 3.736721,-1.75803 1.23036,1.17875 2.38756,3.89142 3.854545,4.35891 1.980557,0.63223 4.203973,0.41509 6.670911,-0.65836 -4.256493,0.27671 -5.670685,-0.89556 -5.887495,-2.01487 -0.197687,-1.04718 0.723437,-2.26481 3.012736,-3.89123 2.533068,-2.17963 5.743286,-1.74511 8.539014,-1.81746 2.12502,-0.0592 4.012748,-0.40823 5.183661,-2.42311 -2.657713,1.22483 -4.360886,1.25116 -5.183661,0.99426 -0.355055,-0.10529 -0.54606,-0.27 -0.578776,-0.40825 -0.05945,-0.26335 0.131561,-0.67839 0.578776,-1.13274 0.296069,-0.29631 0.704366,-0.61239 1.223698,-0.89556 4.217093,-2.31763 8.972603,-1.38285 11.913484,-3.1936 1.256397,-0.77047 1.506989,-1.65262 1.546158,-2.62723 0.01979,-0.67831 -0.05913,-1.40896 0.01964,-2.1792 0.194519,-1.88784 0.917662,-2.68917 2.109433,-2.61637 z m -32.143777,38.34908 c 0.510982,0.005 1.042604,0.0547 1.589051,0.15348 1.835631,0.32947 1.762717,1.63276 0.05219,2.20554 -0.723471,0.25019 -1.730147,0.36867 -2.953824,0.27648 -0.644443,-0.0461 -1.361697,3.6e-4 -1.302247,0.86299 0.08548,1.15871 1.407758,0.84906 4.525822,0.64492 3.322431,-0.18456 5.38802,2.8714 6.236829,7.40162 0.348602,1.86351 0.322194,4.05577 0.243396,6.61716 -0.03963,1.36307 -1.026671,7.31527 -2.861842,7.01922 -0.447675,-0.0724 -1.210349,-1.48843 0.210323,-4.24729 -1.170916,0.99442 -1.670825,2.35728 -1.776119,3.68763 -0.144463,1.78425 1.50001,3.6148 2.164726,5.35988 0.572325,1.48818 0.407299,4.48403 -0.145209,5.96553 -0.0038,0.01 -0.0081,0.0196 -0.01189,0.0294 l -0.326594,0.69092 c -0.410829,0.7576 -0.965279,1.48618 -1.509985,2.35489 -0.315655,0.49375 -0.05877,1.04031 0.348817,0.78341 0.197686,-0.1251 0.572092,-0.69122 0.940509,-1.2578 0.294031,-0.4563 0.618556,-0.32953 0.813906,0.0594 l 0.121954,0.36948 c 0.07986,0.35275 0.07582,0.7865 -0.0739,1.19735 -0.532696,1.51491 -1.49983,2.50874 -2.184362,4.27364 0.947192,-0.28963 1.335532,-0.24997 1.250053,0.13849 -0.105297,0.46749 -1.059067,1.09896 -1.624709,2.08049 0.658035,0.0131 1.124945,-0.34231 1.250053,0.65165 0.03917,0.30297 0.04562,0.73766 0.01912,1.3503 -0.0523,1.04028 -0.578673,1.57381 -1.552361,2.55488 1.500164,-0.57302 2.262987,-0.51396 2.276348,0.17725 -0.243308,0.22419 -0.59845,0.46085 -1.111562,0.78342 -0.651121,0.41495 -1.151155,0.65916 -1.664497,0.75086 -0.348371,0.0594 -0.71034,0.0462 -1.138433,-0.0393 0.250222,-0.11198 0.454023,-0.25026 0.611849,-0.42168 0.296302,-0.31589 0.441013,-0.72377 0.427882,-1.22421 v -0.0264 c -0.14446,-1.00088 -0.17798,-1.85682 -0.0925,-2.57452 0.08617,-0.69813 0.28326,-1.25779 0.586012,-1.67896 l 0.03927,-0.11266 c -0.01982,-0.70458 -0.03278,-1.38897 -0.03927,-2.05414 -0.01337,-0.67186 -0.01946,-1.32316 -0.02635,-1.94872 v -0.0336 c -0.09689,-0.53142 -0.178141,-1.00618 -0.261485,-1.48931 l -0.06821,-0.38861 c -0.133594,-0.78899 -0.228468,-1.45834 -0.324012,-2.13165 l -0.06305,-0.41341 c -0.131987,-0.97935 -0.23015,-1.87013 -0.270266,-2.6355 -0.08548,-1.74509 0.05955,-3.02176 0.454234,-4.19406 l 0.0067,-0.0987 c -0.07926,-0.36888 -0.118854,-0.74453 -0.118854,-1.12655 -0.0062,-0.38178 0.02635,-0.78359 0.0987,-1.18494 l -0.0067,-0.0858 c -0.374869,-1.19165 -0.625017,-2.52802 -0.763259,-3.98994 -0.131331,-1.46859 -0.144052,-3.08149 -0.03876,-4.82658 l 0.0062,-0.0987 -0.07855,-0.0594 -0.0987,-0.0791 c 0.03917,-0.42787 0.111583,-0.77066 0.249598,-1.17202 0.342148,-0.98107 2.414606,-3.20054 0.914672,-4.37906 -1.480119,0.0594 -3.697681,-2.88406 -6.644555,-8.81652 0,3.17382 3.651687,7.35516 3.217373,8.76432 -1.296024,-1.71859 -2.14525,-1.83077 -3.197736,-2.21278 -0.809183,-0.28985 -1.387834,-1.25764 -1.756484,-2.19263 -0.881295,2.50865 2.072315,4.62916 2.460316,7.20369 0.408048,2.74596 -1.55874,3.99033 -1.828311,5.69578 0.631537,-0.50712 1.598528,-1.03352 1.723409,-0.59945 0.388231,1.30363 -3.901374,5.49855 -3.059245,13.27516 0.335468,-2.83167 1.447366,-3.69458 1.710489,-3.61528 0.335468,0.11152 0.736851,1.77774 -0.855245,4.72116 -0.993275,1.96212 -0.434083,3.72671 -0.578776,5.35936 -0.105296,1.19211 -0.98694,1.8244 -1.105357,2.93057 -0.01312,0.11198 -0.01964,0.17121 -0.01964,0.28319 0.335698,-0.30275 0.658117,-0.52018 0.953945,-0.678 l -0.953945,0.678 -0.953947,0.69815 c 0.06566,-1.6921 0.375134,-2.46948 0.657842,-3.20033 0.296068,-0.75065 0.572055,-1.44838 0.572055,-2.94969 -0.0064,-0.9548 -0.21036,-2.00211 -0.434081,-3.16104 -0.519792,-2.64689 -1.150887,-5.87325 0.348816,-9.63921 l 0.0067,-0.0863 c -0.05253,-0.58569 -0.09237,-1.15859 -0.131775,-1.71824 0.309202,-0.7373 0.506608,-1.38968 0.631486,-2.53525 0.05253,-0.4744 0.368578,-1.29026 0.618567,-1.96835 1.059169,-2.8577 0.06574,-7.11175 -1.342036,-9.70587 -1.124834,-1.69209 -1.059243,-3.79259 -0.664559,-4.01009 0.736833,-0.39515 1.079122,2.11326 2.835484,2.44274 -1.743229,-2.51556 -1.355061,-5.89979 -0.16433,-7.41401 0.962226,-1.23066 2.788544,-2.0395 5.002794,-2.01693 z m 5.450832,12.27728 c -0.187055,-0.005 -0.400253,0.0954 -0.638722,0.30128 -0.552509,1.22437 1.717251,3.57551 1.519806,7.13134 0.64489,-1.98217 0.08546,-6.75614 -0.572577,-7.30911 -0.09366,-0.0791 -0.196276,-0.12037 -0.308507,-0.12351 z m -5.543849,4.07831 c 0.106101,0.0123 0.231085,0.0518 0.365869,0.12764 0.637992,0.37532 0.783238,1.47478 1.020093,3.12746 l -0.736904,-0.60565 -1.072288,-0.87592 c -0.388001,-1.13267 -0.105206,-1.58725 0.171051,-1.73839 0.05921,-0.0328 0.146079,-0.0474 0.252179,-0.0351 z m -0.456303,2.23449 0.868683,0.70486 1.256252,1.03353 c -0.09907,1.72527 -0.08554,3.31894 0.05271,4.78731 0.131331,1.47458 0.387876,2.81799 0.762743,4.02301 -0.07189,0.40804 -0.104926,0.80989 -0.0987,1.20457 0.0069,0.3887 0.04006,0.7773 0.118856,1.15239 -0.400905,1.20525 -0.545883,2.51572 -0.453721,4.28708 0.04261,0.82091 0.154062,1.79165 0.301273,2.85718 l -5.882843,4.22094 c -0.07606,-0.0547 -0.146376,-0.11363 -0.234096,-0.16485 -0.09216,-0.47395 -0.144692,-1.01382 -0.144692,-1.63246 -0.0065,-0.65896 0.03936,-1.4027 0.137975,-2.22571 0.190775,-1.10617 0.434384,-2.0216 0.664559,-2.86442 0.295841,-1.09972 0.559228,-2.10044 0.657841,-3.30522 0.07926,-1.07323 -0.09896,-2.2584 -0.250113,-3.26596 -0.138245,-0.92162 -0.256334,-1.69247 -0.124542,-2.04845 0.355285,-0.77669 0.618141,-1.59347 0.789101,-2.44274 0.164738,-0.83614 0.236855,-1.70532 0.217041,-2.6138 0.17096,-0.40183 0.381941,-0.92841 0.618566,-1.57354 0.21681,-0.59951 0.466852,-1.31072 0.743106,-2.13372 z m 2.871661,20.46334 c 0.09805,0.67695 0.192077,1.34056 0.326594,2.12959 l -5.117,3.67213 c -0.04203,-0.16603 -0.103663,-0.3608 -0.179316,-0.56534 -0.125111,-0.32902 -0.276772,-0.65831 -0.362254,-0.78342 -0.110223,-0.16998 -0.216908,-0.27907 -0.325043,-0.39067 z m -7.716324,7.21197 c 0.197231,-0.0333 0.213966,0.26657 0.188619,0.55397 l -0.06563,0.43563 c -0.05882,0.3105 -0.197647,0.54585 -0.415997,0.69557 -0.300392,0.20292 -0.399806,0.23533 -0.439766,-0.0868 l -0.01447,-0.3731 c 0.0087,-0.21537 0.04847,-0.41229 0.125056,-0.58705 0.09884,-0.22371 0.256566,-0.41402 0.467156,-0.56586 0.06085,-0.042 0.112331,-0.0651 0.15503,-0.0723 z" />
  </g>
</svg>
