<?xml version="1.0" encoding="UTF-8" standalone="no"?>
<!-- Created with Inkscape (http://www.inkscape.org/) -->

<svg
   width="467.59402mm"
   height="175.39313mm"
   viewBox="0 0 467.59402 175.39313"
   version="1.1"
   id="svg13058"
   inkscape:version="1.1 (c68e22c387, 2021-05-23)"
   sodipodi:docname="stah.svg"
   xmlns:inkscape="http://www.inkscape.org/namespaces/inkscape"
   xmlns:sodipodi="http://sodipodi.sourceforge.net/DTD/sodipodi-0.dtd"
   xmlns="http://www.w3.org/2000/svg"
   xmlns:svg="http://www.w3.org/2000/svg">
  <sodipodi:namedview
     id="namedview13060"
     pagecolor="#ffffff"
     bordercolor="#666666"
     borderopacity="1.0"
     inkscape:pageshadow="2"
     inkscape:pageopacity="0.0"
     inkscape:pagecheckerboard="0"
     inkscape:document-units="mm"
     showgrid="false"
     fit-margin-top="0"
     fit-margin-left="0"
     fit-margin-right="0"
     fit-margin-bottom="0"
     inkscape:zoom="0.32"
     inkscape:cx="1182.8125"
     inkscape:cy="495.3125"
     inkscape:window-width="1920"
     inkscape:window-height="1017"
     inkscape:window-x="-8"
     inkscape:window-y="32"
     inkscape:window-maximized="1"
     inkscape:current-layer="layer1" />
  <defs
     id="defs13055" />
  <g
     inkscape:label="Layer 1"
     inkscape:groupmode="layer"
     id="layer1"
     transform="translate(-79.705679,-32.795398)">
    <path
       style="fill:#ffffff;stroke:none;stroke-width:0.264583;fill-opacity:1"
       d="m 84.343695,49.269237 h -2.910416 c 0.28194,6.54976 5.99096,9.085 11.90625,8.03936 2.531533,-0.44741 5.327121,-1.46579 6.315604,-4.07061 2.706957,-7.13237 -4.071144,-8.65161 -9.226021,-10.13116 -2.047875,-0.5879 -4.9911,-1.22846 -5.004065,-3.89176 -0.02064,-4.28889 5.912909,-5.22922 8.704263,-3.06414 1.545696,1.1991 1.300692,2.9128 2.388658,4.19074 0.510117,0.59902 2.130161,0.68818 2.633927,0.0368 1.405735,-1.81796 -1.541727,-5.22394 -2.902214,-6.06663 -3.494617,-2.16377 -9.734021,-2.22753 -12.497594,1.22369 -0.621771,0.77656 -1.036108,1.65471 -1.255448,2.62123 -1.482037,6.52515 6.007894,6.8752 10.313723,8.391 2.142067,0.75406 4.300008,2.01242 4.198144,4.57358 -0.157163,3.94573 -5.659173,5.05169 -8.696061,3.89679 -2.582068,-0.98214 -3.451489,-3.24274 -3.96875,-5.74887 m 70.379165,-8.20208 c -1.29249,-0.79693 -2.41062,-1.63619 -3.96875,-1.80605 -12.15125,-1.3253 -10.81511,21.30901 0.79375,17.96177 1.30625,-0.37677 2.1672,-1.28746 3.175,-2.13281 v 1.85209 h 2.64584 v -16.40417 c 0,-1.75339 0.61991,-4.94639 -0.15955,-6.53045 -0.45905,-0.93265 -2.11561,-0.74559 -2.40215,0.21961 -0.58685,1.97644 -0.0841,4.7789 -0.0841,6.84001 m 124.61876,-7.67292 v 2.11667 c 1.71688,0 6.2267,-0.79852 7.51337,0.4609 0.98954,0.96891 0.42413,4.07088 0.42413,5.35993 v 15.61042 h 3.175 v -15.875 c 0,-1.1356 -0.57283,-4.44924 0.3937,-5.20753 1.45176,-1.1393 5.74595,-0.34872 7.5438,-0.34872 -0.0336,-2.83237 -2.56461,-2.11667 -4.7625,-2.11667 h -14.2875 m 186.69,0.27199 c -1.49225,1.1819 0.51329,3.59304 2.06375,2.36644 1.49225,-1.1819 -0.5133,-3.59305 -2.06375,-2.36644 m 33.86666,0 c -1.49225,1.1819 0.51329,3.59304 2.06375,2.36644 1.49225,-1.1819 -0.51329,-3.59305 -2.06375,-2.36644 m -391.4775,1.05093 c 0,2.75934 0.51249,4.40134 -2.38125,5.29166 v 1.5875 l 2.38125,0.26459 c 0,4.7879 -2.31617,17.22199 5.82083,14.81666 v -1.5875 l -2.48629,-0.87788 -0.42413,-3.62003 v -8.73125 l 2.91042,-0.26459 v -1.5875 c -3.25861,-0.96573 -2.91042,-1.96585 -2.91042,-5.29166 h -2.91041 m 102.65833,0 c 0,2.35664 0.67363,4.9911 -2.38125,5.02708 0.0273,2.29447 2.04496,1.61713 2.34209,3.44461 0.47652,2.93185 0.0389,6.28359 0.0392,9.25539 0,1.41102 -0.14473,3.02921 1.14538,3.96637 1.17422,0.85275 3.04245,0.53155 4.41087,0.53155 -0.0299,-2.51831 -2.00342,-1.50548 -2.75087,-3.44461 -0.87471,-2.26986 -0.15981,-6.03568 -0.15955,-8.46164 0,-0.82048 -0.21748,-2.10873 0.42413,-2.75088 0.59637,-0.59637 1.72085,-0.42359 2.48629,-0.42412 v -2.11667 c -3.46366,-0.003 -2.91042,-2.17567 -2.91042,-5.02708 h -2.64583 m -43.12708,14.55208 h 9.26041 c 0.83238,0 2.57837,0.322 3.1676,-0.42413 0.68633,-0.86942 0.0376,-2.84109 -0.15531,-3.8092 -0.97843,-4.90908 -6.51722,-7.29801 -10.94979,-5.02814 -6.8236,3.49435 -5.54328,17.25268 2.91042,17.45958 2.64187,0.0648 5.27659,-0.60113 6.85139,-2.91041 0.42677,-0.62574 1.34593,-1.97379 0.80274,-2.74691 -1.40335,-1.99628 -3.82693,2.46354 -4.74477,2.99191 -4.08834,2.35294 -6.86012,-1.9812 -7.14269,-5.5327 m 23.28333,-8.20208 v -1.32292 h -2.64583 v 17.19792 h 2.64583 c 0,-3.66184 -1.14617,-9.68719 0.6395,-12.96459 1.23349,-2.26324 4.65799,-3.83196 6.65797,-1.53749 1.12369,1.28905 0.90461,3.12817 0.90461,4.71249 v 9.78959 h 2.91042 c 0,-5.86079 2.51725,-19.00529 -6.87917,-17.64771 -1.61766,0.23389 -2.77706,1.16099 -4.23333,1.77271 m 47.09584,10.58333 c -3.8862,-0.9226 -6.10897,6.85006 -10.49629,2.55588 -0.50456,-0.49398 -0.88239,-1.12184 -1.17052,-1.76213 -0.41539,-0.9234 -0.52811,-1.93516 -0.76861,-2.91042 2.75563,-0.6559 5.90841,-0.26458 8.73125,-0.26458 0.93425,0 2.76675,0.34422 3.54463,-0.27199 0.68077,-0.53922 0.42201,-1.90632 0.30797,-2.63843 -0.38047,-2.44263 -1.0832,-4.68868 -3.32343,-6.05022 -8.23463,-5.0046 -14.06764,5.29775 -11.49668,12.40022 2.55138,7.04877 13.00004,5.97641 14.67168,-1.05833 m 10.58333,-10.31875 -0.26458,-1.5875 h -2.64583 v 17.19792 h 2.64583 c 0,-3.71793 -1.1848,-9.96077 0.83264,-13.22891 1.55178,-2.5138 5.77903,-3.58722 7.13687,-0.26458 1.32398,3.24009 1.034,9.86314 0.23257,13.2289 l 2.91042,0.26459 c 0,-4.50401 1.04563,-10.54312 -0.50403,-14.81641 -1.58935,-4.38308 -7.65757,-3.2385 -10.34389,-0.79401 m 80.43334,0.26458 h -0.52917 v -1.85208 h -2.91042 v 17.19792 h 2.91042 c 0,-3.49065 -1.02923,-8.94662 0.36248,-12.17084 1.42875,-3.31205 5.19112,-1.83303 5.19377,-5.55625 -2.06375,0.001 -4.0349,0.35084 -5.02708,2.38125 m 14.55208,-0.52916 v -1.32292 l -2.91042,0.26458 0.26459,8.46667 -0.26459,8.20208 2.91042,0.26459 c 0,-3.66184 -1.14565,-9.68719 0.64029,-12.96459 1.23296,-2.26324 4.65667,-3.83196 6.65692,-1.53749 1.12448,1.28905 0.90487,3.12817 0.90487,4.71249 v 9.78959 h 2.91042 c 0,-5.86079 2.51619,-19.00529 -6.87917,-17.64771 -1.6166,0.23389 -2.77812,1.16099 -4.23333,1.77271 m 42.06875,8.20208 h 9.26042 c 0.8255,0 2.58762,0.32385 3.16706,-0.42413 0.65617,-0.84931 -0.0503,-3.11785 -0.26194,-4.07379 -1.0795,-4.89796 -6.79979,-7.01701 -11.10721,-4.65217 -6.86329,3.76741 -4.96623,17.26407 3.43959,17.35111 2.67758,0.0278 5.2652,-0.78448 6.75481,-3.175 0.37306,-0.59954 1.13506,-1.77456 0.635,-2.48523 -1.3679,-1.94601 -3.83381,2.3667 -4.74398,2.92444 -4.07988,2.49688 -6.86329,-1.92378 -7.14375,-5.46523 m 23.8125,-7.67292 h -0.26458 l -0.26459,-1.85208 h -2.64583 v 17.19792 h 2.64583 c 0,-5.15223 -2.01083,-15.05956 5.55625,-15.08125 v -2.64584 c -2.10608,0.006 -3.88408,0.46091 -5.02708,2.38125 m 25.66458,10.05417 c -4.01637,-1.18454 -5.51921,6.56061 -10.26848,2.70166 -0.54768,-0.44344 -0.96043,-1.01441 -1.26735,-1.64439 -0.48683,-1.00144 -0.56885,-2.12513 -0.89958,-3.17394 2.67758,-0.63738 5.72558,-0.26458 8.46666,-0.26458 1.03188,0 2.67229,0.30665 3.6195,-0.15954 0.8255,-0.40614 0.64294,-1.73594 0.56886,-2.48629 -0.24077,-2.40692 -1.0795,-4.73869 -3.13002,-6.17829 -8.04863,-5.65414 -14.37746,5.22102 -11.75809,12.2637 2.61938,7.04401 12.99369,5.98461 14.6685,-1.05833 m 11.1125,-10.31875 -0.26458,-1.5875 h -2.64583 v 17.19792 h 2.91041 c 0,-3.58484 -1.2065,-9.7626 0.508,-12.96353 1.143,-2.13598 4.47675,-3.79862 6.49552,-1.74889 1.2753,1.29593 1.19857,3.24379 1.19857,4.92283 v 9.78959 l 2.91041,-0.26459 c -1.19062,-4.99718 2.74902,-17.26168 -5.29166,-17.45853 -0.89165,-0.022 -1.77536,0.0161 -2.64584,0.23495 -1.28323,0.32279 -2.21191,1.00066 -3.175,1.87775 m 41.53959,13.49375 c -0.005,1.80102 -0.11907,3.86715 -1.38113,5.27711 -2.30717,2.57096 -6.38175,1.86929 -7.61471,-1.30836 l -2.91041,0.26458 c 1.57427,5.42423 10.414,6.87044 13.34558,1.58724 1.143,-2.05687 0.94192,-4.35213 0.94192,-6.61432 0,-4.44024 -0.76465,-9.6991 0.26458,-14.02292 h -2.64583 l 0.26458,0.79375 -0.26458,0.26459 c -1.27265,-0.78132 -2.44211,-1.61767 -3.96875,-1.8034 -11.35592,-1.38166 -11.3083,20.12712 0.52916,17.54108 1.35996,-0.29686 2.38125,-1.12845 3.43959,-1.97935 m 25.4,-13.75833 v -1.32292 l -2.6379,0.42413 -0.27252,4.60295 v 12.17084 h 2.91042 c 0,-3.58855 -1.18269,-9.77556 0.59002,-12.96459 1.24618,-2.23943 4.66725,-3.8555 6.6675,-1.53088 1.1086,1.28826 0.94456,3.12579 0.94456,4.70588 v 9.78959 h 2.91042 c 0,-5.89016 2.37066,-19.23045 -7.14375,-17.64083 -1.51077,0.25215 -2.61409,1.16707 -3.96875,1.76583 m 30.95625,13.75833 c -0.005,1.92775 -0.15346,4.09469 -1.61661,5.52106 -2.33362,2.27542 -6.31296,1.58141 -7.37923,-1.55231 l -2.91041,0.26458 c 1.56898,5.40518 10.42987,6.87203 13.34558,1.58724 3.2094,-5.81766 -0.29369,-14.33539 1.2065,-20.63724 l -2.64583,-0.26458 v 1.32292 c -1.27265,-0.78132 -2.44211,-1.61767 -3.96875,-1.8034 -11.24215,-1.36763 -11.45911,19.68897 0.26458,17.55537 1.50019,-0.27305 2.51619,-1.10173 3.70417,-1.99364 M 121.38536,39.744237 c 0,4.44235 -1.1041,10.63175 0.51726,14.8164 1.67402,4.32065 7.64593,3.33931 10.33066,0.79402 l 0.26458,1.5875 h 2.64584 v -17.19792 h -2.91042 c 0,3.79439 1.06177,9.50489 -0.67681,12.96458 -1.22634,2.44052 -4.69556,3.79069 -6.6167,1.31128 -0.94879,-1.22423 -0.64399,-3.03292 -0.64399,-4.48628 v -9.78958 h -2.91042 m 182.56251,0 c 0,4.37541 -1.15835,10.70372 0.41354,14.81667 1.66529,4.35716 7.71181,3.27131 10.43437,0.79375 l 0.26459,1.5875 h 2.64583 v -17.19792 h -2.91042 c 0,3.94282 1.05675,9.67343 -0.90408,13.2289 -1.17369,2.12858 -4.51167,3.49965 -6.33148,1.26656 -0.97975,-1.202 -0.70194,-2.99905 -0.70194,-4.44129 v -10.05417 h -2.91041 m 57.94375,0 4.34181,12.43542 1.89177,4.4905 3.02683,0.272 6.08542,-17.19792 h -2.91042 l -2.9845,8.99583 -2.04258,4.7625 -3.08769,-10.05416 -1.33879,-3.43218 -2.98185,-0.27199 m 103.71666,0 v 17.19792 h 2.91042 v -17.19792 h -2.91042 m 33.86667,0 v 17.19792 l 2.6379,-0.42413 0.27252,-3.80921 v -8.99583 l -0.27252,-3.54462 -2.6379,-0.42413 m -350.57292,1.69175 c 7.10777,-1.63248 8.0727,12.61295 2.11667,13.84485 -7.10301,1.46949 -8.09387,-12.47193 -2.11667,-13.84485 m 28.83958,5.452 -9.78958,-0.26458 c 0.39899,-1.53803 0.70485,-3.02366 1.90103,-4.17672 3.74968,-3.6142 7.41072,0.74057 7.88855,4.4413 m 57.94376,0 h -9.52501 c 0.0638,-7.12893 9.21306,-7.1591 9.52501,0 m 160.07291,-0.26458 c -2.53735,0.75035 -7.25223,0.75035 -9.78958,0 0.32808,-1.3253 0.52123,-2.6035 1.4261,-3.69279 3.52161,-4.24313 7.56973,-0.15346 8.36348,3.69279 m 37.04167,0.26458 h -9.525 c 0.15081,-7.13449 9.21279,-7.16518 9.525,0 m 49.2125,-5.42131 c 7.11465,-2.05476 8.35554,11.35486 2.64583,13.14609 -7.24958,2.27356 -8.39523,-11.4861 -2.64583,-13.14609 m 56.35625,-0.009 c 7.22312,-1.85235 8.34496,11.59695 2.38125,13.20588 -7.10406,1.91638 -8.04863,-11.75253 -2.38125,-13.20588 m -180.71042,35.59307 -24.87348,43.391673 -8.99318,15.875 0.26458,0.26458 9.96685,-0.53658 2.15107,-3.16759 4.39737,-7.67291 11.60463,-20.10834 5.48216,-9.789583 h 0.26459 l 16.85925,29.368753 4.51114,7.9375 2.26748,3.43217 3.34963,0.272 6.87916,0.26458 -3.32846,-6.35 -6.19389,-10.84792 -24.07973,-42.333333 h -0.52917 M 143.0812,154.57341 v 0.52916 H 96.779112 84.872862 c -1.143,0 -3.665088,-0.47069 -4.60285,0.272 -0.937207,0.74215 -0.424233,3.67373 -0.424233,4.75509 0,4.77229 0.408252,9.36201 1.45542,14.02291 0.968163,4.30901 1.796573,8.48969 3.918003,12.43542 7.518135,13.98217 21.924958,19.77575 36.959908,21.38521 4.4159,0.47281 9.13554,0.0942 13.49375,-0.43444 12.01076,-1.45653 26.04982,-5.21706 33.69072,-15.39452 2.74426,-3.65548 4.41193,-7.97798 5.30887,-12.43542 0.28469,-1.41499 0.0238,-5.22737 1.30122,-6.07801 0.88767,-0.59107 2.60244,-0.27199 3.62003,-0.27199 h 9.26041 c 8.82571,0 17.6239,-0.26458 26.45834,-0.26458 3.52769,0 8.22669,-0.82603 11.63002,0.0841 2.22038,0.59372 1.33456,5.57133 1.33456,7.32419 v 15.875 c 0,2.74188 0.3728,5.78988 -0.26458,8.46667 3.74279,1.10622 8.79554,0.26458 12.7,0.26458 0.96123,0 3.29009,0.42334 3.96134,-0.42412 1.15755,-1.46156 0.27199,-6.46192 0.27199,-8.30713 0,-7.73139 -0.36645,-15.56411 0,-23.28333 h 38.62917 c 5.8928,0 13.05401,-1.09987 18.78542,0.26458 l -9.29773,15.875 -7.10644,12.7 7.9375,4.23334 c 4.25979,-8.08752 9.16596,-15.86574 13.68398,-23.8125 1.34303,-2.36194 3.23956,-7.66789 5.65547,-8.98843 1.55602,-0.85063 4.58444,-0.27199 6.32513,-0.27199 h 15.61042 47.09583 13.75834 c 1.86266,0 4.59316,-0.50377 6.34735,0.15954 2.07963,0.7882 3.45281,4.63127 4.50056,6.45504 3.49779,6.0878 7.03792,12.15311 10.50925,18.25625 1.15888,2.03544 2.34157,4.05765 3.51367,6.08542 0.35983,0.62124 0.77787,1.72164 1.61396,1.78541 2.02935,0.15451 5.58535,-2.95593 7.38187,-3.90208 l -4.80218,-8.99583 -11.3374,-19.57917 c 2.75431,-0.65616 5.90815,-0.26458 8.73125,-0.26458 h 15.875 c 1.60602,0 6.96119,-0.84005 7.92956,0.6133 1.16946,1.7526 0.27252,6.56114 0.27252,8.64712 v 22.75416 h 16.93334 V 173.0942 h 48.94791 12.17084 c 1.12183,0 3.47398,-0.44 4.33916,0.42413 1.24884,1.25095 0.42334,6.07827 0.42334,7.77795 v 15.34584 c 0,2.66065 0.35454,5.60414 -0.26459,8.20208 l 6.08542,0.26458 11.1125,-0.26458 -0.26458,-13.22917 V 165.1567 81.548367 c -5.16732,0 -11.37444,0.93265 -16.40417,-0.26459 -1.47638,4.99428 -0.26458,11.98007 -0.26458,17.19792 v 37.041673 13.22916 c 0,1.50178 0.51329,4.19127 -0.27252,5.5171 -0.66411,1.12289 -2.33098,0.8329 -3.43165,0.8329 h -9.26042 -38.62916 -10.58334 c -1.05568,0 -3.01625,0.37412 -3.54541,-0.8329 -0.6059,-1.38933 -0.15875,-3.75338 -0.15875,-5.25251 V 136.5817 98.746277 c 0,-5.2951 1.23295,-12.39467 -0.26459,-17.4625 -4.826,0.89588 -11.57816,0.89588 -16.40416,0 l -0.26459,7.67292 v 15.345833 50.53542 l -201.6125,0.26458 c -0.66225,-13.94857 0,-28.10007 0,-42.06875 v -10.58333 c 0,-0.93345 -0.42677,-3.065733 0.20453,-3.809213 1.07553,-1.26656 6.40291,-0.42412 7.99756,-0.42412 h 23.54791 6.35 c 0.69242,-2.7e-4 1.88093,0.19843 2.37384,-0.42413 0.6485,-0.81889 0.272,-2.82205 0.272,-3.80921 v -10.31875 h -67.73334 -20.6375 l -10.05417,0.26459 c 0.94986,3.99018 0.74745,9.99701 0,14.02291 2.93159,0.86651 6.73603,0.26459 9.78959,0.26459 h 20.10833 7.40833 c 0.89668,0 2.30532,-0.25242 3.09087,0.27199 0.86121,0.57467 0.6133,2.019033 0.6133,2.903013 v 7.9375 33.3375 8.99583 c -5.3e-4,1.12951 0.19103,2.74929 -1.08717,3.28004 -1.16549,0.48366 -2.96096,0.15954 -4.2045,0.15954 h -9.525 -28.83958 c -3.37899,0 -9.01568,1.09591 -12.14623,-0.15954 -1.09458,-0.43921 -1.68539,-1.84759 -2.33839,-2.75087 -1.24116,-1.71662 -2.70245,-3.29592 -4.3008,-4.68604 -4.58708,-3.98939 -10.61614,-6.29047 -16.40416,-7.90178 -9.5168,-2.64901 -19.29157,-4.36483 -28.83959,-6.91674 -5.03766,-1.34673 -10.98629,-2.56778 -15.08125,-5.9817 -8.682829,-7.23847 -5.08635,-20.59702 2.91042,-26.761283 4.31324,-3.32475 10.33145,-4.25265 15.61042,-4.61433 9.203,-0.63024 20.76952,1.30598 26.81049,8.972283 2.5617,3.25067 4.03304,7.09533 4.88368,11.1125 0.25876,1.22211 0.11483,3.93118 1.65894,4.19418 3.40968,0.58076 7.37076,0.0392 10.8323,0.0392 0.87683,0 2.81358,0.35745 3.43218,-0.42413 1.13876,-1.4388 -0.19421,-6.57595 -0.44979,-8.30712 -1.48934,-10.08301 -7.24377,-18.537513 -16.21155,-23.465373 -15.122,-8.30977 -36.70142,-9.68428 -52.12292,-1.32371 -16.291455,8.83179 -24.503725,33.718763 -12.838114,49.395333 8.122709,10.91538 24.346164,12.44414 36.650614,15.21327 5.30146,1.19301 11.03339,3.30147 16.40417,3.83673 m -45.772921,19.05 c 15.675771,0 31.398101,-0.26459 47.095831,-0.26459 h 11.1125 c 0.90144,0 3.30994,-0.43524 3.74862,0.61331 0.61727,1.47478 -0.41513,4.31138 -0.88821,5.73669 -2.28388,6.88182 -9.07732,10.44284 -15.56041,12.42881 -16.82909,5.15514 -40.96861,1.28852 -45.508331,-18.51422 z"
       id="path14141" />
  </g>
</svg>
