<?xml version="1.0" encoding="UTF-8" standalone="no"?>
<!-- Created with Inkscape (http://www.inkscape.org/) -->

<svg
   width="179.30582mm"
   height="263.8024mm"
   viewBox="0 0 179.30582 263.8024"
   version="1.1"
   id="svg5"
   inkscape:version="1.1 (c68e22c387, 2021-05-23)"
   sodipodi:docname="wip.svg"
   xmlns:inkscape="http://www.inkscape.org/namespaces/inkscape"
   xmlns:sodipodi="http://sodipodi.sourceforge.net/DTD/sodipodi-0.dtd"
   xmlns="http://www.w3.org/2000/svg"
   xmlns:svg="http://www.w3.org/2000/svg">
  <sodipodi:namedview
     id="namedview7"
     pagecolor="#ffffff"
     bordercolor="#666666"
     borderopacity="1.0"
     inkscape:pageshadow="2"
     inkscape:pageopacity="0.0"
     inkscape:pagecheckerboard="0"
     inkscape:document-units="mm"
     showgrid="false"
     fit-margin-top="0"
     fit-margin-left="0"
     fit-margin-right="0"
     fit-margin-bottom="0"
     inkscape:zoom="0.26205012"
     inkscape:cx="-562.86942"
     inkscape:cy="112.57388"
     inkscape:window-width="1920"
     inkscape:window-height="1017"
     inkscape:window-x="-8"
     inkscape:window-y="32"
     inkscape:window-maximized="1"
     inkscape:current-layer="layer1" />
  <defs
     id="defs2" />
  <g
     inkscape:label="Layer 1"
     inkscape:groupmode="layer"
     id="layer1"
     transform="translate(57.863027,-40.49435)">
    <path
       id="path854"
       style="fill:#ef2da0;stroke:none;stroke-width:0.330788;fill-opacity:1"
       d="m 307.5332,153.05469 c -1.89905,-0.0196 -3.79656,0.0182 -5.69336,0.084 -0.40253,0.014 -0.8047,0.0252 -1.20703,0.043 -1.82911,0.0809 -3.65583,0.19744 -5.47851,0.35742 -0.358,0.0314 -0.7146,0.073 -1.07227,0.10742 -1.70465,0.16428 -3.40612,0.35846 -5.10156,0.5918 -0.24205,0.0333 -0.48474,0.061 -0.72656,0.0957 -1.82209,0.26158 -3.63585,0.57288 -5.44336,0.91407 -0.43296,0.0817 -0.86489,0.16567 -1.29688,0.25195 -1.78836,0.35719 -3.57016,0.74456 -5.33984,1.17969 -0.27189,0.0669 -0.54111,0.14225 -0.8125,0.21093 -1.64295,0.41581 -3.27502,0.86665 -4.89844,1.34961 -0.32338,0.0962 -0.64817,0.1863 -0.9707,0.28516 -1.74123,0.53371 -3.46897,1.10965 -5.1836,1.7207 -0.40392,0.14395 -0.8047,0.29513 -1.20703,0.44336 -1.73461,0.63909 -3.4594,1.30297 -5.16211,2.02149 -0.0452,0.019 -0.0896,0.0395 -0.13476,0.0586 -1.72615,0.73093 -3.42971,1.51383 -5.11914,2.32617 -0.34157,0.16424 -0.68347,0.32659 -1.02344,0.49414 -1.63407,0.80537 -3.25058,1.64738 -4.8457,2.5293 -0.3394,0.18765 -0.67418,0.38311 -1.01172,0.57422 -1.45239,0.8223 -2.88838,1.67434 -4.30469,2.56055 -0.22759,0.1424 -0.45893,0.27782 -0.68555,0.42187 -1.55005,0.98531 -3.07168,2.01788 -4.57422,3.08008 -0.35055,0.24782 -0.69902,0.498 -1.04687,0.75 -1.4876,1.07766 -2.95665,2.18403 -4.39258,3.33789 -0.21393,0.17191 -0.42202,0.35179 -0.63476,0.52539 -1.30493,1.06483 -2.5833,2.16476 -3.8418,3.29297 -0.28682,0.25712 -0.57701,0.50913 -0.86133,0.76953 -1.35829,1.24406 -2.68519,2.52878 -3.98437,3.84766 -0.2806,0.28483 -0.55625,0.57496 -0.83399,0.86328 -1.33557,1.38649 -2.6508,2.79879 -3.91797,4.26562 -2.1201,2.4542 -4.15377,4.95983 -6.09179,7.52539 -0.96902,1.28279 -1.91399,2.57921 -2.83399,3.89258 -3e-4,4.3e-4 3e-4,0.002 0,0.002 -0.91968,1.31294 -1.81522,2.641 -2.68359,3.98633 -3e-4,4.6e-4 2.9e-4,0.001 0,0.002 -0.89866,1.39228 -1.7682,2.8054 -2.60938,4.23437 -0.75589,1.2842 -1.4878,2.58307 -2.19531,3.89844 -0.0522,0.097 -0.10436,0.19387 -0.15625,0.29101 -0.71864,1.34537 -1.41399,2.70838 -2.08008,4.08789 -0.012,0.025 -0.0251,0.0492 -0.0371,0.0742 -2.5e-4,5.3e-4 2.6e-4,0.001 0,0.002 -0.0108,0.0225 -0.0204,0.0459 -0.0312,0.0684 -0.68893,1.43209 -1.35031,2.88097 -1.98047,4.35156 -0.76838,1.79315 -1.48942,3.60629 -2.16796,5.43555 -0.0328,0.0885 -0.065,0.17704 -0.0977,0.26562 -0.67392,1.83017 -1.30568,3.67581 -1.88867,5.53711 -0.58267,1.86027 -1.11668,3.7364 -1.60743,5.62305 -0.0246,0.0945 -0.0499,0.18865 -0.0742,0.2832 -0.48604,1.88754 -0.92732,3.78635 -1.32032,5.69531 -0.40286,1.95691 -0.75662,3.92403 -1.06054,5.89844 -0.30393,1.97441 -0.55792,3.95652 -0.76172,5.94336 -0.19874,1.93748 -0.34681,3.87968 -0.44922,5.82422 -0.005,0.097 -0.0108,0.19396 -0.0156,0.29101 -0.0977,1.94679 -0.14843,3.89485 -0.14843,5.84375 h -16.8711 v 0.002 50.93945 0.002 h 27.78711 c 0.0239,0 0.0884,-0.006 0.11328,-0.006 0.4262,-0.006 0.99408,-0.0464 1.63282,-0.0957 1.05351,-0.0788 2.0289,-0.16782 3.30273,-0.18945 0.96039,-0.0163 1.89511,0.0251 2.68555,0.17578 0.0219,0.004 0.0447,0.007 0.0664,0.0117 0.38543,0.0774 0.73678,0.1806 1.03321,0.32031 0.30111,0.14192 0.54693,0.32234 0.72461,0.54297 0.002,0.002 0.006,0.003 0.008,0.006 0.005,0.007 0.0103,0.0147 0.0156,0.0215 0.46196,0.58624 0.85209,1.27095 1.19532,2.01563 0.34351,0.7453 0.63846,1.54783 0.91406,2.36328 0.003,0.008 0.007,0.0153 0.01,0.0234 2e-4,5.8e-4 -1.9e-4,0.001 0,0.002 0.27771,0.8233 0.53557,1.65976 0.79688,2.46289 1.9e-4,5.8e-4 -1.9e-4,10e-4 0,0.002 0.26155,0.80376 0.52854,1.57337 0.82617,2.26563 3.41469,7.94254 6.61515,16.06728 9.68945,24.14844 1.05653,2.77729 2.20829,5.51208 3.31641,8.26953 0.17123,0.42579 0.35023,1.03931 0.625,1.56054 2.8e-4,5.3e-4 -2.8e-4,0.001 0,0.002 0.13738,0.26031 0.29947,0.4968 0.49609,0.67578 0.19733,0.17962 0.42956,0.30103 0.70899,0.32812 0.97253,0.0944 2.26899,-0.47863 3.53711,-1.18164 1.26806,-0.70301 2.50768,-1.53597 3.36523,-1.96484 l 13.16406,-6.58203 c 0.5161,7.60376 1.44721,14.77885 2.78516,19.54883 2.55405,9.6486 7.66222,21.85046 20.57422,49.37695 10.07414,21.56734 14.75594,36.60884 20.00586,63.85156 5.53364,29.37131 2.41314,57.60607 -8.6543,79.45703 -7.80397,15.32417 -7.94619,15.18181 -8.93945,-3.68945 -1.13507,-24.54705 -6.66787,-40.72166 -21.14063,-61.86328 -18.30379,-26.67526 -45.68973,-44.69459 -79.17578,-51.78906 -18.87137,-3.97285 -48.2429,-3.40545 -70.94531,1.56054 -50.93845,11.06729 -72.930716,23.69554 -139.193359,79.74219 -11.209262,9.50646 -27.383759,21.85112 -36.039062,27.38477 -16.884922,11.06747 -50.087579,28.51953 -54.060549,28.51953 -1.41889,0 -3.54848,0.85024 -4.68359,1.98633 -1.27698,1.13605 -9.22165,3.68991 -17.87695,5.81835 -14.89848,3.83093 -27.1003,4.68195 -44.55274,3.54688 -5.39184,-0.28309 -6.81259,0.14022 -9.65039,3.4043 -1.84462,2.1284 -3.26172,5.10847 -3.26172,6.52734 0,7.9457 20.71589,22.70322 59.59375,42.42578 54.627614,27.66864 99.74718,43.27622 151.1113294,51.93164 18.8713626,3.26332 25.3982146,3.68945 56.7558596,3.68945 19.580829,0 39.871835,-0.70947 45.263671,-1.56054 5.39172,-0.85104 9.93292,-1.27724 10.2168,-0.99219 0.28384,0.28309 -2.41366,3.9712 -5.96094,8.08594 -3.54724,4.25688 -9.080843,11.35208 -12.060547,15.89258 -3.121625,4.54049 -6.383769,8.23047 -7.376953,8.23047 -0.993146,0 -6.811513,0.56693 -13.054688,1.41796 -26.107729,3.12159 -57.891829,4.39844 -107.269531,4.39844 -58.600505,0 -87.969971,-1.41965 -134.935551,-6.52734 -37.4589,-4.11496 -43.41838,-4.25575 -47.5332,-1.41797 -4.25673,2.97966 -5.53506,9.79088 -2.69726,14.18945 3.40539,5.25003 12.91247,7.23465 54.06054,11.34961 75.627298,7.51994 184.882014,22.84494 233.833987,32.77735 l 3.832031,0.85156 v 72.64648 c 0,68.67492 2.837095,165.58718 7.09375,239.93748 1.702715,28.8035 2.696377,34.9016 6.527344,39.1582 3.263471,3.5474 11.066738,3.5501 14.755858,-0.1386 3.54724,-3.5472 3.54861,-5.394 0.71094,-58.461 -3.972889,-73.9245 -4.967679,-110.52922 -5.960939,-199.49412 l -0.849609,-88.25586 h 3.830078 c 6.10129,0 47.53277,9.22196 73.21484,16.3164 48.81011,13.47954 75.91119,24.83087 89.81641,37.45899 9.50657,8.51331 13.48078,9.22238 19.58203,3.12109 6.38502,-6.52702 5.53378,-10.3581 -4.39844,-20.14844 -20.14843,-19.72274 -78.60894,-40.86368 -158.63476,-57.46484 l -19.01172,-3.97266 0.85156,-3.83203 c 0.42573,-2.12825 1.70083,-6.24164 2.83594,-8.9375 1.70268,-4.11473 2.83809,-5.10937 6.10156,-5.10937 5.39184,0 30.224,-4.96542 50.23047,-9.93164 38.16835,-9.50646 74.918,-24.68856 99.89063,-41.43164 24.68881,-16.45924 48.95124,-45.12073 63.84961,-75.62696 18.58764,-38.1685 20.85821,-81.02013 6.52734,-125.00586 -5.81745,-17.45261 -10.07549,-27.52591 -22.41992,-52.21484 -21.70916,-43.27642 -25.96502,-85.13502 -11.49219,-113.3711 3.26347,-6.5268 10.49988,-10.21508 17.31055,-8.65429 15.04029,3.1216 38.02688,22.70153 45.97265,38.87695 5.24996,10.78366 8.51326,22.8449 9.64844,34.76367 1.27699,14.75653 1.9867,17.59361 5.67578,21.99219 8.22963,9.64861 18.30296,3.12243 29.22852,-19.1543 15.04029,-30.79022 17.16898,-47.9594 8.51367,-66.54687 -2.41213,-5.10812 -6.38474,-12.20267 -8.79688,-15.75 -0.59788,-0.87927 -1.47283,-2.29168 -2.53125,-4.07227 h -26.23828 c 2.42155,4.27461 4.81491,8.43263 6.49219,11.16602 13.90518,22.1348 15.75014,29.51331 11.35156,43.13476 -2.12836,6.95254 -4.68164,9.64723 -4.68164,4.96485 0,-4.39857 -7.52056,-21.2817 -13.76367,-30.64649 -6.05813,-9.19935 -18.02813,-21.07381 -28.1875,-28.61914 h 28.78906 c -4.3e-4,-7.6e-4 -0.002,-10e-4 -0.002,-0.002 h 26.23828 c 3.7e-4,6.3e-4 0.002,10e-4 0.002,0.002 h 1.47266 41.34766 9.59375 c 0.0202,0 0.0552,0.002 0.0762,0.002 0.49837,0.007 1.17723,0.08 1.81445,0.0293 0.33298,-0.0265 0.65233,-0.0871 0.92188,-0.21093 0.13478,-0.062 0.2574,-0.1395 0.36328,-0.23633 0.10587,-0.0968 0.1954,-0.21289 0.26367,-0.35157 0.004,-0.008 0.006,-0.0191 0.01,-0.0273 0.12021,-0.25003 0.21377,-0.53049 0.2871,-0.83398 0.0707,-0.29235 0.11722,-0.61164 0.15235,-0.94141 0.005,-0.0489 0.017,-0.091 0.0215,-0.14062 6e-5,-6.3e-4 -5e-5,-0.001 0,-0.002 0.0675,-0.74254 0.0599,-1.55818 0.0195,-2.38086 -3e-5,-6.6e-4 4e-5,-0.001 0,-0.002 -0.0808,-1.64677 -0.29101,-3.32077 -0.29101,-4.49805 v -21.83203 c 0,-0.94605 0.24835,-3.02241 0.27734,-4.99609 0.0217,-1.48026 -0.0809,-2.90296 -0.50586,-3.74805 -0.14164,-0.2817 -0.31839,-0.49872 -0.53906,-0.63281 -0.46717,-0.2839 -0.99708,-0.50413 -1.5625,-0.68359 -5.9e-4,-1.9e-4 -10e-4,1.8e-4 -0.002,0 -0.54966,-0.17436 -1.13252,-0.31095 -1.72266,-0.42969 -1.23164,-0.24806 -2.493,-0.42056 -3.55469,-0.71094 -2.94731,-0.80613 -5.92108,-1.57683 -8.90429,-2.3125 -2.98321,-0.73567 -5.97465,-1.43569 -8.95704,-2.10156 -1.74938,-0.39045 -6.44091,-0.77635 -8.18359,-2.25391 -0.24895,-0.21108 -0.43739,-0.44428 -0.54883,-0.70312 -0.12354,-0.28705 -0.21995,-0.60273 -0.29297,-0.93946 -0.0766,-0.3532 -0.12394,-0.7302 -0.15625,-1.12304 -0.0603,-0.73089 -0.0574,-1.5147 -0.0215,-2.30664 3e-5,-6.7e-4 -3e-5,-0.001 0,-0.002 0.0737,-1.62237 0.27148,-3.26879 0.27148,-4.51172 v -20.8402 -72.77344 h -38.04101 c -2.98553,0 -6.14178,0.20763 -9.28906,0.30274 -1.57356,0.0476 -3.14481,0.0664 -4.69141,0.0176 -1.5466,-0.0489 -3.06823,-0.1652 -4.54297,-0.39063 -0.50205,-0.0767 -1.01229,-0.20245 -1.52734,-0.36719 -0.51505,-0.16473 -1.03563,-0.36889 -1.5586,-0.60156 -1.03568,-0.46078 -2.0821,-1.03853 -3.11914,-1.64844 -0.01,-0.006 -0.0195,-0.01 -0.0293,-0.0156 -4.9e-4,-2.9e-4 -10e-4,2.8e-4 -0.002,0 -1.04663,-0.61636 -2.08263,-1.26785 -3.08984,-1.875 -4.9e-4,-3e-4 -10e-4,2.9e-4 -0.002,0 -1.00703,-0.60712 -1.98503,-1.17007 -2.91211,-1.60742 -1.93006,-0.91055 -3.90192,-1.77457 -5.9043,-2.58399 -2.00238,-0.80942 -4.03409,-1.56546 -6.08789,-2.25976 -5.9e-4,-2e-4 -0.001,1.9e-4 -0.002,0 -2.05323,-0.69407 -4.12724,-1.32756 -6.21094,-1.89258 -6.1e-4,-1.7e-4 -0.001,1.6e-4 -0.002,0 -2.0837,-0.56499 -4.17822,-1.06242 -6.27149,-1.48438 -1.71732,-0.34618 -3.44267,-0.6412 -5.17187,-0.91406 -0.43348,-0.0684 -0.86669,-0.13542 -1.30079,-0.19922 -1.73106,-0.25443 -3.46592,-0.48651 -5.20507,-0.66797 -1.72167,-0.17963 -3.4472,-0.30961 -5.17383,-0.41797 -0.47074,-0.0295 -0.94114,-0.0558 -1.41211,-0.0801 -1.73007,-0.0891 -3.46011,-0.15592 -5.19141,-0.17383 z m -2.92382,17.09961 c 1.63339,-0.0118 3.2665,0.0138 4.89843,0.0781 6.5e-4,3e-5 10e-4,-2e-5 0.002,0 1.58302,0.0625 3.16345,0.16283 4.74218,0.29688 0.0951,0.008 0.19011,0.0171 0.28516,0.0254 1.58017,0.13851 3.15764,0.31133 4.73047,0.52148 6.4e-4,9e-5 10e-4,-8e-5 0.002,0 1.61895,0.21635 3.23373,0.46958 4.8418,0.76172 6.3e-4,1.2e-4 10e-4,-1.1e-4 0.002,0 1.60807,0.29217 3.21063,0.62238 4.80469,0.99023 1.59468,0.36801 3.18029,0.77512 4.75781,1.21876 6.1e-4,1.7e-4 10e-4,-1.8e-4 0.002,0 1.57691,0.44349 3.14455,0.92439 4.70118,1.44335 5.8e-4,2e-4 0.001,-1.9e-4 0.002,0 1.51214,0.50417 3.01383,1.04777 4.50391,1.62305 0.0884,0.0342 0.17726,0.0672 0.26562,0.10156 1.48847,0.57942 2.96436,1.19335 4.42773,1.84375 5.5e-4,2.5e-4 0.001,-2.4e-4 0.002,0 1.50664,0.66968 2.99961,1.37628 4.47656,2.1211 5.2e-4,2.6e-4 0.001,-2.7e-4 0.002,0 1.47696,0.74485 2.9387,1.52777 4.38282,2.34765 1.44461,0.82017 2.87068,1.67908 4.27929,2.57422 4.7e-4,3e-4 0.001,-2.9e-4 0.002,0 1.40815,0.89488 2.79698,1.82718 4.16601,2.79688 4.4e-4,3.1e-4 0.002,-3.1e-4 0.002,0 1.36905,0.96973 2.71814,1.97899 4.04493,3.02344 1.3272,1.04477 2.63228,2.12667 3.91406,3.24609 3.7e-4,3.3e-4 0.002,-3.3e-4 0.002,0 1.28141,1.11913 2.5386,2.27512 3.77149,3.46875 1.23322,1.19396 2.44151,2.42692 3.62304,3.69531 0.91999,0.98763 1.81782,1.99296 2.69336,3.01563 3.50219,4.09064 6.64765,8.45319 9.42383,13.0332 7.63449,12.59504 12.47805,26.82671 14.28125,41.50781 1.08461,8.83268 0.75586,17.89842 0.75586,26.79297 0.98471,0.0804 1.97411,0.20006 2.96875,0.35156 6.4e-4,1e-4 10e-4,-9e-5 0.002,0 0.17972,0.0274 0.36105,0.0682 0.54102,0.0977 0.84513,0.13811 1.6917,0.28736 2.54101,0.46484 1.93315,0.40397 3.87473,0.89878 5.81055,1.42969 4.04821,1.11045 8.0726,2.37952 11.95313,3.32227 5.9e-4,1.4e-4 0.001,-1.5e-4 0.002,0 1.39558,0.33879 3.30041,0.57416 5.14063,0.9375 0.86952,0.17176 1.7241,0.37356 2.5039,0.6289 0.43963,0.14388 0.85531,0.30345 1.23633,0.48633 0.34155,0.16405 0.65965,0.34462 0.9375,0.54688 0.16179,0.11779 0.30426,0.33786 0.42969,0.63281 10e-4,0.003 0.003,0.003 0.004,0.006 0.001,0.004 0.002,0.008 0.004,0.0117 0.1245,0.29751 0.23176,0.66918 0.32031,1.09375 0.17879,0.85721 0.28434,1.92343 0.31836,3 5e-5,0.001 -4e-5,0.003 0,0.004 2e-5,6.6e-4 -2e-5,10e-4 0,0.002 0.0338,1.0773 -0.004,2.16438 -0.11328,3.06054 -0.10885,0.89674 -0.28793,1.60339 -0.53711,1.91797 -0.36932,0.46624 -1.09956,0.59898 -1.86719,0.61524 -0.76762,0.0163 -1.57261,-0.084 -2.09375,-0.084 h -11.57617 -32.97266 -14 -12.00195 -89.10156 -24.81836 -66.5957 V 292.9668 l 0.52929,-4.29102 4.43164,-0.33984 h 11.90821 c 0,-4.50175 -0.0819,-9.03778 -0.0566,-13.56641 0.002,-0.34117 -0.001,-0.68234 0.002,-1.02344 0.0222,-2.28792 0.077,-4.57415 0.19336,-6.85351 0.005,-0.0951 0.0106,-0.19012 0.0156,-0.28516 0.12569,-2.35909 0.31427,-4.70959 0.60157,-7.04883 8e-5,-6.4e-4 -8e-5,-10e-4 0,-0.002 0.2136,-1.73896 0.47423,-3.46884 0.77539,-5.1875 0.0167,-0.0951 0.0339,-0.19013 0.0508,-0.28516 0.29755,-1.67024 0.63481,-3.32956 1.01367,-4.97851 0.0217,-0.0945 0.0444,-0.18875 0.0664,-0.2832 0.39416,-1.69359 0.82816,-3.37604 1.30664,-5.04493 0.492,-1.71606 1.02789,-3.41973 1.60742,-5.10742 0.55899,-1.62788 1.16188,-3.24047 1.80078,-4.83984 0.0477,-0.11934 0.0964,-0.23825 0.14453,-0.35742 0.6266,-1.55207 1.28966,-3.0902 1.99024,-4.61328 0.0388,-0.0844 0.0762,-0.16955 0.11523,-0.25391 0.70397,-1.51997 1.44629,-3.02462 2.22266,-4.51367 0.0622,-0.1193 0.12484,-0.23833 0.1875,-0.35742 0.80403,-1.52816 1.6425,-3.03991 2.52148,-4.53321 1.21761,-2.06869 2.52587,-4.08763 3.91016,-6.05469 0.0519,-0.0737 0.10415,-0.14713 0.15625,-0.2207 1.37519,-1.942 2.82628,-3.83401 4.34375,-5.66992 0.0133,-0.0161 0.0258,-0.0328 0.0391,-0.0488 3.1e-4,-3.8e-4 -3.2e-4,-0.002 0,-0.002 0.0156,-0.0188 0.0332,-0.0359 0.0488,-0.0547 1.5159,-1.82885 3.09717,-3.60146 4.73437,-5.31836 0.0715,-0.075 0.14312,-0.14983 0.21485,-0.22461 1.65732,-1.72777 3.36917,-3.39886 5.1289,-5.00586 1.25502,-1.14611 2.53304,-2.25308 3.83203,-3.32422 0.0493,-0.0406 0.0991,-0.0806 0.14844,-0.12109 1.24699,-1.02426 2.51419,-2.01332 3.79883,-2.96875 0.10985,-0.0817 0.21996,-0.16294 0.33008,-0.24414 1.25855,-0.92803 2.53433,-1.82317 3.82617,-2.68555 0.11523,-0.0769 0.23022,-0.15407 0.3457,-0.23047 1.2897,-0.85322 2.59593,-1.67276 3.91602,-2.46093 0.11938,-0.0713 0.2378,-0.1441 0.35742,-0.21485 1.32575,-0.78408 2.6659,-1.53507 4.01953,-2.2539 0.12171,-0.0646 0.24331,-0.12926 0.36524,-0.19336 1.35351,-0.71166 2.72095,-1.39038 4.09961,-2.03711 0.1229,-0.0577 0.24604,-0.11474 0.36914,-0.17188 1.42696,-0.66238 2.86544,-1.29162 4.3164,-1.88476 0.0378,-0.0155 0.0754,-0.0315 0.11328,-0.0469 1.45156,-0.59134 2.91586,-1.14577 4.38868,-1.66797 0.12634,-0.0448 0.25241,-0.0905 0.3789,-0.13476 1.49322,-0.52282 2.99578,-1.01283 4.50781,-1.46485 1.57627,-0.47121 3.16223,-0.90445 4.75586,-1.29882 1.59364,-0.39438 3.19487,-0.75072 4.80274,-1.06836 1.59946,-0.31599 3.20401,-0.59383 4.81445,-0.83399 0.0162,-0.002 0.0326,-0.003 0.0488,-0.006 1.61125,-0.2395 3.22853,-0.44174 4.84766,-0.60547 1.62691,-0.16451 3.25694,-0.29079 4.88867,-0.3789 1.63172,-0.0881 3.26504,-0.13858 4.89844,-0.15039 z m 2.20312,16.23828 c -1.28742,0.006 -2.57192,0.0518 -3.85156,0.13476 -0.0788,0.005 -0.15753,0.0102 -0.23633,0.0156 -1.27954,0.0879 -2.55451,0.21237 -3.82227,0.38086 -2.30117,0.30587 -4.58355,0.67002 -6.8457,1.09375 -0.10172,0.019 -0.20306,0.0393 -0.30469,0.0586 -2.26224,0.4297 -4.50479,0.9182 -6.71875,1.47852 -2.21749,0.56121 -4.4062,1.19411 -6.5664,1.89843 -0.0848,0.0276 -0.16922,0.0561 -0.25391,0.084 -2.14958,0.70749 -4.2699,1.4857 -6.35351,2.34766 -0.0235,0.01 -0.0469,0.0196 -0.0703,0.0293 -2.10884,0.87455 -4.18078,1.83161 -6.21289,2.87696 -0.0244,0.0125 -0.0479,0.0265 -0.0723,0.0391 -2.00769,1.03538 -3.97661,2.1586 -5.90039,3.37304 -1.01764,0.64241 -2.02335,1.30689 -3.01563,2.00196 -1.91943,1.3445 -3.78998,2.79052 -5.60742,4.3418 -0.9093,0.77613 -1.8055,1.5779 -2.6875,2.4082 -1.76544,1.66183 -3.47562,3.37274 -5.12109,5.14453 -0.87575,0.94312 -1.73501,1.90211 -2.57032,2.88281 -0.80156,0.94109 -1.58343,1.90115 -2.34375,2.88086 -0.38619,0.49767 -1.11294,1.29343 -1.68359,2.13867 -0.28533,0.42263 -0.53185,0.85792 -0.67774,1.27344 -0.0729,0.20777 -0.11989,0.41123 -0.13476,0.60547 -0.0149,0.19423 0.004,0.37986 0.0625,0.55273 0.0865,0.25496 0.23632,0.50844 0.43555,0.76172 0.19922,0.25328 0.44795,0.50574 0.73242,0.75391 0.56894,0.49633 1.2806,0.97833 2.02539,1.43359 1.4895,0.91025 3.11046,1.71161 3.98242,2.29297 0.64291,0.42861 1.52509,1.15429 2.41602,1.81836 0.66414,0.49336 1.34549,0.96576 2.01562,1.2832 0.52739,0.24983 1.0398,0.40595 1.50977,0.4043 0.44474,-0.002 0.89775,-0.24172 1.34375,-0.61914 0.44599,-0.37742 0.88317,-0.89154 1.29882,-1.44531 3.3e-4,-4.4e-4 -3.2e-4,-0.002 0,-0.002 0.0435,-0.058 0.0664,-0.0975 0.10938,-0.15625 0.7781,-1.06268 1.48918,-2.2428 1.98242,-2.82617 0.97884,-1.15763 1.98924,-2.27817 3.0293,-3.36523 0.0761,-0.0795 0.15208,-0.15913 0.22851,-0.23828 1.00507,-1.0409 2.03937,-2.04837 3.10352,-3.02344 0.0792,-0.0725 0.15879,-0.14464 0.23828,-0.2168 1.11213,-1.00963 2.25485,-1.98603 3.43359,-2.92383 1.21967,-0.97035 2.47583,-1.90204 3.76954,-2.79492 1.73614,-1.19816 3.52009,-2.30453 5.34375,-3.32031 0.0415,-0.0231 0.0835,-0.0453 0.125,-0.0684 1.80185,-0.99853 3.64306,-1.90757 5.51757,-2.72852 0.0462,-0.0202 0.0924,-0.0404 0.13868,-0.0605 1.8735,-0.81542 3.77942,-1.5432 5.71289,-2.18164 0.05,-0.0165 0.1003,-0.0324 0.15039,-0.0488 1.95923,-0.64185 3.94532,-1.19575 5.95312,-1.65625 2.00191,-0.45915 4.02487,-0.82453 6.0625,-1.10352 0.0638,-0.009 0.12759,-0.0168 0.19141,-0.0254 2.03905,-0.27341 4.09245,-0.46142 6.15429,-0.55468 2.09389,-0.0947 4.19644,-0.0968 6.30079,-0.006 2.10435,0.0909 4.21083,0.27623 6.3125,0.55273 1.55486,0.20455 3.11949,0.47565 4.6875,0.81055 6.2e-4,1.3e-4 10e-4,-1.4e-4 0.002,0 1.56739,0.33481 3.13716,0.73237 4.69922,1.1914 6e-4,1.8e-4 0.001,-1.7e-4 0.002,0 1.56207,0.45909 3.11603,0.97937 4.6543,1.55664 5.7e-4,2.2e-4 0.001,-2.1e-4 0.002,0 1.53827,0.57733 3.06064,1.21285 4.55664,1.90235 1.49655,0.68975 2.96658,1.4345 4.40235,2.23047 1.43576,0.79597 2.83685,1.6429 4.19335,2.53906 1.35651,0.89616 2.66898,1.84171 3.92774,2.83203 1.25803,0.98975 2.46351,2.02574 3.60547,3.10352 6.6e-4,6.2e-4 10e-4,0.001 0.002,0.002 1.60713,1.51715 3.17595,3.02893 4.67969,4.60351 0.75187,0.7873 1.48717,1.58951 2.20312,2.41602 0.0169,0.0195 0.0319,0.041 0.0488,0.0606 0.69819,0.80813 1.37965,1.63848 2.03711,2.5 0.41159,0.53954 0.89957,1.3768 1.49024,2.0332 0.29517,0.32803 0.61663,0.61127 0.96679,0.78906 0.35133,0.17839 0.73096,0.25161 1.14453,0.15821 0.88502,-0.1998 1.83363,-0.75006 2.74805,-1.375 0.91435,-0.62481 1.7944,-1.32404 2.54297,-1.82618 0.70064,-0.46993 2.07419,-1.2175 3.36328,-1.97851 1.04255,-0.61881 2.08024,-1.27496 2.85156,-1.96485 0.2916,-0.26081 0.54356,-0.52242 0.74024,-0.7832 0.19668,-0.26078 0.3392,-0.52023 0.41015,-0.77539 0.0563,-0.2024 0.0628,-0.42211 0.0293,-0.6543 -9e-5,-6e-4 9e-5,-10e-4 0,-0.002 -2.7e-4,-0.002 -0.002,-0.004 -0.002,-0.006 -0.034,-0.2299 -0.10626,-0.47204 -0.20899,-0.7207 -0.20569,-0.4979 -0.53301,-1.02145 -0.90039,-1.5332 -0.004,-0.006 -0.006,-0.0121 -0.01,-0.0176 -0.0195,-0.027 -0.035,-0.0414 -0.0547,-0.0684 -0.73373,-1.00573 -1.61432,-1.95331 -2.06641,-2.52149 -0.99368,-1.24905 -2.01871,-2.47172 -3.07422,-3.66406 -1.03472,-1.16886 -2.10147,-2.30658 -3.19726,-3.41601 -0.022,-0.0223 -0.0424,-0.0461 -0.0645,-0.0684 -0.022,-0.0223 -0.0444,-0.0442 -0.0664,-0.0664 -1.0983,-1.10696 -2.22759,-2.18411 -3.38867,-3.22656 -1.18439,-1.06338 -2.40091,-2.09286 -3.65235,-3.08399 -1.60911,-1.27432 -3.30016,-2.48974 -5.03125,-3.66992 -0.26842,-0.183 -0.52965,-0.37022 -0.80078,-0.55078 -1.67674,-1.11663 -3.4081,-2.17911 -5.17968,-3.19531 -0.31438,-0.18035 -0.62822,-0.35819 -0.94532,-0.53516 -1.79501,-1.00175 -3.62672,-1.95142 -5.5,-2.83789 -0.27646,-0.13084 -0.556,-0.25267 -0.83398,-0.38086 -1.94258,-0.8957 -3.91246,-1.7416 -5.91992,-2.5 -0.0645,-0.0244 -0.1288,-0.048 -0.19336,-0.0723 -2.14688,-0.8054 -4.32623,-1.52736 -6.52735,-2.16016 -0.0905,-0.026 -0.1809,-0.0505 -0.27148,-0.0762 -2.21808,-0.62969 -4.45696,-1.17345 -6.70899,-1.61133 -0.0794,-0.0154 -0.15883,-0.0297 -0.23828,-0.0449 -0.98618,-0.1886 -1.97508,-0.35246 -2.96484,-0.50196 -0.17719,-0.0268 -0.35398,-0.0565 -0.53125,-0.082 -0.9777,-0.14056 -1.95631,-0.25848 -2.93555,-0.35937 -0.23312,-0.024 -0.46606,-0.0466 -0.69922,-0.0684 -1.00012,-0.0932 -2.0004,-0.16863 -3,-0.21875 -0.15184,-0.008 -0.30327,-0.011 -0.45507,-0.0176 -1.06728,-0.0464 -2.13296,-0.0749 -3.19727,-0.0703 z m 82.39648,0.39258 h 12.9004 l 4.76171,0.33984 0.5293,5.61328 -0.33008,17.20117 h -0.33008 l -10.6289,-14.88476 z M 247.44727,322.40625 h 29.62304 c -2.13755,2.94103 -8.63838,4.81551 -11.9082,6.42578 -6.63428,3.26751 -13.25344,6.57494 -19.84766,9.92383 -0.0328,0.0167 -0.0667,0.0379 -0.0996,0.0547 -1.77525,0.90697 -3.61139,1.98384 -5.48828,2.96875 -0.0256,0.0134 -0.0505,0.0276 -0.0762,0.041 -0.003,10e-4 -0.005,0.003 -0.008,0.004 -0.0357,0.0187 -0.0717,0.0361 -0.10742,0.0547 -0.94088,0.48914 -1.89059,0.95186 -2.84766,1.35351 -0.97749,0.41022 -1.961,0.75877 -2.94922,1.00586 -0.78463,-1.67732 -1.60803,-3.43045 -2.42773,-5.22851 -2.5e-4,-5.4e-4 2.4e-4,-10e-4 0,-0.002 -0.81996,-1.79864 -1.63807,-3.64267 -2.41016,-5.50195 -0.75727,-1.82359 -1.4674,-3.66173 -2.09961,-5.48633 -0.0208,-0.06 -0.0419,-0.11976 -0.0625,-0.17969 -0.62835,-1.82832 -1.17441,-3.64177 -1.5957,-5.41211 -0.002,-0.006 -0.004,-0.0131 -0.006,-0.0195 h 22.31055 c 1.4e-4,-5.5e-4 -1.5e-4,-0.001 0,-0.002 z m -108.25,150.86523 c 11.6993,-0.0733 22.72027,1.11053 32.40429,3.61133 20.14832,5.10811 31.49832,11.63446 47.67383,27.66797 19.4389,19.29702 27.24403,35.33062 29.23047,60.44531 1.70268,21.56716 -3.83165,40.29798 -17.02734,57.04102 -11.20937,14.1891 -25.96627,24.97147 -51.22266,37.17383 -42.99262,20.99992 -95.065789,31.0746 -140.044922,27.10156 -49.3776655,-4.39858 -76.47864,-10.78416 -126.84961,-29.93945 -20.857828,-7.9457 -70.093748,-30.78944 -70.093748,-32.49219 0,-0.42652 5.5337,-2.41122 12.48633,-4.25586 23.69562,-6.52702 40.58005,-14.19019 72.789059,-33.62891 17.878121,-10.64175 34.480591,-23.12821 59.878906,-45.12109 37.175157,-31.92533 61.721572,-47.53238 89.673828,-57.03906 20.219339,-6.82851 41.602787,-10.44249 61.101567,-10.56446 z m 174.91992,60.63868 c 0.0786,-0.0609 0.15355,-0.0609 0.22461,0.01 0.56764,0.56803 1.704,5.67585 2.69726,11.35156 2.27018,14.61461 1.98621,24.26397 -1.27734,40.01368 -11.49313,56.61407 -48.81122,99.32363 -108.54688,124.15429 -23.12806,9.64842 -80.3093,25.39773 -82.86328,22.84375 -1.41887,-1.41906 17.02644,-18.16279 28.51953,-25.96679 5.67561,-3.83093 20.57428,-12.91189 33.06055,-20.14844 28.66182,-16.74285 46.11493,-29.22788 72.22266,-51.64649 26.9591,-23.26987 51.93165,-65.55451 54.34375,-92.08789 0.37249,-4.59171 1.0702,-8.09591 1.61914,-8.52343 z M 76.535156,762.93164 c 3.689159,-0.14135 3.973653,0.14172 2.980469,3.68945 v 0.002 c -0.567647,2.27013 -1.278695,4.25544 -1.5625,4.53906 -0.567647,0.70953 -30.646746,-3.83107 -31.498047,-4.82422 -0.283842,-0.28309 4.539372,-0.84994 10.640625,-1.41797 6.101367,-0.42656 12.060207,-1.13584 13.195313,-1.27734 1.135067,-0.28309 3.973891,-0.56943 6.24414,-0.71094 z"
       transform="scale(0.26458333)"
       sodipodi:nodetypes="sssssssssssssssscssssssssssssssssscsccssssccsscsscssssscccccsccsssssssssscsccscscscsccccccccccccsccccsccsscccscsccccccsccccccsccccccccsccccccccccccsccccsccccccccscsssssssscscssssssccsscssscscsccsssssssscscssscscssssssssscssscscsscscscscscsscscsscssssccscsscscsssssscssscsssscccccccccccscscscssscsssssssssssssccsssscssssssscsssssssssscsssssssscsscscscsssccsssssssscscssssccsssssssscscsssscsssscscscssssscssccssssscssssscsssccssscssssssscssscssssssssscccccccccccscssscscscsscscccccccccccsccccccccccsccccccccccccc" />
  </g>
</svg>
