<?xml version="1.0" encoding="UTF-8" standalone="no"?>
<!-- Created with Inkscape (http://www.inkscape.org/) -->

<svg
   width="77.769768mm"
   height="55.86742mm"
   viewBox="0 0 77.769768 55.86742"
   version="1.1"
   id="svg1741"
   inkscape:version="1.1 (c68e22c387, 2021-05-23)"
   sodipodi:docname="euro.svg"
   xmlns:inkscape="http://www.inkscape.org/namespaces/inkscape"
   xmlns:sodipodi="http://sodipodi.sourceforge.net/DTD/sodipodi-0.dtd"
   xmlns="http://www.w3.org/2000/svg"
   xmlns:svg="http://www.w3.org/2000/svg">
  <sodipodi:namedview
     id="namedview1743"
     pagecolor="#ffffff"
     bordercolor="#666666"
     borderopacity="1.0"
     inkscape:pageshadow="2"
     inkscape:pageopacity="0.0"
     inkscape:pagecheckerboard="0"
     inkscape:document-units="mm"
     showgrid="false"
     fit-margin-top="0"
     fit-margin-left="0"
     fit-margin-right="0"
     fit-margin-bottom="0"
     inkscape:zoom="0.52410025"
     inkscape:cx="258.53833"
     inkscape:cy="-63.91907"
     inkscape:window-width="1920"
     inkscape:window-height="1017"
     inkscape:window-x="-8"
     inkscape:window-y="32"
     inkscape:window-maximized="1"
     inkscape:current-layer="layer1" />
  <defs
     id="defs1738" />
  <g
     inkscape:label="Layer 1"
     inkscape:groupmode="layer"
     id="layer1"
     transform="translate(-45.327427,-152.6216)">
    <path
       style="fill:#ffffff;fill-opacity:1;stroke:none;stroke-width:0.0846667"
       d="m 79.842526,193.37773 h 0.08467 c 0.03192,1.54592 0.801286,3.03894 2.286,3.6714 2.378965,1.01346 5.435347,-0.65007 5.502064,-3.33274 0.03878,-1.55829 -0.712809,-3.14401 -2.200063,-3.81813 -2.237487,-1.01413 -5.388018,0.32656 -5.503334,2.97147 -0.364151,-1.23199 0.129286,-3.0447 0.24765,-4.318 0.05461,-0.58751 0.03175,-1.26518 0.356277,-1.778 1.086274,-1.71594 3.561927,-2.17551 5.238073,-1.10389 2.066714,1.32148 1.938528,4.24637 2.035302,6.43789 0.15494,3.50731 0.940478,6.99126 1.094063,10.49866 0.06265,1.43078 -0.05275,3.86326 0.952669,4.99195 1.359324,1.52595 3.994997,1.00313 4.658868,-0.92795 0.268563,-0.78113 0.08797,-1.57658 -0.0071,-2.37066 -0.144949,-1.21091 -0.232664,-2.43002 -0.376004,-3.64067 -0.486072,-4.10676 -0.78359,-8.24603 -1.175512,-12.36133 -0.398018,-4.17924 -0.976461,-8.34314 -1.263142,-12.53067 -0.136483,-1.99204 -0.366014,-4.03081 -0.609262,-6.01133 -0.07493,-0.61045 -0.491998,-2.05131 -0.213106,-2.60113 0.232749,-0.45898 1.240198,-0.49335 1.67657,-0.60977 1.526286,-0.40699 3.056382,-0.8669 4.572,-1.3136 4.201161,-1.23825 8.397321,-2.46558 12.615341,-3.6394 2.02768,-0.5643 4.04114,-1.30564 6.096,-1.75997 1.13894,-0.25179 2.26754,-0.66311 3.38667,-0.99508 0.84446,-0.25045 1.7785,-0.37262 2.54,-0.84921 1.13825,-0.71238 1.45254,-2.15282 1.15349,-3.38717 -0.39717,-1.63957 -2.30344,-2.25053 -3.77816,-1.86911 -4.20099,1.08636 -8.30504,2.59859 -12.53068,3.60503 -4.98568,1.18745 -9.993625,2.77943 -14.901328,4.26694 -1.517565,0.46 -3.05943,0.8526 -4.572,1.32148 -1.014815,0.31471 -2.241296,0.88392 -3.302,0.94742 -0.581322,0.0347 -1.215814,-0.35289 -1.778,-0.4815 -1.993816,-0.45601 -3.973576,-1.13995 -5.926667,-1.74955 -5.444829,-1.69943 -10.968736,-3.16213 -16.425333,-4.82626 -2.358983,-0.71941 -4.746837,-1.36203 -7.112001,-2.06417 -1.179745,-0.35026 -2.423752,-0.89687 -3.640666,-1.07222 -1.4811,-0.21344 -2.934056,0.32826 -3.47395,1.83727 -1.382623,3.86461 4.034612,4.36228 6.437283,5.17643 6.118945,2.07341 12.467506,3.49657 18.626667,5.46244 1.513332,0.48303 3.053503,0.88587 4.572,1.35433 0.421894,0.13013 1.353397,0.14504 1.598761,0.57294 0.31877,0.55601 -0.156041,1.94928 -0.159343,2.58919 -0.01473,2.82042 -0.551519,5.7437 -0.832443,8.55133 -0.671576,6.71212 -1.173141,13.45176 -1.974765,20.15067 -0.215561,1.80128 -0.303107,3.61433 -0.519007,5.41867 -0.108542,0.90686 -0.396155,2.18296 -0.0057,3.04799 0.935143,2.07171 4.208949,2.32283 5.05062,0 0.548048,-1.51256 0.430954,-3.32773 0.581576,-4.91066 0.271441,-2.85276 0.550418,-5.71331 0.91694,-8.55133 z"
       id="path8242" />
  </g>
</svg>
