<?xml version="1.0" encoding="UTF-8" standalone="no"?>
<!-- Created with Inkscape (http://www.inkscape.org/) -->

<svg
   width="200.05231mm"
   height="169.00999mm"
   viewBox="0 0 200.05231 169.00999"
   version="1.1"
   id="svg5"
   inkscape:version="1.1 (c68e22c387, 2021-05-23)"
   sodipodi:docname="stugg.svg"
   xmlns:inkscape="http://www.inkscape.org/namespaces/inkscape"
   xmlns:sodipodi="http://sodipodi.sourceforge.net/DTD/sodipodi-0.dtd"
   xmlns="http://www.w3.org/2000/svg"
   xmlns:svg="http://www.w3.org/2000/svg">
  <sodipodi:namedview
     id="namedview7"
     pagecolor="#ffffff"
     bordercolor="#666666"
     borderopacity="1.0"
     inkscape:pageshadow="2"
     inkscape:pageopacity="0.0"
     inkscape:pagecheckerboard="0"
     inkscape:document-units="mm"
     showgrid="false"
     fit-margin-top="0"
     fit-margin-left="0"
     fit-margin-right="0"
     fit-margin-bottom="0"
     inkscape:zoom="0.26205012"
     inkscape:cx="1013.165"
     inkscape:cy="1188.7039"
     inkscape:window-width="1920"
     inkscape:window-height="1017"
     inkscape:window-x="-8"
     inkscape:window-y="32"
     inkscape:window-maximized="1"
     inkscape:current-layer="layer1" />
  <defs
     id="defs2" />
  <g
     inkscape:label="Layer 1"
     inkscape:groupmode="layer"
     id="layer1"
     transform="translate(-407.72263,-78.93011)">
    <path
       id="path854"
       style="fill:#ffffff;stroke:none;stroke-width:0.32;fill-opacity:1"
       d="m 1931.166,298.3418 c -0.8343,-0.0472 -1.661,-0.0261 -2.4746,0.0957 v 0 c -4.6497,0.69568 -3.1682,7.31344 -3.709,10.7832 -1.6992,10.91072 -3.3435,22.17979 -5.7051,32.95899 -2.0704,9.4288 -3.1525,18.99023 -4.8613,28.48047 -4.1153,22.81312 -8.3026,45.62668 -12.1426,68.48046 -1.6384,9.72896 -3.3629,19.41547 -5.1133,29.11915 -0.5952,3.30463 0.066,9.0641 -1.7129,11.83593 -2.9152,4.5351 -13.5202,3.61523 -18.2754,4.25586 -1.8144,0.2445 -3.9267,1.01949 -5.7539,0.8086 -2.752,-0.31714 -1.9107,-4.22275 -1.418,-6.01954 2.0001,-7.24062 3.1442,-14.68297 4.4786,-22.08007 4.4864,-24.87999 8.0241,-50.22519 13.6113,-74.88086 1.3344,-5.88737 1.4788,-12.206 3.498,-17.91992 0.6306,-1.78593 1.9132,-5.00225 -0.064,-6.39649 -1.696,-1.19616 -4.7039,-0.64258 -6.6719,-0.64258 h -16.6387 -63.041 -179.8398 -56 -17.2793 c -2.8563,0 -5.8422,-0.54848 -8.6406,0.16992 -3.1079,0.79776 -2.296,4.6733 -2.2344,7.18946 0.1852,7.56832 0.3144,15.11108 0.3144,22.7207 v 96 332.47852 c 0,27.408 0.3243,54.83544 0,82.24023 -0.08,6.72 -0.3184,13.44976 -0.3184,20.16016 0,1.97121 -0.7485,5.94066 0.8867,7.40625 1.0253,0.92175 2.9708,0.59375 4.2344,0.59375 3.3165,0 6.5955,0.32031 9.9199,0.32031 12.601,0 25.1617,1.59961 37.7598,1.59961 7.3417,0 14.7444,0.94745 22.0801,1.26758 12.1731,0.53438 24.3256,0.75199 36.4804,1.58398 13.1956,0.9024 26.4858,0.43549 39.6797,1.33789 13.5588,0.92799 27.367,2.21094 40.959,2.21094 13.3376,0 26.6688,1.27696 40,1.60352 3.5552,0.0896 11.0312,2.57666 13.5528,-0.67774 1.9681,-2.544 1.8304,-7.16509 2.2656,-10.20508 1.0496,-7.32801 2.6176,-14.81926 4.1152,-22.08008 3.6064,-17.50718 6.4695,-35.20076 9.6406,-52.80078 2.1153,-11.7216 4.7658,-23.42323 6.545,-35.19922 1.504,-9.96801 3.7528,-19.81416 5.3496,-29.75976 0.5408,-3.37603 0.054,-9.02131 3.0429,-11.3125 1.7121,-1.31199 4.0201,-1.16797 6.0489,-1.16797 4.3712,0 8.7671,0.0295 13.1191,0.34961 2.352,0.1728 6.2633,1.30177 7.1113,3.81055 0.5056,1.4976 -0.6564,3.59912 -0.8964,5.11914 -0.7713,4.92158 -2.0506,9.77028 -2.6426,14.7207 -2.9984,24.96318 -8.8071,49.71575 -12.7207,74.56055 -1.0944,6.94401 -2.4802,13.94443 -4.0098,20.79883 -0.416,1.86561 -1.5668,5.84786 0.7148,6.95507 2.2528,1.09455 7.3344,0.0859 9.8848,0.0859 h 24.959 88.6406 237.1192 c 26.3808,0 53.0541,1.16372 79.3613,0.0117 6.5856,-0.28649 13.2479,-0.0117 19.8398,-0.0117 3.2385,0 7.0883,0.34172 10.2403,-0.45508 1.9296,-0.48638 2.5456,-2.20781 2.5488,-4.02539 0.01,-4.4736 -0.8156,-8.90186 -0.6172,-13.43945 0.8321,-19.03363 0.3086,-38.21244 0.3086,-57.28125 V 581.86133 415.46094 370.66016 c 0,-4.06304 0.2995,-8.11856 0.3184,-12.16016 0.01,-1.4 0.3654,-3.47735 -0.377,-4.73047 -1.024,-1.72992 -4.2167,-2.16146 -6.0215,-2.33203 -5.0527,-0.47776 -10.0554,-1.20225 -15.041,-2.13281 -21.68,-4.04704 -43.782,-6.2712 -65.5996,-9.5 -66.112,-9.78528 -132.1348,-20.67997 -198.4004,-29.39453 -20.0928,-2.64224 -40.0385,-6.51096 -60.1601,-8.91993 -4.2432,-0.50815 -8.6005,-1.0156 -12.7989,-1.80664 -2.3832,-0.44928 -4.9424,-1.20013 -7.4453,-1.34179 z m 217.127,102.44726 c 0.7015,-0.0784 1.4218,-0.0658 2.1562,0.0527 4.2752,0.68991 6.4308,6.18574 7.2852,9.81836 1.8624,7.88961 -0.9194,14.76517 -2.3594,22.40039 -0.5472,2.90687 -1.7321,5.98845 -1.1465,8.96093 1.3344,6.76415 10.3089,11.68821 5.832,18.5586 -2.0191,3.10242 -5.0223,5.48128 -7.0351,8.64062 -6.2016,9.74499 -10.9684,20.82595 -14.834,31.67969 -2.2944,6.4464 -1.7992,13.45104 -4.1992,19.83984 -2.8864,7.69214 -8.5122,13.604 -11.5586,21.1211 -3.6736,9.07139 -5.4237,19.05804 -7.9805,28.47851 -2.0864,7.68575 -5.3956,15.21989 -8.0644,22.72071 -3.6288,10.1952 -7.6665,20.218 -11.3145,30.40039 -2.4738,6.89922 -5.0811,12.54063 -2.4219,19.83984 4.96,13.59678 21.132,21.04329 32.5176,28.38086 8.3424,5.376 15.9046,11.53313 24.6406,16.32031 14.6337,8.01922 30.2485,14.09169 44.7989,22.3125 9.8528,5.568 19.0315,12.13834 29.1211,17.28711 3.1488,1.60642 6.1148,3.82741 9.5996,4.69141 13.5552,3.35671 28.0828,-2.93078 41.5996,0.36523 8.3456,2.0352 17.8349,11.26957 12.9453,20.40235 -1.0848,2.0256 -2.8234,3.58492 -4.625,4.96093 -11.2128,8.55999 -25.2126,4.11177 -37.7598,2.17579 -5.9328,-0.91839 -11.4648,-0.1712 -17.2793,-2.13282 -6.2463,-2.1024 -10.8112,-5.7117 -17.6015,-6.51172 -6.2816,-0.74237 -12.6837,-0.50902 -18.8789,-1.97461 -12.1856,-2.8896 -23.6859,-8.48557 -35.5196,-12.51757 -11.7471,-3.99999 -24.123,-7.42329 -35.5214,-12.29688 -6.7392,-2.88 -12.4793,-7.67111 -19.1993,-10.41992 -4.7104,-1.92317 -9.8951,-2.75134 -14.7207,-4.37695 -16.7456,-5.63199 -34.1986,-11.02452 -50.2402,-18.44532 -8.6048,-3.98082 -16.2393,-10.76423 -25.2793,-13.74023 -6.7584,-2.22399 -14.4219,-1.97796 -21.4395,-2.85156 -8.3583,-1.04002 -16.4326,-3.36393 -24.6406,-5.13672 -5.4336,-1.17441 -10.7456,-2.93722 -16,-4.73242 -2.9376,-1.00479 -5.431,-2.68154 -8.6406,-1.91993 3.9936,6.49599 7.7761,12.10834 10.0098,19.51954 6.8448,22.72637 2.2469,46.02988 4.4453,69.12109 0.6559,6.9024 -0.5882,14.72905 1.3222,21.43945 0.9216,3.24163 4.4928,7.02702 2.6016,10.55664 -1.3792,2.56959 -4.9864,4.33313 -7.8184,4.47071 -7.7919,0.38094 -15.2342,-0.63747 -23.039,0.67773 -4.784,0.8064 -10.1002,3.9013 -15.041,2.17969 -7.6192,-2.65278 3.5012,-9.51945 6.4004,-11.28906 3.8848,-2.36478 8.1828,-3.89882 12.4804,-5.31641 2.3585,-0.7776 5.0243,-1.36304 6.2051,-3.83984 0.8096,-1.70242 -0.6469,-4.33606 -1.0469,-6.08008 -1.1168,-4.85118 -1.7505,-9.83235 -2.7265,-14.71875 -2.0992,-10.512 -6.3132,-20.6026 -8.3164,-31.04102 -1.824,-9.50721 -1.2898,-19.41324 -3.1075,-28.79883 -0.9408,-4.8768 -4.9053,-8.57995 -7.2285,-12.80078 -3.264,-5.92637 -4.7108,-12.73977 -7.9492,-18.56054 -1.792,-3.21922 -4.5888,-5.8134 -6.5312,-8.95899 -2.672,-4.3296 -3.8175,-9.08808 -4.4063,-14.08008 -1.1232,-9.4752 1.5879,-20.34318 5.7031,-28.80078 1.3856,-2.8512 2.982,-5.2925 5.0684,-7.67969 0.816,-0.93441 2.4124,-2.58582 2.1308,-3.9746 -0.3072,-1.54243 -2.3385,-2.70754 -3.3945,-3.71875 -2.4864,-2.37759 -4.7716,-4.91112 -6.3652,-7.98633 -7.536,-14.54657 -7.4973,-38.58117 10.2051,-45.66211 3.4047,-1.36377 7.2693,-1.37891 10.8789,-1.37891 3.4303,0 7.2197,-0.37939 10.5605,0.57422 5.3184,1.51809 9.7335,6.34853 12.4727,10.94727 1.9808,3.32383 2.5776,6.84978 3.416,10.55859 0.2208,0.97599 0.3711,3.334 1.5039,3.73047 1.2256,0.4275 4.4577,-3.25713 5.3281,-4.04883 4.0608,-3.69982 9.0417,-5.74992 14.3985,-6.7832 6.6432,-1.2816 12.0965,0.71647 18.5605,1.00976 4.672,0.21154 9.091,-1.85107 13.7598,-1.90625 6.944,-0.0825 13.6292,1.86133 20.4804,1.86133 5.424,0 9.283,-2.43959 13.7598,-5.12695 6.3552,-3.81536 13.5562,-8.17501 17.9082,-14.33594 2.9248,-4.14433 3.1584,-9.20498 7.0527,-12.74609 4.5249,-4.11232 13.9865,-11.41295 20.1465,-6.02735 2.0672,1.80802 1.5236,3.91376 0.9317,6.29297 -1.2225,4.90942 -5.9335,8.75597 -8.0039,13.44141 -1.488,3.3696 -2.0357,7.14968 -4.0997,10.24023 -1.6831,2.51615 -4.2752,4.31501 -6.416,6.4043 -2.8512,2.78177 -5.286,5.92658 -7.8652,8.95508 -7.9168,9.29185 -15.5781,19.21967 -28.2949,21.34765 -7.1072,1.18972 -15.5476,2.17842 -22.7188,1.23633 -2.1247,-0.27908 -7.8119,-1.55103 -9.4023,0.30078 -1.888,2.19712 4.5055,8.01158 5.8847,9.43555 5.7152,5.88801 11.0367,11.75927 18.5567,15.42969 2.352,1.14561 5.6291,3.10767 8.3203,2.17968 4.6944,-1.61601 8.0287,-6.54122 10.9727,-10.25 6.8511,-8.63682 12.7237,-18.04757 19.3476,-26.88085 4.752,-6.34209 11.9236,-10.77148 16.2852,-17.2793 3.5904,-5.35714 3.0771,-12.29432 6.3027,-17.91992 3.5296,-6.15935 9.5491,-10.54206 13.1875,-16.64063 12.4256,-20.84417 21.8635,-43.59161 32.7051,-65.2793 7.0432,-14.08161 7.6125,-29.61774 12.0605,-44.48046 1.2908,-4.31704 5.2707,-9.32258 10.1817,-9.8711 z m -548.1035,65.77149 c 1.8285,0.0515 3.6791,1.82836 4.7832,3.03515 3.2457,3.54785 5.0234,7.07791 10.1171,8.1211 13.5207,2.76895 28.2649,-2.73633 41.92,-2.73633 11.08,0 22.4953,2.72323 32.9609,6.24609 9.3097,3.1338 18.5419,7.44405 28.4805,8.125 12.1977,0.8352 23.5227,-2.27489 35.5195,-3.43554 16.4608,-1.5933 32.8409,-1.36963 49.2793,0.67578 7.936,0.98755 15.3348,4.48012 22.4004,7.98828 2.976,1.47681 6.893,5.15198 10.2402,5.24609 3.1424,0.0883 6.2809,-1.86259 9.2793,-2.61328 8.624,-2.15905 17.7126,-4.96912 26.5606,-5.85742 17.2992,-1.73632 34.5118,-3.69623 51.8398,-4.88281 5.7824,-0.39614 11.8012,-1.17353 17.5996,-0.91993 6.2816,0.27523 11.5932,2.44157 17.5996,3.86524 4.5344,1.07425 9.1486,1.38906 13.7598,1.82812 6.9536,0.6621 14.1739,-0.0897 21.1211,-0.25976 10.1248,-0.24801 20.4356,0.13687 30.4004,-2.06055 6.9376,-1.53025 13.4242,-4.5073 20.1601,-6.66601 7.3121,-2.34335 15.1732,-3.79188 22.7188,-5.16211 6.8448,-1.24222 14.667,-2.32201 21.4414,-0.28711 2.576,0.77374 6.4718,2.61441 6.4238,5.84961 -0.07,4.80064 -7.9737,8.60512 -11.5449,10.49023 -10.5184,5.55296 -20.5181,2.8505 -31.6797,3.61914 -4.176,0.28766 -8.2305,1.85955 -12.1601,3.17188 -14.9888,5.00609 -29.7982,13.77923 -45.7598,15.30468 -13.4464,1.28512 -27.5689,0.15972 -40.9609,-1.27929 -5.5776,-0.59906 -11.3366,-2.93064 -16.959,-2.47657 -4.3456,0.35105 -8.6312,3.09496 -12.8008,4.31446 -11.0496,3.23233 -22.0345,6.62622 -33.2793,9.20703 -7.1712,1.64542 -14.2587,3.59817 -21.4395,5.19336 -4.608,1.02304 -10.1536,1.7389 -14.08,4.54883 -6.3584,4.55232 -5.8757,12.74768 -12.4805,17.23632 -3.152,2.14145 -6.5571,3.65543 -10.2402,4.62696 -3.088,0.81471 -6.679,1.03531 -9.2774,3.0625 -7.3856,5.76865 -6.3127,15.10069 -2.5527,22.50195 1.5392,3.024 3.4373,6.46976 6.7109,7.92578 4.0928,1.82079 8.418,-2.66984 12.7988,-1.72265 4.8,1.0368 8.8891,5.51812 13.4395,7.36132 7.5168,3.04642 16.5322,1.22865 23.041,6.97266 4.5184,3.99039 5.124,9.19911 8.1192,14.02148 2.7456,4.41922 6.4438,8.11818 5.9062,13.75977 -0.6848,7.1904 -6.4245,8.72314 -10.7285,13.46875 -2.0096,2.2176 -1.7197,5.22033 -3.2461,7.65234 -1.1712,1.85919 -3.3907,2.97293 -5.1699,4.16016 -3.8112,2.54079 -7.5781,7.34577 -12.4805,7.00977 -8.6688,-0.59199 -16.4461,-5.08667 -25.2812,-5.08985 -4.0224,0 -7.5197,0.25252 -10.5469,3.22852 -4.0416,3.9744 -3.7909,12.01995 -5.0996,17.25195 -2.6657,10.66881 -4.6766,21.6339 -5.1407,32.63867 -0.3135,7.40803 0.9473,14.96999 0.9473,22.40039 0,7.056 -1.8396,17.85341 3.5332,23.35742 4.6752,4.78719 10.9313,2.95255 16.9473,3.21485 4.5216,0.19839 8.2981,1.55165 12.4804,3.11328 3.1104,1.1616 6.5088,2.6404 8,5.83398 -5.2672,1.5552 -12.246,-1.02973 -17.5996,-1.54492 -8.2464,-0.79041 -16.8489,0.75577 -24.9609,-1.17383 -2.848,-0.67838 -5.0333,-2.54834 -7.6797,-3.65234 -3.104,-1.29921 -6.7463,-1.7823 -9.2519,-4.2207 -4.32,-4.20798 -4.9852,-11.95554 -6.3868,-17.56836 -1.5999,-6.39999 -3.0341,-12.94962 -5.1621,-19.19922 -2.9184,-8.5632 -6.6844,-17.29655 -6.0507,-26.56055 0.8063,-11.76638 4.8996,-23.74324 7.6132,-35.19922 0.8672,-3.648 3.8785,-9.44746 3.3985,-13.12109 -0.3648,-2.79039 -4.4454,-4.5072 -6.5606,-5.7168 -4.6336,-2.65281 -10.6437,-6.28828 -13.4629,-10.92187 -6.4512,-10.59523 -3.0389,-21.80283 -5.1797,-33.28125 -0.704,-3.77919 -1.9134,-7.71121 -3.539,-11.19922 -0.9248,-1.9776 -2.5284,-3.84392 -2.7461,-6.08008 -0.3104,-3.23104 1.9684,-6.18718 3.3476,-8.96094 3.3952,-6.81184 7.2705,-13.89457 12.0801,-19.83984 2.048,-2.53247 4.0087,-4.92097 5.7559,-7.67969 0.6976,-1.09598 1.7052,-2.49777 1.1133,-3.83984 -1.6641,-3.75806 -6.6352,-5.15691 -10.168,-6.28906 -9.0848,-2.91137 -17.7062,-6.55294 -26.5606,-10.09375 -17.0493,-6.81888 -34.8519,-9.929 -52.4804,-14.94727 -16.2458,-4.62429 -32.3257,-11.92777 -48.959,-14.87305 -8.0179,-1.41985 -17.1462,-0.87524 -25.2813,-0.83593 -14.67,0.0707 -28.8635,5.75976 -43.5195,5.75976 -5.2601,0 -13.3205,-1.23811 -15.123,-7.36133 -0.9114,-3.096 1.7909,-4.92118 4.5625,-4.59765 3.0883,0.36094 5.1798,2.64493 8,3.64843 2.7853,0.99107 5.9942,-0.10653 8.3203,-1.67968 4.5213,-3.0576 9.2517,-7.15037 12.6347,-11.45117 2.7264,-3.46594 4.6908,-8.32231 9.4454,-9.60743 0.258,-0.0697 0.518,-0.0992 0.7793,-0.0918 z m 282.6503,66.68554 c 5.3534,-0.0844 2.0337,7.56356 1.5567,10.85547 -1.7344,11.96255 -3.6526,24.33516 -6.1582,36.15821 -0.64,3.02082 -1.4492,6.19965 -1.6797,9.28125 -0.1248,1.6704 0.051,3.55148 -1.9551,4.00586 -2.1248,0.47999 -4.039,-0.5881 -6.0742,-0.97852 -4.3712,-0.83838 -8.8343,-1.29299 -13.1191,-2.57617 -1.888,-0.5664 -4.0926,-1.56915 -4.6622,-3.65235 -0.6336,-2.32958 0.8986,-5.38944 1.3946,-7.67968 1.2288,-5.6925 2.417,-11.51065 3.2265,-17.2793 0.6945,-4.93153 1.8019,-9.81125 2.5059,-14.7207 0.2912,-2.0352 -0.083,-4.61536 1.2637,-6.33985 1.6351,-2.0925 4.416,-2.54242 6.832,-3.07617 5.216,-1.1523 10.4381,-2.94059 15.6797,-3.875 0.4374,-0.0779 0.8326,-0.11742 1.1894,-0.12305 z m -43.539,131.47461 c 2.7041,-0.15749 5.3222,1.73138 7.789,2.50977 3.6672,1.15839 7.5628,0.72876 11.2012,1.68555 1.6448,0.43521 3.3941,1.46198 3.8965,3.18359 0.5088,1.74077 -0.4245,3.77422 -0.8789,5.44141 -0.7936,2.89281 -1.2813,5.98937 -1.6973,8.95898 -2.0448,14.55677 -4.9555,29.0671 -7.5859,43.52148 -1.1616,6.39682 -2.3042,12.75445 -3.1074,19.19922 -0.2976,2.39362 -0.051,5.66679 -2.7871,6.4668 -2.9633,0.86717 -5.7767,-1.01073 -8.6407,-1.51953 -3.2704,-0.57581 -6.925,-0.14649 -10.2402,-0.14649 -1.6416,0 -4.628,0.41587 -5.5527,-1.32812 -2.1824,-4.11523 1.1245,-11.3096 1.6621,-15.63281 1.8559,-14.91202 5.0492,-30.07121 8.0508,-44.80078 1.3728,-6.72643 3.0368,-13.63051 3.5488,-20.47852 0.16,-2.1216 0.8353,-6.16622 3.1777,-6.85742 0.3896,-0.1152 0.7778,-0.18063 1.1641,-0.20313 z m 409.5918,127.25391 c 4.6707,0.0971 9.2196,1.14452 12.9179,3.19531 2.3297,1.29279 6.6897,2.77989 7.4961,5.57031 0.9089,3.1584 -1.5072,7.26394 -3.0175,9.91993 -0.6177,1.08162 -1.1579,2.57645 -2.5723,2.73632 -2.1376,0.24322 -4.9182,-2.10955 -6.707,-3.10156 -4.4864,-2.4864 -9.6164,-4.29135 -14.4004,-1.59375 -6.832,3.8496 -8.6676,10.41309 -9.7364,17.63867 -1.5232,10.2912 -1.587,20.72102 -0.5566,31.04102 0.7616,7.61597 2.2223,14.13665 8.0527,19.49023 3.5968,3.3024 12.8429,4.09112 15.5469,-0.92968 0.8193,-1.5264 0.3549,-3.16236 0.5469,-4.80079 0.509,-4.38077 0.9354,-10.08999 -0.092,-14.40039 v 0 c -2.4576,0.58564 -8.0137,1.17743 -10.2089,-0.27539 -2.8608,-1.8912 -2.9378,-11.11059 -1.0274,-13.70898 1.4144,-1.92011 4.0097,-1.69531 6.1152,-1.69531 h 13.1211 c 1.968,0 4.5756,-0.30173 6.3516,0.73828 1.6992,0.9984 1.0267,3.41828 1.0078,5.02148 -0.051,4.5984 -0.3279,9.16458 -0.3203,13.75977 0.01,4.8576 -0.3017,9.8823 0.031,14.7207 0.2239,3.25761 1.1895,7.83888 -0.3497,10.87891 -1.1104,2.19518 -3.6509,3.4866 -5.7597,4.55859 -5.1936,2.64321 -11.1561,4.03849 -16.961,4.33594 -3.0271,0.15681 -6.662,-0.17093 -9.5996,-0.94531 -25.7088,-6.77122 -25.1649,-40.85491 -23.709,-62.0293 0.336,-4.87359 1.1777,-9.64323 2.3457,-14.39844 1.76,-7.1712 5.15,-13.45566 10.4844,-18.54687 5.094,-4.864 13.2175,-7.34147 21.002,-7.17969 z m -92.6211,0.0547 c 4.595,-0.026 9.1338,0.90752 13.0566,2.91992 3.072,1.5744 8.3471,3.26584 8.3887,7.39062 0.016,1.5936 -0.9411,3.05329 -1.5234,4.48047 -0.7169,1.76323 -1.8608,5.70297 -3.752,6.52539 -2,0.86718 -5.8926,-2.18188 -7.5918,-3.13867 -4.7072,-2.65281 -10.305,-4.36351 -15.041,-0.9043 -10.7328,7.83678 -9.9199,23.62964 -9.9199,35.59766 0,4.39998 0.013,8.74793 0.5508,13.11914 0.6111,4.992 1.2996,11.37094 4.666,15.36133 3.7856,4.48641 7.1642,6.57255 13.0234,5.75976 2.4864,-0.3456 4.8665,-1.01075 5.9609,-3.51953 0.8289,-1.89441 0.4395,-4.38117 0.4395,-6.40039 v -12.48047 c -2.7584,0.34885 -7.6618,1.23294 -10.1738,-0.32226 -2.848,-1.7664 -2.7828,-12.04534 -0.5684,-14.25977 1.504,-1.50398 4.3386,-1.09765 6.2617,-1.09765 h 12.4805 c 1.9808,0 4.5174,-0.35427 6.3574,0.54492 1.6448,0.8064 1.3223,3.05424 1.3223,4.57422 v 13.12109 18.56055 c 0,2.65281 0.3812,6.26552 -1.0332,8.63672 -3.056,5.11997 -12.4173,7.19658 -17.8477,8.17578 -3.0112,0.54062 -5.9446,0.15782 -8.959,0.14648 -2.9727,-0.01 -5.8694,-0.58565 -8.6406,-1.66406 -21.043,-8.19519 -20.7988,-35.10684 -20.7988,-54.01563 0,-4.56642 0.475,-8.92745 1.1406,-13.43945 1.3696,-9.24801 4.1132,-19.62034 11.3516,-26.10351 5.378,-4.818 13.1913,-7.52505 20.8496,-7.56836 z m -262.5469,0.58789 c 5.3337,0.21509 10.5714,1.77064 15.4434,3.87304 2.7776,1.19683 6.2726,3.38656 6.4804,6.81055 0.1024,1.72479 -1.6483,3.93225 -2.4004,5.43945 -0.7455,1.4976 -1.189,3.7476 -2.5234,4.81641 -2.4864,1.99359 -6.5992,-1.83343 -8.916,-2.97266 -7.776,-3.8304 -21.0621,-2.5149 -20.1309,9.03711 0.3424,4.2144 3.4882,6.82815 6.6914,9.09375 5.9264,4.1952 12.7491,7.34156 18.2403,12.11914 18.1696,15.80803 12.3071,51.29165 -14.0801,53.93164 -6.7008,0.66883 -14.2757,-1.48731 -20.4805,-3.8457 -2.2048,-0.83841 -5.0534,-1.55153 -6.2597,-3.78515 -1.5168,-2.8032 0.2115,-5.9628 1.2675,-8.63477 0.7264,-1.8432 0.838,-4.29629 2.4668,-5.62109 3.024,-2.4576 7.4915,1.66937 10.2051,2.95898 7.9296,3.76959 17.1261,4.22692 20.6973,-5.33789 0.5824,-1.5648 1.2093,-3.09642 1.1484,-4.79883 -0.2208,-6.45441 -5.3022,-10.45432 -10.3262,-13.5039 -5.9744,-3.6288 -12.5402,-7.08503 -17.625,-11.93946 -9.4368,-9.0144 -11.1351,-27.05047 -3.0039,-37.59765 4.3584,-5.6544 10.79,-8.78607 17.75,-9.78125 1.7888,-0.25601 3.5776,-0.33342 5.3555,-0.26172 z m 183.4688,1.31445 c 2.0614,0.0354 3.9921,0.35888 5.0937,0.79688 4.4416,1.76961 3.3826,4.99176 3.2129,8.89257 -0.2963,6.79998 -0.012,13.67407 -0.012,20.48047 v 14.71875 c 0,18.4416 4.3655,45.67942 -17.2793,53.77539 -2.4608,0.9216 -5.0461,1.90763 -7.6797,2.16992 -4.608,0.4608 -9.1774,0.33934 -13.7598,-0.40624 -10.0192,-1.62562 -15.5333,-9.52229 -17.959,-18.73829 -3.9519,-15.0432 -2.2011,-31.91814 -2.2011,-47.36132 v -24.31836 c 0,-1.99038 -0.9327,-7.17915 0.3281,-8.76953 1.1518,-1.45573 7.1175,-0.77801 8.9492,-1.01758 2.8574,-0.37395 6.5844,0.11024 7.9121,3.0664 0.7423,1.65442 0.1368,3.40396 0.092,5.11914 -0.096,3.96802 0,7.87822 0,11.83985 0,17.1552 -0.4153,34.37267 0,51.52148 0.1632,6.60159 2.854,13.51398 10.2364,14.25 8.5728,0.85758 13.92,-5.39981 14.9472,-13.29101 0.848,-6.50559 0.4141,-13.28305 0.4141,-19.83985 v -33.27929 c 0,-3.58719 0.2843,-7.30966 -0.055,-10.88086 -0.1568,-1.632 -1.0082,-4.16177 -0.3906,-5.72657 0.918,-2.322 4.7147,-3.06089 8.1504,-3.00195 z m -87.4864,0.0606 c 3.7884,0.044 7.2363,0.84514 8.7403,3.86914 l 0.3203,-0.96094 c -0.074,1.8144 -1.1801,3.40591 -1.7305,5.12109 -0.9728,3.0528 0.078,7.628 -3.3906,9.23438 -5.1392,2.37762 -17.0519,-3.88493 -15.9063,5.80469 1.6928,14.34878 0.2266,29.70255 0.2266,44.16015 v 19.83985 c 0,2.544 0.6315,5.51998 0.2539,8 -0.7328,4.7712 -9.9362,3.80438 -13.373,3.33398 -1.3761,-0.18557 -3.2555,-0.11479 -4.0586,-1.48437 -0.9153,-1.56159 -0.4219,-4.26578 -0.4219,-6.00977 0,-4.9248 0.217,-9.80672 0.3164,-14.71875 0.2496,-12.79037 0,-25.60998 0,-38.40039 0,-3.95199 -0.3164,-7.91344 -0.3164,-11.83984 0,-2.1696 0.4675,-4.59911 -0.2109,-6.72071 -0.6976,-2.1823 -2.7122,-1.92313 -4.5938,-1.91992 -4.0896,0.006 -11.8478,2.52877 -12.4238,-3.19922 -0.1856,-1.83681 0.3091,-3.63343 0.1972,-5.4414 -0.144,-2.2464 -1.3246,-4.42091 0.461,-6.36328 2.4288,-2.64322 6.7161,-1.31641 9.8457,-1.31641 8.4064,0 16.8524,-0.32031 25.2812,-0.32031 2.8624,0 6.9909,-0.71198 10.7793,-0.66797 z"
       transform="scale(0.26458333)" />
  </g>
</svg>
