<?xml version="1.0" encoding="UTF-8" standalone="no"?>
<!-- Created with Inkscape (http://www.inkscape.org/) -->

<svg
   width="202.26524mm"
   height="185.32935mm"
   viewBox="0 0 202.26524 185.32935"
   version="1.1"
   id="svg1109"
   inkscape:version="1.1 (c68e22c387, 2021-05-23)"
   sodipodi:docname="twist.svg"
   xmlns:inkscape="http://www.inkscape.org/namespaces/inkscape"
   xmlns:sodipodi="http://sodipodi.sourceforge.net/DTD/sodipodi-0.dtd"
   xmlns="http://www.w3.org/2000/svg"
   xmlns:svg="http://www.w3.org/2000/svg">
  <sodipodi:namedview
     id="namedview1111"
     pagecolor="#ffffff"
     bordercolor="#666666"
     borderopacity="1.0"
     inkscape:pageshadow="2"
     inkscape:pageopacity="0.0"
     inkscape:pagecheckerboard="0"
     inkscape:document-units="mm"
     showgrid="false"
     fit-margin-top="0"
     fit-margin-left="0"
     fit-margin-right="0"
     fit-margin-bottom="0"
     inkscape:zoom="0.37059484"
     inkscape:cx="1002.4425"
     inkscape:cy="-317.05784"
     inkscape:window-width="1920"
     inkscape:window-height="1017"
     inkscape:window-x="-8"
     inkscape:window-y="32"
     inkscape:window-maximized="1"
     inkscape:current-layer="layer1" />
  <defs
     id="defs1106" />
  <g
     inkscape:label="Layer 1"
     inkscape:groupmode="layer"
     id="layer1"
     transform="translate(73.179671,39.350988)">
    <path
       style="fill:#ffffff;stroke:none;stroke-width:0.0846667;fill-opacity:1"
       d="m 21.982236,12.798039 c 0.59774,-0.141986 1.10998,-0.488527 1.69333,-0.674878 1.10405,-0.352637 2.30632,-0.4953 3.38667,-0.896535 0.48006,-0.178224 0.88138,-0.525188 1.35466,-0.725086 1.06934,-0.451527 2.26568,-0.9392075 2.77114,-2.1062525 1.49437,-3.450675 -1.27,-7.360243 -2.76098,-10.413916 -1.81102,-3.706283 -3.53906,-7.465568 -5.32214,-11.1759995 -0.19389,-0.402929 -0.17865,-0.864023 -0.37254,-1.269915 -0.19558,-0.410803 -0.55964,-0.695198 -0.75692,-1.10109 -0.27686,-0.568791 -0.30564,-1.220894 -0.61552,-1.777662 -0.24723,-0.445008 -0.6223,-0.79866 -0.8272,-1.27 -0.91609,-2.110147 -1.5604,-4.279222 -2.53746,-6.35 -0.3666,-0.777579 -0.37846,-1.710859 -0.57488,-2.54 -0.2921,-1.232154 -0.7256,-2.473875 -0.90509,-3.725333 -0.20489,-1.427311 -0.22352,-2.884594 -0.39878,-4.318 -0.13547,-1.100667 0.0271,-3.233759 -1.24629,-3.766397 -0.46144,-0.192617 -0.88646,0.394123 -1.11845,0.718397 -0.72559,1.013036 -1.05664,2.221314 -1.43679,3.387005 -1.56803,4.810675 -0.18966,9.178798 1.74159,13.63108 2.00491,4.621106 3.7719,9.476232 4.61687,14.4779145 0.74761,4.430353 1.58412,8.851223 2.26992,13.292667 0.32681,2.119461 0.16086,4.6237315 1.03886,6.6040005 m 21.082,18.203338 h 0.33866 c 0.007,0.57573 0.37169,1.04648 0.65024,1.53839 0.58505,1.03293 1.10152,2.0955 1.71112,3.11743 0.254,0.42587 0.54102,1.28016 1.02531,1.44018 0.15071,1.20142 1.52061,1.99474 1.63576,3.21733 0.0364,0.38439 -0.3175,0.70781 -0.47837,1.03039 -0.34459,0.69004 -0.69596,1.40124 -0.56472,2.18694 -0.61214,-0.0212 -1.13369,-0.64516 -1.64169,-0.95588 -0.92795,-0.56896 -1.59427,-0.75184 -2.67631,-0.73745 -1.15994,0.0161 -2.46211,1.06849 -3.15384,1.9304 -1.84234,2.29701 -2.14884,5.42375 -0.72474,8.05688 0.43095,0.79587 0.94064,1.64846 1.6002,2.28177 0.4301,0.41232 1.06595,0.67733 1.0778,1.36228 0.0136,0.78571 -0.38438,1.5494 -0.59605,2.286 -0.25146,0.87715 -0.40386,1.82118 -0.61468,2.70934 -0.58251,2.46549 -0.86275,5.43221 -0.6223,7.95866 0.22098,2.32072 0.59097,4.92337 2.14122,6.77334 0.52578,0.62653 1.21751,0.65193 1.79155,1.11167 0.15494,0.12446 0.10244,0.28702 -0.0669,0.36153 -0.64855,0.28702 -1.67301,-0.0254 -2.35627,-0.0339 -1.86521,-0.022 -3.72703,0.0288 -5.588,0.0288 -5.90635,0 -11.85588,0.0559 -17.78,0.0559 -21.4782448,0 -42.892986,-0.0847 -64.346673,-0.0847 -6.674527,0 -13.315357,0.0847 -19.981333,0.0847 -1.695281,0 -3.390562,-0.0847 -5.080001,-0.0847 -0.412496,0 -1.405128,-0.18119 -1.715177,0.13547 -0.33528,0.3429 -0.147489,1.36652 -0.147489,1.81186 0,1.72382 -0.230294,3.63728 0.08467,5.334 2.246207,-0.4174 4.827271,-0.0847 7.112001,-0.0847 H -51.847103 -7.9897688 129.08557 c 0,-1.69164 -0.0847,-3.38328 -0.0847,-5.08 0,-0.4843 0.19304,-1.51808 -0.14732,-1.90416 -0.27686,-0.31242 -0.92286,-0.23198 -1.29201,-0.18796 -0.96435,0.11346 -1.99983,0.0762 -2.96333,0.0279 -4.61518,-0.22775 -9.3362,0.0322 -13.97,0.0322 H 72.358866 c -3.90144,0 -7.79356,0.0423 -11.684,-0.0457 -1.37922,-0.0322 -3.00736,0.34798 -4.318,-0.20828 v -0.0847 c 2.72627,-1.91855 3.58225,-5.15112 4.01574,-8.29733 0.52155,-3.78968 8.5e-4,-7.55989 -0.82634,-11.26067 -0.77301,-3.4544 -1.7526,-6.80889 -3.31724,-9.99067 -0.96097,-1.95495 -2.17932,-3.75327 -3.36974,-5.57106 -0.4826,-0.7383 -1.28354,-1.62306 -1.28862,-2.55694 -0.003,-0.69172 0.60536,-1.28524 0.89746,-1.86859 0.25062,-0.50292 0.61553,-1.49267 1.09474,-1.77207 0.32851,-1.81864 2.27584,-3.20379 2.82364,-4.99534 1.45118,-4.74218 -0.5207,-9.739205 -3.54838,-13.377331 -0.97198,-1.1673 -2.03793,-2.329434 -3.34264,-3.13944 -6.11886,-3.7992485 -13.72955,-2.595796 -19.63928,1.103206 -1.35975,0.8509 -2.54,1.887136 -3.66522,3.016335 -0.55542,0.557699 -1.28016,1.317329 -1.32673,2.152565 -0.0517,0.933027 0.65871,1.129454 1.43595,1.341967 1.47912,0.404707 3.05308,0.570653 4.572,0.809413 4.05976,0.639234 8.93826,2.789765 10.99481,6.544735 0.39201,0.71543 1.13623,1.66539 1.19719,2.47989 M 21.135566,12.519232 c -0.95504,0.07137 -1.8288,0.7747 -2.70933,1.088305 -0.63246,0.225129 -1.31403,0.273643 -1.94734,0.506645 -1.56802,0.576665 -3.06916,1.43256 -4.572,2.135294 -2.4866598,1.163066 -5.1214798,2.287185 -7.4506598,3.804496 -4.96147205,3.23088 -9.125378,7.695355 -11.347032,13.233405 -0.303106,0.75438 -0.37592,1.58834 -0.580813,2.37066 -0.292947,1.11676 -0.762,2.22504 -0.849207,3.38667 -0.34036,4.54237 -0.326813,8.99837 -0.01524,13.54667 0.09906,1.44864 0.09991,2.88036 0.35306,4.318 0.349673,1.98035 0.963507,5.40173 3.633894,5.13926 2.59334,-0.25484 2.973493,-2.14037 2.87528,-4.37726 -0.08975,-2.05317 -0.82804,-4.0022 -1.144694,-6.01134 -0.46736,-2.96926 -0.42672,-5.99778 -0.107526,-8.97466 0.496146,-4.63381 2.26906595,-9.5394 5.418666,-13.03867 2.341882,-2.60181 5.408512,-4.67699 8.3676118,-6.514255 2.74658,-1.70434 5.88179,-2.8448 8.55133,-4.640495 1.47489,-0.991616 2.032,-2.558796 2.032,-4.254585 0,-0.504782 0.30903,-1.779185 -0.508,-1.71814 m 28.61733,23.646805 c -0.26924,-1.13707 -0.82042,-2.21826 -1.24375,-3.302 -0.68157,-1.74836 -1.28016,-3.61357 -2.21657,-5.24933 -1.46897,-2.5654 -3.57209,-4.539828 -5.8945,-6.303435 -1.30132,-0.988906 -3.18516,-2.443226 -4.78451,-2.840566 -0.26501,-0.467191 -1.14977,-1.14554 -1.69333,-1.185334 0.70104,-0.511979 1.2937,-1.231307 2.11666,-1.570312 1.33689,-0.550672 2.63822,-0.682075 4.064,-0.716958 2.00491,-0.04902 3.80746,0.144272 5.67267,0.976207 3.86757,1.724575 6.34323,5.969423 6.35,10.116398 0.004,2.60689 -0.31581,5.12149 -1.08458,7.62 -0.26162,0.84921 -0.38947,2.06756 -1.28609,2.45533 m 0,6.18067 c 1.39192,2.2733 3.12759,4.32054 4.10888,6.858 1.5096,3.8989 1.64846,8.13308 1.64846,12.27667 0,2.40538 0.0398,4.84716 -0.51816,7.19666 -0.32512,1.3716 -0.91271,2.54762 -1.69164,3.72534 -0.44789,0.67733 -1.11422,1.24036 -1.37753,2.032 -0.24723,0.74083 -0.29295,2.49258 -1.32334,2.53153 -0.54525,0.0212 -1.39954,-0.37084 -1.68148,-0.84582 -0.30311,-0.51139 -0.37253,-1.28609 -0.57912,-1.85505 -0.57319,-1.57818 -1.13623,-3.15552 -1.69249,-4.74133 -1.27846,-3.64067 -0.79332,-7.80457 -0.22098,-11.51467 0.21929,-1.41647 0.32766,-2.85157 0.73914,-4.23333 0.42842,-1.4351 1.07358,-2.78892 1.43849,-4.23333 0.59013,-2.33511 0.37253,-4.8895 1.14977,-7.19667 m -120.819333,17.44133 c -0.002,0.74338 -0.212344,1.46135 -0.245195,2.20134 -0.118533,2.67208 -0.114469,5.4593 0.06833,8.128 0.06028,0.88053 -0.373295,2.70256 0.164846,3.43154 0.433663,0.58758 1.126744,0.2523 1.705356,0.16171 1.405044,-0.21929 2.840906,0.13208 4.230032,0.0948 0.308017,-0.008 0.737108,-0.39032 0.651425,-0.72475 -0.165608,-0.64685 -0.982895,-0.67649 -1.49479,-0.61722 -0.784945,0.0914 -1.584621,-0.0356 -2.370667,0.0389 -0.37448,0.0356 -0.906102,0.19727 -1.25095,-0.0195 -0.418338,-0.26331 -0.433578,-0.91694 -0.491151,-1.34958 -0.165608,-1.24545 0.03505,-2.49428 -0.120566,-3.72534 1.430867,0.004 2.897887,0.26162 4.318001,-0.0635 0.292269,-0.066 1.351788,-0.11599 1.276688,-0.59859 -0.05893,-0.37761 -0.999151,-0.29549 -1.276688,-0.3302 -1.369992,-0.16764 -2.846155,-0.10837 -4.233334,-0.10837 v -3.72534 c 9.31e-4,-0.44534 0.125476,-1.10574 0.603928,-1.30386 0.323934,-0.13378 0.751755,0.0246 1.089406,0.033 0.817456,0.0195 1.637622,8.4e-4 2.455333,8.4e-4 0.393023,0 1.056471,0.0991 1.258739,-0.34798 0.167048,-0.36914 -0.217424,-0.86444 -0.582676,-0.90593 -1.214204,-0.1397 -2.570056,0.0347 -3.80873,-0.0195 -0.658707,-0.0288 -1.28778,-0.24554 -1.947333,-0.25062 m 34.120667,0.12192 c -2.211493,0.19812 -4.467775,0.1795 -6.688667,0.0652 -0.457115,-0.0237 -1.943523,0.1253 -1.52129,0.90424 0.390228,0.72051 2.033354,0.43264 2.706624,0.43264 0.33384,0 0.789262,-0.0626 0.989076,0.27348 0.379814,0.63838 0.11159,1.96765 0.11159,2.68986 0,2.25636 0.13843,4.52289 0.0834,6.77333 -0.01295,0.53001 -0.321903,2.88967 0.510286,2.88967 0.536871,0 0.67056,-0.71035 0.675979,-1.11167 0.01913,-1.41055 0.08501,-2.82787 0.08501,-4.23333 0,-1.778 -0.02083,-3.55685 3.39e-4,-5.334 0.0054,-0.4589 -0.132334,-1.57311 0.272965,-1.85505 0.901869,-0.62738 2.430103,0.59182 3.255603,-0.21336 0.40894,-0.39963 0.11938,-1.33435 -0.480907,-1.28101 m 10.414,-0.002 c -0.798406,0.10668 -1.722966,0.13462 -2.454486,0.50461 -3.020907,1.52824 -4.755727,5.7658 -3.594947,9.02716 1.182793,3.32486 4.18084,5.12911 7.6581,4.34764 0.504613,-0.11346 1.157393,-0.10838 1.606973,-0.37592 0.401321,-0.23876 0.652781,-1.03378 0,-1.13623 -0.552873,-0.0872 -1.24714,0.30311 -1.776306,0.43434 -0.694267,0.17272 -1.41478,0.12277 -2.116667,0.005 -0.767927,-0.12954 -1.745827,-0.36322 -2.36728,-0.85513 -2.106507,-1.66624 -2.178473,-4.98094 -1.53416,-7.33044 0.618913,-2.25722 3.107267,-3.61781 5.340773,-3.46372 0.762,0.0525 2.01422,0.76116 2.704254,0.36746 0.672253,-0.38439 0.03725,-0.97282 -0.418254,-1.18703 -0.833966,-0.39031 -2.1463,-0.4572 -3.048,-0.33782 m -25.908,9.02377 c 0.0712,0.49361 0.531029,0.84074 0.537295,1.35467 0.02354,1.91177 -1.876383,2.57895 -3.500629,2.44771 -0.587078,-0.0474 -2.034709,-1.08796 -2.440178,-0.40301 -0.7758,1.30979 1.718818,1.49267 2.440178,1.51045 1.406991,0.0339 3.060277,0.0373 3.952749,-1.28608 0.809582,-1.20058 0.922697,-2.3368 0.375073,-3.62374 -0.235204,-0.55287 -0.73152,-1.26238 -1.364488,-1.35466 -0.191685,-0.5842 -0.941747,-0.97282 -1.439333,-1.27762 -1.392175,-0.85344 -3.127926,-1.69418 -2.774697,-3.63305 0.169249,-0.92879 1.996186,-1.72805 2.859363,-1.66539 0.537972,0.0389 1.008211,0.26924 1.524,0.392 0.442722,0.10499 1.17111,0.0711 1.055032,-0.58928 -0.09296,-0.52916 -0.687409,-0.71289 -1.139698,-0.79417 -1.084919,-0.19643 -2.425531,-0.11599 -3.471334,0.22945 -1.859788,0.61298 -2.551853,3.25543 -1.648545,4.88272 0.575988,1.03717 1.667595,1.7018 2.664545,2.275 0.708237,0.40809 1.585468,1.4207 2.370667,1.535 m 16.594667,2.87867 c -0.193887,0.28363 -0.44704,0.54864 -0.61468,0.84667 -0.3048,0.54271 0.420793,1.43256 1.027007,1.21496 0.879686,-0.31411 0.107526,-1.80763 -0.412327,-2.06163 m -25.484667,0.18457 c -0.934043,0.10753 -0.856404,2.15562 0.168994,1.98459 0.938784,-0.15579 0.618744,-2.07603 -0.168994,-1.98459 m 13.885333,2.1861 c 0.181441,-0.24554 0.387858,-0.48514 0.521293,-0.762 0.574887,-1.19126 -1.282615,-2.03708 -1.282615,-0.42334 0,0.19474 5.08e-4,0.40302 0.09914,0.57743 0.142579,0.25146 0.441198,0.42841 0.662178,0.60791 m 27.441314,-1.9431 c -0.90932,0.47074 -0.25908,2.02776 0.733214,1.41986 0.598593,-0.36661 -0.07366,-1.76192 -0.733214,-1.41986 m -52.756648,19.7231 h 10.244667 2.54 c 0.354923,0 0.795867,-0.0694 1.077045,0.19642 0.664125,0.62738 0.192955,2.37575 0.192955,3.19024 v 9.059343 30.39533 7.53533 c 0,0.55203 -0.279992,2.24452 0.135721,2.63652 0.42799,0.40386 1.536446,0.0728 2.065613,0.0728 1.949619,-8.5e-4 3.8989,-0.0169 5.842,0.0847 0.347641,-1.17602 0.08467,-2.59249 0.08467,-3.81 v -7.874 -28.27866 c 0,-3.37482 -0.153247,-6.796203 0.07713,-10.160003 0.05156,-0.75354 -0.303022,-1.75684 -0.123867,-2.45364 0.113114,-0.44027 0.57641,-0.5715 0.978069,-0.59098 0.98298,-0.0483 1.979083,-0.003 2.963333,-0.003 h 7.704667 c 0.519007,0 2.280074,0.27601 2.622127,-0.14732 0.4191,-0.51816 -0.04318,-1.85759 0.02709,-2.47735 0.07789,-0.69003 0.31242,-2.07518 -0.03979,-2.70002 -0.353907,-0.62907 -1.982893,-0.26331 -2.609427,-0.26331 h -8.043333 -18.965334 -4.826 c -0.442807,0 -1.450002,-0.18627 -1.811613,0.0999 -0.289221,0.2286 -0.120735,1.01008 -0.143256,1.33943 -0.09559,1.39531 0.0075,2.75505 0.0075,4.14867 m 165.269332,-5.50334 v 5.50334 h 10.329334 2.54 c 0.381,0 0.79418,-0.0483 1.07358,0.2667 0.26077,0.29379 0.19642,0.72474 0.19642,1.08796 0,0.87376 0.0423,1.75684 -0.0601,2.62467 -0.31157,2.63567 -0.0246,5.472853 -0.0246,8.128003 v 30.64933 7.62 c 0,0.56388 -0.2811,2.23774 0.13546,2.64668 0.39963,0.39032 1.55702,0.0627 2.06587,0.0627 1.94987,0 3.8989,-0.0169 5.842,0.0847 0.38439,-1.29963 0.16933,-2.88798 0.16933,-4.23333 0,-2.71187 -0.0474,-5.43221 0.004,-8.128 0.1778,-9.22528 -0.18796,-18.46241 0.0584,-27.686 0.0601,-2.26399 0.0288,-4.58047 -0.005,-6.858003 -0.0161,-1.04733 -0.14478,-2.18017 -0.008,-3.21733 0.0838,-0.64347 -0.40217,-2.33003 0.0618,-2.74066 0.77978,-0.69004 2.80585,-0.30734 3.78375,-0.30734 h 10.32933 v -4.064 c 0,-0.36492 0.15579,-1.18957 -0.19642,-1.4241 -0.53171,-0.35475 -1.88553,-0.0999 -2.51291,-0.0999 h -6.77333 -18.034 -5.757344 c -1.05579,0 -2.17678,-0.10838 -3.21733,0.0847 m -32.85067,14.986003 c -0.646,0.20066 -0.84328,0.96097 -1.0651,1.50961 -0.11854,0.29379 -0.39794,0.48599 -0.5207,0.78401 -0.27602,0.67141 -0.40556,1.47913 -0.52409,2.19372 -0.55118,3.32909 0.0406,6.88086 2.01845,9.65962 0.85683,1.2048 1.95157,2.18609 3.05816,3.15044 2.39946,2.09296 5.66674,3.69232 8.54795,5.02751 2.66107,1.23275 5.59985,2.45618 7.60561,4.68376 2.44771,2.71865 1.94648,7.04088 -1.17094,9.03901 -2.44094,1.5638 -5.22309,1.74922 -8.04334,1.6256 -2.08195,-0.0914 -4.22317,-0.44111 -6.18066,-1.1684 -1.05156,-0.39031 -2.25468,-1.27931 -3.38667,-1.28354 -0.1778,-0.54018 -1.9177,-1.6637 -2.45533,-1.69334 -0.40132,1.94649 -0.254,4.10972 -0.254,6.096 0,0.51901 -0.21336,1.6654 0.13546,2.08111 0.41233,0.49022 1.79578,0.84413 2.40454,1.00669 2.00914,0.53509 3.93107,1.05748 6.01133,1.35043 1.42917,0.20151 2.87782,0.381 4.318,0.45466 1.81271,0.0931 3.80492,-0.20151 5.588,-0.52324 4.74218,-0.85344 9.73751,-2.63059 11.98118,-7.33298 0.64516,-1.35128 0.96689,-2.91761 1.12776,-4.40267 0.94827,-8.71897 -7.01125,-13.84638 -13.87094,-17.16532 -3.2385,-1.56718 -8.52085,-3.37396 -9.03478,-7.55734 -0.37507,-3.0497 1.38853,-5.1308 4.03945,-6.37202 3.44932,-1.61459 8.15848,-1.37922 11.76866,-0.44534 1.18449,0.30649 2.41554,0.82126 3.47134,1.43425 0.30649,0.17865 0.96012,0.77893 1.33519,0.62145 0.4572,-0.19219 0.29295,-1.36398 0.26585,-1.75768 -0.094,-1.37668 -0.11006,-2.766063 -0.0762,-4.148663 0.0135,-0.52663 0.254,-1.25307 0.0212,-1.75599 -0.23368,-0.50292 -0.94234,-0.4826 -1.37668,-0.66717 -1.57903,-0.66887 -3.39513,-0.76878 -5.08,-0.98722 -5.38819,-0.70019 -11.14637,-0.10752 -16.002,2.36305 -1.34789,0.6858 -2.77283,1.68487 -3.78545,2.826173 -0.32088,0.36238 -0.8001,0.86699 -0.87122,1.35382 m -93.895327,-6.011333 c 0.272626,3.45186 1.87198,6.913033 2.729653,10.244673 1.890607,7.34568 4.148667,14.60584 6.1087,21.92866 1.090507,4.07162 2.224193,8.12377 3.363807,12.192 0.258233,0.92118 0.593513,1.86182 0.800947,2.794 0.154093,0.69596 0.250613,1.64084 0.598593,2.26653 0.32004,0.57404 1.535853,0.17103 2.061633,0.20997 1.85166,0.13716 3.8227,0.18034 5.672667,0.0178 0.458893,-0.0398 1.2446,0.24977 1.64338,-0.0542 0.547793,-0.41656 0.66294,-1.97697 0.836507,-2.60943 0.6756402,-2.45195 1.4071602,-4.89797 1.9989802,-7.366 0.724746,-3.02599 1.693333,-6.00202 2.50698,-8.97467 1.07188,-3.91668 2.031153,-7.87315 3.181773,-11.76866 0.496994,-1.68402 0.93218,-3.36042 1.311487,-5.08 0.253153,-1.14893 0.44111295,-2.54678 1.22089295,-3.47134 0.164254,0.69173 -0.12954,1.33689 -0.14732,2.032 -0.01947,0.77386 0.18796,1.78224 0.358987,2.54 0.65786,2.91084 1.63999305,5.75395 2.37320705,8.636 1.388533,5.45677 2.847333,10.92962 4.356093,16.34067 0.68326,2.4511 1.18195,5.05629 2.04555,7.45067 0.20997,0.58335 0.20574,1.93717 0.76793,2.27076 0.4842898,0.28702 1.4655798,0.0999 2.0142198,0.0999 1.66031,0 3.33671,0.0686 4.99533,-0.003 0.46397,-0.0203 1.73482,0.2142 2.03285,-0.19304 0.64516,-0.87969 0.69172,-2.33934 1.00499,-3.35958 0.86614,-2.8194 1.60443,-5.69383 2.32749,-8.55133 2.16746,-8.55557 4.74387,-17.03155 6.98584,-25.56933 0.7239,-2.75506 1.38938,-5.59986 2.30209,-8.297343 0.23283,-0.68749 0.20405,-1.45118 0.47837,-2.11666 0.13546,-0.32682 0.53086,-0.86953 0.38777,-1.24291 -0.17018,-0.4445 -1.51045,-0.28109 -1.88807,-0.28109 -1.6366,0 -3.27406,0.0195 -4.91066,0 -0.56388,-0.007 -1.39446,-0.27094 -1.6527,0.42502 -0.1905,0.51308 -0.0923,1.08797 -0.25315,1.60698 -0.0872,0.28278 -0.32004,0.48429 -0.41487,0.762 -0.48598,1.41393 -0.58504,3.103033 -0.93895,4.572003 -0.87715,3.63304 -1.73567,7.28726 -2.64583,10.922 -0.96605,3.8591 -1.89738,7.72244 -2.77284,11.59933 -0.83227,3.68554 -1.82033,7.11793 -1.905,10.922 -0.94318,-0.32851 -0.98552,-1.71111 -1.17602,-2.54 -0.57234,-2.49174 -1.09135,-4.96062 -1.71365,-7.45067 -1.75091,-7.00786 -3.7016298,-13.97 -5.3873398,-20.99733 -0.54356,-2.26399 -1.13115,-4.5212 -1.72381,-6.773333 -0.21082,-0.80264 -0.29634,-2.18271 -0.83143,-2.83549 -0.32512,-0.39709 -1.325877,-0.21251 -1.783077,-0.21251 h -4.910666 c -0.536787,0 -1.5748,-0.21167 -1.80848,0.42756 -0.47244,1.29117 -0.700194,2.73135 -1.06426,4.059773 -1.12776,4.12157 -2.287694,8.23976 -3.434081,12.36133 -1.3716002,4.93268 -2.7813002,9.87298 -4.1207262,14.81667 -0.42926,1.58496 -1.037167,3.13013 -1.36906,4.74133 -0.16256,0.7874 -0.357294,1.651 -0.392007,2.45534 -0.03217,0.73914 0.148167,1.38006 -0.0034,2.11666 -0.674793,-0.53255 -0.89408,-1.89992 -1.10998,-2.70933 -0.641773,-2.40115 -1.100666,-4.8641 -1.67386,-7.28133 -1.79324,-7.55312 -3.791373,-15.05543 -5.578687,-22.606 -0.475826,-2.00999 -0.96774,-4.004743 -1.469813,-6.011343 -0.150707,-0.60282 -0.250613,-1.83642 -0.770467,-2.2352 -0.486833,-0.37338 -1.75768,-0.13546 -2.351193,-0.13546 -2.09042,0 -4.18084,-0.0847 -6.265333,-0.0847 m 73.32133,0.0847 c 0,6.713223 -0.0847,13.431523 -0.0847,20.150663 v 13.29267 11.51467 c 0,1.0143 0.0957,2.04046 0.083,3.048 -0.004,0.37084 -0.24469,0.98806 -0.066,1.32926 0.24045,0.45974 1.34027,0.19474 1.76107,0.19474 1.60866,0 3.21818,-0.0186 4.826,0 0.40301,0.005 1.39276,0.30988 1.69248,-0.0508 0.43773,-0.52748 0.17018,-2.01253 0.17018,-2.65854 v -7.28133 -28.53267 -7.958663 c 0,-0.6858 0.30226,-2.36559 -0.16848,-2.91254 -0.31158,-0.36152 -1.66709,-0.13546 -2.11752,-0.13546 h -6.096 m 43.01067,47.836663 -0.0847,0.0847 z"
       id="path1200"
       sodipodi:nodetypes="cccccccccccccccccccccccccccccccccccscccccccssssscscscccscccsscccccccccccccccccccccccccccccccccccccscccccccccccccccsccccccccccccccccccccccccccccccscccccccscssscscscccccccccccccccccccccccccccccccccccccccccccscccccccscsccscccscscccsscccsccsccccccscscscscscscccccscscsccsccccccccccccccsccccccccccccccccccsccccccccsccccccccccccccsccccccccsccccccsccccccssccccccccccccsccscsccsccsccscscccc" />
  </g>
</svg>
