<?xml version="1.0" encoding="UTF-8" standalone="no"?>
<!-- Created with Inkscape (http://www.inkscape.org/) -->

<svg
   width="103.23588mm"
   height="92.150856mm"
   viewBox="0 0 103.23588 92.150856"
   version="1.1"
   id="svg11898"
   inkscape:version="1.1 (c68e22c387, 2021-05-23)"
   sodipodi:docname="u-turn.svg"
   xmlns:inkscape="http://www.inkscape.org/namespaces/inkscape"
   xmlns:sodipodi="http://sodipodi.sourceforge.net/DTD/sodipodi-0.dtd"
   xmlns="http://www.w3.org/2000/svg"
   xmlns:svg="http://www.w3.org/2000/svg">
  <sodipodi:namedview
     id="namedview11900"
     pagecolor="#ffffff"
     bordercolor="#666666"
     borderopacity="1.0"
     inkscape:pageshadow="2"
     inkscape:pageopacity="0.0"
     inkscape:pagecheckerboard="0"
     inkscape:document-units="mm"
     showgrid="false"
     fit-margin-top="0"
     fit-margin-left="0"
     fit-margin-right="0"
     fit-margin-bottom="0"
     inkscape:zoom="0.74118967"
     inkscape:cx="203.05194"
     inkscape:cy="321.77998"
     inkscape:window-width="1920"
     inkscape:window-height="1017"
     inkscape:window-x="-8"
     inkscape:window-y="32"
     inkscape:window-maximized="1"
     inkscape:current-layer="layer1" />
  <defs
     id="defs11895" />
  <g
     inkscape:label="Layer 1"
     inkscape:groupmode="layer"
     id="layer1"
     transform="translate(-73.321964,-60.301975)">
    <g
       id="g1445"
       transform="matrix(0.0146543,0,0,-0.0146543,68.40911,158.2949)"
       style="fill:#ffffff;fill-opacity:1">
      <path
         d="m 3260,6684 c -19,-2 -82,-9 -140,-15 C 2551,6608 2007,6385 1530,6016 1398,5914 1127,5646 1024,5515 644,5033 433,4531 348,3900 331,3771 331,3316 348,3180 461,2303 900,1543 1593,1022 2039,687 2561,480 3125,415 c 165,-19 499,-22 660,-6 540,56 1051,244 1490,549 287,199 585,497 787,787 262,375 440,812 519,1269 11,66 22,123 25,128 3,4 178,8 390,8 h 384 v 365 365 h -379 c -291,0 -381,3 -388,13 -6,6 -13,41 -17,77 -11,107 -63,346 -106,487 -247,818 -825,1505 -1590,1892 -321,163 -650,265 -1017,317 -102,14 -544,27 -623,18 z m 655,-74 c 345,-52 621,-138 930,-290 C 5959,5774 6639,4614 6569,3377 6525,2583 6197,1864 5629,1315 4890,601 3852,302 2839,511 1916,701 1118,1322 700,2175 c -153,310 -237,582 -291,935 -19,122 -23,189 -23,415 -1,293 7,385 56,629 94,476 294,910 602,1306 104,134 361,393 495,500 285,224 586,391 913,505 267,93 477,137 803,169 22,2 148,3 280,1 179,-3 276,-9 380,-25 z"
         id="path1352"
         style="fill:#ffffff;fill-opacity:1" />
      <path
         d="M 3211,6530 C 2728,6483 2240,6313 1850,6057 1114,5573 641,4835 508,3960 c -29,-194 -32,-617 -5,-810 98,-689 404,-1297 888,-1765 435,-420 959,-691 1544,-799 351,-65 749,-65 1100,0 1208,223 2169,1175 2398,2374 46,239 52,311 51,590 0,219 -4,290 -22,410 -116,765 -493,1428 -1087,1911 -421,342 -910,555 -1470,640 -150,23 -540,33 -694,19 z M 4357,5498 c 25,-28 1026,-1546 1036,-1571 8,-22 -7,-63 -28,-70 -8,-4 -189,32 -401,78 -212,47 -391,85 -399,85 -11,0 -14,-115 -18,-657 -4,-628 -5,-662 -26,-755 -177,-795 -1077,-1156 -1755,-704 -82,55 -208,175 -269,256 -89,119 -166,286 -203,440 -17,70 -18,159 -21,1233 l -3,1157 237,-2 238,-3 5,-1140 5,-1140 26,-72 c 66,-178 187,-312 351,-387 97,-45 163,-59 272,-59 184,0 322,59 456,193 63,63 95,104 122,160 74,147 72,122 76,838 3,524 1,642 -10,642 -7,0 -190,-39 -407,-86 -381,-84 -395,-86 -408,-68 -8,11 -13,30 -11,44 4,24 997,1539 1041,1588 12,12 32,22 47,22 15,0 35,-10 47,-22 z m 2071,-1985 2,-363 h -390 -390 v 365 365 l 388,-2 387,-3 z"
         id="path1354"
         style="fill:#ffffff;fill-opacity:1" />
    </g>
  </g>
</svg>
